<svg width="57" height="57" fill="none" xmlns="http://www.w3.org/2000/svg"><path d="M34.183 22.821a12.665 12.665 0 0 0-8.985-3.717h-.288v.004a12.666 12.666 0 0 0-8.701 3.714L4.459 34.569l.178.176-.177-.176a12.618 12.618 0 0 0-3.71 8.986c0 3.402 1.318 6.595 3.71 8.986a12.628 12.628 0 0 0 8.987 3.709c3.404 0 6.596-1.318 8.987-3.71l8.078-8.074-.177-.177.177.177a1.287 1.287 0 0 0 0-1.822l-.177.177.177-.177a1.288 1.288 0 0 0-1.822 0l-8.076 8.075a10.064 10.064 0 0 1-7.167 2.954 10.06 10.06 0 0 1-7.165-2.954c-3.95-3.95-3.95-10.38 0-14.33L18.03 24.643c3.95-3.95 10.383-3.948 14.332 0a1.285 1.285 0 0 0 1.82 0l-.177-.177m.177-1.645-.177.177a1.037 1.037 0 0 1 0 1.468m.177-1.645a1.287 1.287 0 0 1 0 1.822l-.177-.177m.177-1.645-.177 1.645m16.712-3.846-12.48 12.482c-3.95 3.95-10.38 3.95-14.333 0a1.287 1.287 0 1 0-1.821 1.822 12.675 12.675 0 0 0 8.987 3.717c3.255 0 6.51-1.24 8.987-3.718l-.177-.176.177.176L52.54 22.441a12.623 12.623 0 0 0 3.71-8.988 12.62 12.62 0 0 0-3.71-8.986A12.671 12.671 0 0 0 43.553.75h-.024a12.671 12.671 0 0 0-8.965 3.717l-9.545 9.544a1.287 1.287 0 0 0 0 1.822l.177-.177-.177.176a1.288 1.288 0 0 0 1.822 0l9.544-9.543a10.058 10.058 0 0 1 7.166-2.952 10.06 10.06 0 0 1 7.167 2.955 10.055 10.055 0 0 1 2.955 7.164c0 2.716-1.05 5.26-2.955 7.164Z" fill="#fff" stroke="#fff" stroke-width=".5"/></svg>