<svg width="43" height="56" fill="none" xmlns="http://www.w3.org/2000/svg"><path fill-rule="evenodd" clip-rule="evenodd" d="M27.82 50.536a4.063 4.063 0 0 0-3.81-2.656h-5.32a4.06 4.06 0 1 0 0 8.12h5.32a4.063 4.063 0 0 0 3.814-2.664 15.209 15.209 0 0 0 14.861-14.528c.01-.03.016-17.455.016-17.455A21.354 21.354 0 0 0 21.347 0h-.002A21.338 21.338 0 0 0 2.859 10.671 21.35 21.35 0 0 0 0 21.345V37.31a1.4 1.4 0 0 0 1.4 1.4h2.253a7.126 7.126 0 0 0 7.127-7.127v-1.845a7.13 7.13 0 0 0-7.127-7.128H2.8v-1.265A18.546 18.546 0 0 1 21.345 2.8h.003A18.552 18.552 0 0 1 39.9 21.353v1.257h-.853a7.13 7.13 0 0 0-7.128 7.128v1.845a7.13 7.13 0 0 0 7.128 7.128c.28.005.559.028.836.07A12.406 12.406 0 0 1 27.82 50.535Zm-2.55 1.404a1.26 1.26 0 0 1-1.26 1.26h-5.32a1.217 1.217 0 0 1-1.263-1.277 1.248 1.248 0 0 1 1.263-1.243h5.32c.696 0 1.26.565 1.26 1.26ZM7.98 29.738v1.845a4.328 4.328 0 0 1-4.327 4.328H2.8v-10.5h.853a4.326 4.326 0 0 1 4.327 4.327Zm26.74 1.845v-1.845a4.326 4.326 0 0 1 4.327-4.327h.852v10.5h-.852a4.327 4.327 0 0 1-4.328-4.328Z" fill="#fff"/></svg>