<svg width="44" height="58" fill="none" xmlns="http://www.w3.org/2000/svg"><path d="M27.361 49.569a4.105 4.105 0 0 1 1.494 1.916 12.356 12.356 0 0 0 8.262-3.503l.035.036-.035-.036a12.356 12.356 0 0 0 3.714-8.159 6.525 6.525 0 0 0-.784-.062v-.05a7.126 7.126 0 0 1-7.127-7.128v-1.845a7.13 7.13 0 0 1 7.128-7.128L27.36 49.57Zm0 0a4.116 4.116 0 0 0-2.35-.739h-5.32a4.11 4.11 0 0 0-2.907 1.204l.035.035-.035-.035a4.11 4.11 0 0 0 0 5.813l.035-.036-.035.036a4.11 4.11 0 0 0 2.906 1.203h5.32c.843 0 1.664-.259 2.355-.74l-.029-.042.029.041a4.112 4.112 0 0 0 1.494-1.924 15.26 15.26 0 0 0 14.876-14.573v-.017l.001-.04.001-.148.002-.557.003-1.982a10446.976 10446.976 0 0 0 .008-11.992v-2.723h-.05.05A21.403 21.403 0 0 0 22.349.95h-.003a21.389 21.389 0 0 0-18.53 10.697A21.399 21.399 0 0 0 .95 22.344V38.31c0 .801.65 1.45 1.45 1.45h2.253a7.176 7.176 0 0 0 7.177-7.177v-1.845a7.18 7.18 0 0 0-7.177-7.178H3.85v-1.215A18.496 18.496 0 0 1 22.345 3.85h.003A18.502 18.502 0 0 1 40.85 22.353v1.207L27.361 49.57Zm-7.67 4.581h-.003a1.167 1.167 0 0 1-1.21-1.224v-.003a1.198 1.198 0 0 1 1.211-1.193h5.321a1.21 1.21 0 0 1 0 2.42h-5.32ZM4.652 36.86H3.85v-10.4h.803a4.275 4.275 0 0 1 4.277 4.277v1.846a4.277 4.277 0 0 1-4.277 4.278Zm35.394-10.4h.802v10.4h-.802a4.278 4.278 0 0 1-4.277-4.277v-1.845c0-1.135.45-2.223 1.252-3.025l-.035-.035.036.035a4.275 4.275 0 0 1 3.024-1.252Z" fill="#fff" stroke="#fff" stroke-width=".1"/></svg>