<svg width="47" height="58" fill="none" xmlns="http://www.w3.org/2000/svg"><path fill-rule="evenodd" clip-rule="evenodd" d="M45.789 23.59c0-12.405-10.073-22.572-22.386-22.573 12.313 0 22.386 10.168 22.386 22.573 0 4.57-1.12 9.14-3.637 13.619-1.773 3.544-4.291 7.088-7.462 10.446-5.317 5.69-10.634 9.048-10.82 9.14.186-.092 5.503-3.45 10.82-9.14 3.171-3.358 5.69-6.903 7.462-10.447 2.518-4.477 3.637-9.047 3.637-13.618ZM0 23.59C0 10.63 10.52 0 23.403 0s23.404 10.63 23.404 23.59c0 4.738-1.16 9.472-3.756 14.096-1.822 3.636-4.397 7.252-7.62 10.666a63.798 63.798 0 0 1-7.452 6.777 54.365 54.365 0 0 1-2.512 1.839c-.311.213-.563.38-.746.497a5.67 5.67 0 0 1-.395.24l-.031.016c-.157.08-.544.279-.985.279-.438 0-.827-.198-.98-.277l-.033-.017a5.566 5.566 0 0 1-.398-.241 31.402 31.402 0 0 1-.745-.498 54.42 54.42 0 0 1-2.513-1.838 63.79 63.79 0 0 1-7.452-6.777c-3.228-3.42-5.807-7.042-7.629-10.685C1.163 32.967 0 28.24 0 23.59Zm23.403 30.967c-1.492-1.026-5.69-4.01-9.794-8.394-4.756-5.036-10.353-13.058-10.353-22.48 0-9.093 5.973-16.833 14.166-19.416C9.23 6.85 3.256 14.59 3.256 23.684c0 9.42 5.596 17.442 10.353 22.479 4.104 4.384 8.302 7.368 9.794 8.394Zm9.887-8.487Zm-.746-.692.04.038-.044-.034c-3.607 3.934-7.29 6.696-9.123 7.945-1.792-1.265-5.467-4.017-9.065-7.86l-.003-.003c-4.695-4.971-10.076-12.75-10.076-21.78 0-10.64 8.602-19.317 19.13-19.317 10.529 0 19.13 8.676 19.13 19.317 0 9.028-5.378 16.714-9.99 21.694Zm-9.14-32.133c-5.506 0-9.973 4.466-9.973 9.972 0 5.506 4.466 9.972 9.972 9.972 5.506 0 9.973-4.466 9.973-9.972 0-5.505-4.467-9.972-9.973-9.972Zm5.698 9.972a5.67 5.67 0 0 1-5.699 5.699 5.67 5.67 0 0 1-5.698-5.699 5.67 5.67 0 0 1 5.698-5.698 5.67 5.67 0 0 1 5.699 5.698Zm-3.59 8.705c3.927-.95 6.846-4.487 6.846-8.705 0-4.943-4.011-8.954-8.955-8.954 4.944 0 8.955 4.01 8.955 8.954 0 4.218-2.919 7.756-6.845 8.705Zm-2.109-1.989Z" fill="#E20000"/></svg>