<svg width="42" height="58" fill="none" xmlns="http://www.w3.org/2000/svg"><path d="M20.679 0C9.274 0 0 9.28 0 20.684a20.61 20.61 0 0 0 9.085 17.111c.487.771.834 1.792 1.033 3.034a2.035 2.035 0 1 0 4.02-.645c-.326-2.041-.986-3.744-1.956-5.068a1.978 1.978 0 0 0-.534-.503c-4.746-3.084-7.58-8.289-7.58-13.929 0-9.161 7.45-16.612 16.608-16.612 9.159 0 16.61 7.451 16.61 16.612 0 5.018-3.12 10.851-7.584 14.185a2.11 2.11 0 0 0-.465.484c-1.311 1.921-1.944 3.248-2.256 4.737a2.037 2.037 0 0 0 1.994 2.455 2.04 2.04 0 0 0 1.99-1.617c.155-.743.462-1.52 1.454-3.009 4.494-3.489 8.937-10.087 8.937-17.232C41.358 9.28 32.084 0 20.678 0h.001ZM10.232 48.508c0 1.125.91 2.035 2.035 2.035h8.326l.282-.016c.17-.01.332-.012.503 0l8.46.016c1.124 0 2.034-.91 2.034-2.035s-.91-2.035-2.035-2.035h-8.02l-.192-.01a8.648 8.648 0 0 0-.993 0l-8.364.01c-1.127 0-2.037.91-2.037 2.035Zm19.163 7.457c0-1.125-.91-2.035-2.036-2.035h-5.745l-.076-.007a4.894 4.894 0 0 0-.862 0l-5.932.007c-1.125 0-2.035.91-2.035 2.035S13.619 58 14.744 58h5.925c.032 0 .063 0 .095-.003.082-.003.168-.01.253-.02l.082-.006.095.007c.088.006.174.016.262.019.032 0 .063.003.091.003h5.812a2.036 2.036 0 0 0 2.035-2.035Z" fill="#fff"/></svg>