<svg width="198" height="173" fill="none" xmlns="http://www.w3.org/2000/svg"><circle cx="102.5" cy="91.5" r="71.75" stroke="#0F00E2" stroke-width="1.5"/><path fill="#fff" d="M2 99h76v54H2z"/><path d="M75.93 154.869H3.856A3.825 3.825 0 0 1 0 151.058v-49.246A3.811 3.811 0 0 1 3.828 98h72.101a3.814 3.814 0 0 1 3.856 3.812v49.246a3.823 3.823 0 0 1-3.856 3.811ZM3.856 99.935a1.892 1.892 0 0 0-1.892 1.877v49.245a1.89 1.89 0 0 0 1.892 1.876h72.072a1.89 1.89 0 0 0 1.891-1.876v-49.245a1.892 1.892 0 0 0-1.89-1.877H3.856Z" fill="#0F00E2"/><path d="M47.648 166.365H32.135a.976.976 0 0 1-.96-.975v-11.48c0-.533.427-.968.96-.976H47.65c.532.008.96.443.96.976v11.48a.976.976 0 0 1-.96.975Zm-14.539-1.936h13.563l.001-9.56H33.11v9.56Z" fill="#0F00E2"/><path d="M58.714 173H21.067a.96.96 0 0 1-.96-.96v-1.95a5.68 5.68 0 0 1 1.66-3.998 5.677 5.677 0 0 1 3.998-1.661h28.25c1.5.004 2.937.601 3.997 1.661a5.68 5.68 0 0 1 1.662 3.998v1.95a.962.962 0 0 1-.96.96Zm-36.67-1.935H57.74v-.975a3.724 3.724 0 0 0-3.724-3.724h-28.25a3.724 3.724 0 0 0-3.723 3.724v.975Zm56.736-25.694H1.004A.988.988 0 0 1 0 144.367a.976.976 0 0 1 .975-.961h77.803a.973.973 0 0 1 1.005.961.986.986 0 0 1-1.005 1.004h.001Zm60.149-88.501H66.857A3.823 3.823 0 0 1 63 53.057V3.812A3.812 3.812 0 0 1 66.828 0h72.101a3.812 3.812 0 0 1 3.856 3.812v49.246a3.821 3.821 0 0 1-1.137 2.706 3.821 3.821 0 0 1-2.719 1.105ZM66.857 1.934a1.892 1.892 0 0 0-1.892 1.877v49.245a1.89 1.89 0 0 0 1.892 1.876h72.072a1.89 1.89 0 0 0 1.891-1.876V3.813a1.892 1.892 0 0 0-1.891-1.877H66.857Z" fill="#0F00E2"/><path d="M110.648 68.365H95.135a.975.975 0 0 1-.96-.975V55.91c0-.533.428-.968.96-.976h15.514-.001a.976.976 0 0 1 .961.976v11.48a.976.976 0 0 1-.961.975Zm-14.539-1.936h13.563l.001-9.56H96.11v9.56Z" fill="#0F00E2"/><path d="M121.714 75H84.067a.96.96 0 0 1-.96-.96v-1.95a5.675 5.675 0 0 1 5.66-5.659h28.248a5.674 5.674 0 0 1 5.659 5.659v1.95a.958.958 0 0 1-.961.96h.001Zm-36.67-1.935h35.696v-.975a3.723 3.723 0 0 0-3.723-3.724h-28.25a3.723 3.723 0 0 0-3.723 3.724v.975Zm56.735-25.695H64.005A.99.99 0 0 1 63 46.368a.975.975 0 0 1 .975-.96h77.803a.973.973 0 0 1 1.005.96.99.99 0 0 1-1.005 1.004h.001Z" fill="#0F00E2"/><path fill="#fff" d="M65 1h76v54H65z"/><path d="M138.929 56.87H66.857A3.823 3.823 0 0 1 63 53.057V3.812A3.812 3.812 0 0 1 66.828 0h72.101a3.812 3.812 0 0 1 3.856 3.812v49.246a3.821 3.821 0 0 1-1.137 2.706 3.821 3.821 0 0 1-2.719 1.105ZM66.857 1.934a1.892 1.892 0 0 0-1.892 1.877v49.245a1.89 1.89 0 0 0 1.892 1.876h72.072a1.89 1.89 0 0 0 1.891-1.876V3.813a1.892 1.892 0 0 0-1.891-1.877H66.857Z" fill="#0F00E2"/><path d="M110.648 68.365H95.135a.975.975 0 0 1-.96-.975V55.91c0-.533.428-.968.96-.976h15.514-.001a.976.976 0 0 1 .961.976v11.48a.976.976 0 0 1-.961.975Zm-14.539-1.936h13.563l.001-9.56H96.11v9.56Z" fill="#0F00E2"/><path d="M121.714 75H84.067a.96.96 0 0 1-.96-.96v-1.95a5.675 5.675 0 0 1 5.66-5.659h28.248a5.674 5.674 0 0 1 5.659 5.659v1.95a.958.958 0 0 1-.961.96h.001Zm-36.67-1.935h35.696v-.975a3.723 3.723 0 0 0-3.723-3.724h-28.25a3.723 3.723 0 0 0-3.723 3.724v.975Zm56.735-25.695H64.005A.99.99 0 0 1 63 46.368a.975.975 0 0 1 .975-.96h77.803a.973.973 0 0 1 1.005.96.99.99 0 0 1-1.005 1.004h.001Z" fill="#0F00E2"/><path fill="#fff" d="M120 99h76v54h-76z"/><path d="M193.929 154.869h-72.072a3.824 3.824 0 0 1-3.856-3.811v-49.246A3.813 3.813 0 0 1 121.828 98h72.101a3.812 3.812 0 0 1 3.856 3.812v49.246a3.824 3.824 0 0 1-3.856 3.811Zm-72.072-54.934a1.893 1.893 0 0 0-1.892 1.877v49.245a1.892 1.892 0 0 0 1.892 1.876h72.072a1.89 1.89 0 0 0 1.891-1.876v-49.245a1.891 1.891 0 0 0-1.891-1.877h-72.072Z" fill="#0F00E2"/><path d="M165.648 166.365h-15.513a.976.976 0 0 1-.96-.975v-11.48c0-.533.428-.968.96-.976h15.514-.001a.976.976 0 0 1 .961.976v11.48a.976.976 0 0 1-.961.975Zm-14.539-1.936h13.563l.001-9.56H151.11l-.001 9.56Z" fill="#0F00E2"/><path d="M176.714 173h-37.647a.96.96 0 0 1-.961-.96v-1.95a5.675 5.675 0 0 1 5.659-5.659h28.25a5.675 5.675 0 0 1 5.659 5.659v1.95a.96.96 0 0 1-.961.96h.001Zm-36.671-1.935h35.697v-.975a3.723 3.723 0 0 0-3.723-3.724h-28.249a3.724 3.724 0 0 0-3.724 3.724l-.001.975Zm56.736-25.694h-77.774a.987.987 0 0 1-1.005-1.004.975.975 0 0 1 .975-.961h77.803a.972.972 0 0 1 1.005.961.99.99 0 0 1-1.005 1.004h.001Z" fill="#0F00E2"/></svg>