<svg width="171" height="156" fill="none" xmlns="http://www.w3.org/2000/svg"><path d="M122.887 23.581v.027l.002.026a.92.92 0 0 0 .011.1V33.75c0 2.967-1.296 5.69-3.438 7.872l-.549.558.349.702c.172.347.263.67.263.993v33.75a2.275 2.275 0 0 1-2.275 2.275h-67.5a2.274 2.274 0 0 1-2.275-2.275v-33.75c0-.324.09-.646.263-.993l.349-.702-.549-.558C45.396 39.44 44.1 36.717 44.1 33.75V23.729c.006-.043.011-.093.012-.15.005-.245.056-.498.155-.758a.766.766 0 0 1 .038-.076l.012-.022c.012-.024.029-.055.045-.09l.002-.002c.027-.056.05-.108.067-.147l.02-.048a3.054 3.054 0 0 1 .036-.08L57.982 2.114A2.276 2.276 0 0 1 59.875 1.1h47.25c.759 0 1.47.38 1.893 1.014l13.495 20.243.017.035.017.04.023.054c.017.04.04.091.068.147l.045.088.01.02.02.04.018.035c.099.262.151.517.156.765Zm.013.044v.008-.008Zm-78.838.275Zm5.688 2h-1.1v7.85c0 2.286 1.242 4.274 3.08 5.651 1.837 1.378 4.324 2.199 7.021 2.199 2.696 0 5.182-.821 7.019-2.199 1.837-1.378 3.079-3.365 3.079-5.651a2.274 2.274 0 1 1 4.55 0c0 2.286 1.242 4.274 3.08 5.651 1.837 1.378 4.324 2.199 7.02 2.199 2.698 0 5.185-.821 7.023-2.199 1.837-1.377 3.079-3.365 3.079-5.651a2.274 2.274 0 1 1 4.55 0c0 2.286 1.242 4.273 3.079 5.651 1.837 1.378 4.323 2.199 7.019 2.199 2.697 0 5.184-.821 7.021-2.199 1.838-1.377 3.08-3.365 3.08-5.651V25.9h-68.6ZM61.68 5.65h-.589l-.326.49-9 13.5-1.14 1.71h65.747l-1.14-1.71-9.001-13.5-.326-.49H61.68Zm7.218 68.6v1.1h8.95v-15.7h-8.95v14.6Zm13.5 0v1.1h32.575V44.8l-1.445.477a16.795 16.795 0 0 1-5.281.874c-4.741 0-8.89-1.955-11.559-4.89l-.813-.893-.814.894c-2.671 2.934-6.82 4.89-11.563 4.89-4.741 0-8.891-1.956-11.562-4.89l-.814-.895-.813.895c-2.67 2.934-6.818 4.89-11.56 4.89a16.8 16.8 0 0 1-5.28-.875l-1.446-.477v30.55h12.325V57.374a2.274 2.274 0 0 1 2.275-2.275h13.5a2.274 2.274 0 0 1 2.275 2.275V74.25Z" fill="#0F00E2" stroke="#fff" stroke-width="2.2"/><path d="M79.887 98.581v.026l.002.027c.002.037.006.07.01.1l.001 10.016c0 2.967-1.296 5.691-3.438 7.872l-.549.558.349.702c.172.347.263.669.263.993v33.75a2.274 2.274 0 0 1-2.275 2.275H6.75a2.274 2.274 0 0 1-2.275-2.275v-33.75c0-.324.09-.646.263-.993l.349-.702-.549-.558C2.396 114.44 1.1 111.717 1.1 108.75V98.729a1.17 1.17 0 0 0 .012-.15c.005-.245.056-.498.155-.758a.704.704 0 0 1 .038-.076l.012-.022.045-.09.001-.002a3.41 3.41 0 0 0 .068-.147l.02-.048a3.562 3.562 0 0 1 .036-.08l13.495-20.242a2.276 2.276 0 0 1 1.893-1.014h47.25c.76 0 1.47.38 1.893 1.014l13.495 20.243a.853.853 0 0 1 .017.035l.017.04.023.054a3.266 3.266 0 0 0 .113.235l.01.02.02.04.018.035c.1.262.15.517.156.765Zm.013.044v.008-.008ZM1.062 98.9Zm5.688 2h-1.1v7.85c0 2.286 1.242 4.274 3.08 5.651 1.837 1.378 4.324 2.199 7.021 2.199 2.696 0 5.182-.821 7.019-2.199 1.837-1.377 3.079-3.365 3.079-5.651a2.274 2.274 0 1 1 4.55 0c0 2.286 1.242 4.274 3.08 5.651 1.837 1.378 4.324 2.199 7.02 2.199 2.698 0 5.185-.821 7.023-2.199 1.837-1.377 3.079-3.365 3.079-5.651a2.274 2.274 0 1 1 4.55 0c0 2.286 1.242 4.274 3.079 5.651 1.837 1.378 4.323 2.199 7.019 2.199 2.697 0 5.184-.821 7.021-2.199 1.838-1.377 3.08-3.365 3.08-5.651v-7.85H6.75Zm11.93-20.25h-.589l-.326.49-9 13.5-1.14 1.71h65.748l-1.14-1.71-9.002-13.5-.326-.49H18.68Zm7.218 68.6v1.1h8.95v-15.7h-8.95v14.6Zm13.5 0v1.1h32.575v-30.551l-1.445.477a16.812 16.812 0 0 1-5.28.874c-4.742 0-8.89-1.955-11.56-4.889l-.813-.894-.814.893c-2.671 2.935-6.82 4.89-11.563 4.89-4.741 0-8.891-1.955-11.562-4.889l-.814-.895-.813.895c-2.67 2.934-6.818 4.889-11.56 4.889-1.856 0-3.626-.328-5.28-.874l-1.446-.477v30.551h12.325v-17.975a2.274 2.274 0 0 1 2.275-2.275h13.5a2.274 2.274 0 0 1 2.275 2.275v16.875Zm130.489-50.669v.026l.002.027a.92.92 0 0 0 .011.1v10.016c0 2.967-1.296 5.691-3.438 7.872l-.549.558.349.702c.172.347.263.669.263.993v33.75a2.274 2.274 0 0 1-2.275 2.275h-67.5a2.274 2.274 0 0 1-2.275-2.275v-33.75c0-.324.09-.646.263-.993l.349-.702-.549-.558c-2.142-2.182-3.438-4.905-3.438-7.872V98.729c.006-.043.011-.093.012-.15.005-.245.056-.498.155-.758a.766.766 0 0 1 .038-.076l.012-.022c.012-.024.029-.055.045-.09l.002-.002c.027-.056.05-.108.067-.147l.02-.048a3.054 3.054 0 0 1 .036-.08l13.495-20.242a2.275 2.275 0 0 1 1.893-1.014h47.25c.759 0 1.47.38 1.893 1.014l13.495 20.243.017.035.017.04.023.054c.017.04.04.091.068.147l.045.088.01.02.02.04.018.035c.099.262.151.517.156.765Zm.013.044v.008-.008Zm-78.838.275Zm5.688 2h-1.1v7.85c0 2.286 1.242 4.274 3.08 5.651 1.837 1.378 4.324 2.199 7.021 2.199 2.696 0 5.182-.821 7.019-2.199 1.837-1.377 3.079-3.365 3.079-5.651a2.274 2.274 0 1 1 4.55 0c0 2.286 1.242 4.274 3.079 5.651 1.838 1.378 4.325 2.199 7.022 2.199s5.184-.821 7.021-2.199c1.838-1.377 3.08-3.365 3.08-5.651a2.274 2.274 0 1 1 4.55 0c0 2.286 1.242 4.274 3.079 5.651 1.837 1.378 4.323 2.199 7.019 2.199 2.697 0 5.184-.821 7.021-2.199 1.838-1.377 3.08-3.365 3.08-5.651v-7.85h-68.6Zm11.93-20.25h-.589l-.326.49-9 13.5-1.14 1.71h65.747l-1.14-1.71-9.001-13.5-.326-.49H108.68Zm7.218 68.6v1.1h8.95v-15.7h-8.95v14.6Zm13.5 0v1.1h32.575v-30.551l-1.445.477a16.806 16.806 0 0 1-5.281.874c-4.741 0-8.889-1.955-11.559-4.889l-.813-.894-.814.893c-2.671 2.935-6.821 4.89-11.563 4.89-4.741 0-8.891-1.955-11.562-4.889l-.814-.895-.813.895c-2.67 2.934-6.818 4.889-11.56 4.889-1.856 0-3.626-.328-5.281-.874l-1.445-.477v30.551h12.325v-17.975a2.274 2.274 0 0 1 2.275-2.275h13.5a2.274 2.274 0 0 1 2.275 2.275v16.875Z" fill="#0F00E2" stroke="#fff" stroke-width="2.2"/></svg>