<svg width="149" height="153" fill="none" xmlns="http://www.w3.org/2000/svg"><path d="M74.5 148.998h-.537a73.582 73.582 0 0 1-51.41-21.551l-.707.707.707-.707A73.583 73.583 0 0 1 1 75.497a73.499 73.499 0 0 1 125.472-51.971l.707-.707-.707.707a73.5 73.5 0 0 1 0 103.943l.707.707-.707-.707A73.495 73.495 0 0 1 74.5 148.998ZM5.642 72.208l-.05 1.049h10.602a2.24 2.24 0 0 1 0 4.478H5.591l.051 1.049a69 69 0 0 0 65.569 65.569l1.049.05V133.8a2.24 2.24 0 0 1 4.478 0v10.603l1.049-.051a69.006 69.006 0 0 0 45.441-20.127 69.002 69.002 0 0 0 20.127-45.441l.051-1.05h-10.602a2.24 2.24 0 1 1 0-4.477h10.602l-.051-1.049A69 69 0 0 0 77.787 6.639l-1.049-.05V17.19a2.24 2.24 0 0 1-4.478 0V6.588l-1.049.051a69.004 69.004 0 0 0-45.44 20.128h-.001A69 69 0 0 0 5.642 72.208Z" fill="#0F00E2" stroke="#fff" stroke-width="2"/><path d="M76.738 74.154v.415l.293.293 15.241 15.24a2.24 2.24 0 0 1-3.167 3.168l-16.19-16.192a2.24 2.24 0 0 1-.655-1.584v-38.87a2.24 2.24 0 0 1 4.478 0v37.53Z" fill="#0F00E2" stroke="#fff" stroke-width="2"/><path d="M24.679 111v-1.909l5.906-6.119a33.47 33.47 0 0 0 1.56-1.748c.415-.505.724-.985.929-1.44.204-.455.307-.937.307-1.449 0-.58-.137-1.08-.41-1.5a2.674 2.674 0 0 0-1.116-.98 3.55 3.55 0 0 0-1.594-.35c-.625 0-1.17.129-1.636.384a2.628 2.628 0 0 0-1.074 1.083c-.25.466-.375 1.011-.375 1.636h-2.514c0-1.063.244-1.992.733-2.787a4.979 4.979 0 0 1 2.011-1.85c.853-.443 1.821-.664 2.907-.664 1.096 0 2.062.219 2.897.656.841.432 1.497 1.023 1.969 1.773.472.744.707 1.585.707 2.522 0 .648-.122 1.282-.366 1.901-.239.619-.656 1.31-1.253 2.071-.597.756-1.426 1.673-2.489 2.753l-3.468 3.631v.127h7.858V111H24.679Zm13.977-3.409v-2.131L46.2 93.546h1.679v3.136h-1.066l-5.394 8.54v.136h10.338v2.233h-13.1ZM46.932 111v-4.057l.017-.971V93.546h2.497V111h-2.514Zm14.476-18.273-5.625 20.898h-2.276l5.625-20.898h2.276ZM64.126 111l7.62-15.068v-.128h-8.813v-2.258h11.54v2.335L66.879 111h-2.753Z" fill="#1E10E3"/></svg>