<svg width="104" height="70" fill="none" xmlns="http://www.w3.org/2000/svg"><path d="M86.261 22.95a22.928 22.928 0 0 0-7.524-16.977 23.042 23.042 0 0 0-33.885 3.208 17.287 17.287 0 0 0-23.117 2.188 17.189 17.189 0 0 0-4.49 11.582 17.27 17.27 0 0 0-12.917 5.812A17.182 17.182 0 0 0 .129 42.264 17.427 17.427 0 0 0 5.342 52.49a17.506 17.506 0 0 0 10.454 4.784 1.733 1.733 0 0 0 1.898-1.55c.095-.95-.6-1.798-1.553-1.893a14.025 14.025 0 0 1-8.526-3.923 13.968 13.968 0 0 1-4.127-8.413 13.748 13.748 0 0 1 3.497-10.563 13.818 13.818 0 0 1 10.18-4.538 3.64 3.64 0 0 0 2.503-1.086 3.625 3.625 0 0 0 1.04-2.518 13.751 13.751 0 0 1 4.099-9.633 13.82 13.82 0 0 1 9.704-3.977c2.99-.003 5.9.972 8.282 2.777.6.45 1.33.692 2.082.689h.483a3.447 3.447 0 0 0 2.3-1.343 19.565 19.565 0 0 1 13.79-7.672 19.584 19.584 0 0 1 14.975 4.99 19.489 19.489 0 0 1 6.4 14.399 3.442 3.442 0 0 0 3.45 3.374 13.82 13.82 0 0 1 10.251 4.544 13.749 13.749 0 0 1 3.483 10.638 14.019 14.019 0 0 1-4.691 8.876 14.082 14.082 0 0 1-9.434 3.482h-9.387c-.952 0-1.725.771-1.725 1.722 0 .95.773 1.721 1.725 1.721h9.318a17.589 17.589 0 0 0 11.653-4.245 17.509 17.509 0 0 0 5.934-10.868 17.18 17.18 0 0 0-4.202-13.506 17.271 17.271 0 0 0-12.925-5.807h-.012Z" fill="#B7C0CD"/><path d="M62.761 49.344h-2.3V44.18a8.603 8.603 0 0 0-4.314-7.454 8.647 8.647 0 0 0-8.627 0 8.603 8.603 0 0 0-4.313 7.454v5.164h-2.3a3.45 3.45 0 0 0-2.44 1.008 3.436 3.436 0 0 0-1.012 2.435v13.77c0 .913.364 1.789 1.011 2.434A3.452 3.452 0 0 0 40.906 70h21.855a3.45 3.45 0 0 0 2.44-1.009 3.436 3.436 0 0 0 1.012-2.434v-13.77c0-.911-.362-1.785-1.007-2.43a3.454 3.454 0 0 0-2.432-1.013h-.013ZM45.507 44.18a6.31 6.31 0 0 1 3.164-5.466 6.34 6.34 0 0 1 6.325 0 6.31 6.31 0 0 1 3.164 5.466v5.164H45.507V44.18Zm18.405 22.377a1.147 1.147 0 0 1-1.15 1.148H40.905a1.15 1.15 0 0 1-1.15-1.148v-13.77a1.15 1.15 0 0 1 1.15-1.148H62.76a1.152 1.152 0 0 1 1.15 1.148v13.77Z" fill="#B7C0CD"/></svg>