<svg width="33" height="25" fill="none" xmlns="http://www.w3.org/2000/svg"><path d="M31.824 2.08c-.208-.624-.624-1.04-1.04-1.248l-.208-.416h-.208C29.952.208 29.536 0 28.912 0H3.328c-.624 0-1.04.208-1.456.416h-.208l-.208.208C1.04.832.624 1.248.416 1.872.208 2.496 0 2.912 0 3.536v17.68c0 1.872 1.456 3.328 3.328 3.328h25.584c1.872 0 3.328-1.456 3.328-3.328V3.536c0-.624-.208-1.04-.416-1.456Zm-3.328.208-11.232 9.984c-.624.624-1.456.624-2.08 0L3.952 2.288h24.544Zm.416 19.968H3.328c-.624 0-1.248-.624-1.248-1.248V3.536l11.648 10.192c.624.624 1.456.832 2.496.832s1.664-.208 2.496-.832L30.368 3.536v17.472c-.208.624-.832 1.248-1.456 1.248Z" fill="#E20000"/></svg>