<svg width="25" height="32" fill="none" xmlns="http://www.w3.org/2000/svg"><path d="M12.835 31.25h.056l.052-.024.118-.057c.51-.219.933-.594 1.216-1.067l3.822-5.391.003-.006c1.275-1.797 2.55-3.595 3.823-5.393a11.482 11.482 0 0 0 2.146-8.237 11.114 11.114 0 0 0-1.282-4.156A11.064 11.064 0 0 0 20.01 3.57C16.311.538 12.023-.065 7.64 1.837a11.52 11.52 0 0 0-5.34 4.78 11.52 11.52 0 0 0-1.484 7.007 11.07 11.07 0 0 0 1.951 5.38l.001.001v.001c1.699 2.4 3.397 4.8 5.1 7.2l2.82 3.974a2.62 2.62 0 0 0 1.152.99l.006.002.144.06.046.018h.799Zm-.3-2.36-.006.007a1.836 1.836 0 0 1-.067.096.787.787 0 0 1-.018-.029l-.005-.008-.005-.008c-.943-1.334-1.886-2.662-2.83-3.991-1.713-2.4-3.411-4.799-5.098-7.198a9 9 0 0 1-1.569-4.341v-.006a9.403 9.403 0 0 1 1.2-5.72A9.463 9.463 0 0 1 8.489 3.79c1.841-.796 3.61-1.069 5.302-.83 1.691.237 3.321.987 4.88 2.262a9.083 9.083 0 0 1 2.247 2.727 8.983 8.983 0 0 1 1.027 3.382v.008a9.4 9.4 0 0 1-1.753 6.742l-.002.003a6989.3 6989.3 0 0 0-7.656 10.806Zm-.146-11.81h.049a4.616 4.616 0 0 0 3.262-1.336 4.637 4.637 0 0 0 1.37-3.245v-.004a4.63 4.63 0 0 0-1.33-3.233 4.66 4.66 0 0 0-3.21-1.387h-.004a4.62 4.62 0 0 0-4.666 4.564v.005a4.649 4.649 0 0 0 4.529 4.636Zm-1.705-2.888h-.001a2.48 2.48 0 0 1-.705-1.738 2.452 2.452 0 0 1 .739-1.734 2.502 2.502 0 0 1 1.748-.716h.03a2.488 2.488 0 0 1 1.72.744l.001.001c.456.461.71 1.083.715 1.731a2.49 2.49 0 0 1-2.525 2.466 2.499 2.499 0 0 1-1.722-.754Z" fill="#E20000" stroke="#E20000" stroke-width=".5"/></svg>