<svg width="25" height="29" fill="none" xmlns="http://www.w3.org/2000/svg"><path d="M17.056 28.537h-1.04c-.416 0-1.248-.208-2.08-.416-.624-.208-1.04-.416-1.664-.624l-1.248-.624c-.624-.416-1.04-.624-1.456-1.04-.624-.416-1.248-1.04-1.664-1.456L6.448 22.92c-.832-1.04-1.664-1.872-2.288-2.912-.624-.624-1.04-1.456-1.456-2.08C1.248 15.64.416 13.56.208 11.48c0-.416-.208-.832-.208-1.248v-.416c0-2.08.416-3.744 1.04-4.992.624-1.04 1.248-1.872 1.872-2.704l.416-.416c.208-.208.624-.416.832-.624.416-.208.832-.624 1.456-.832.832-.416 2.288-.416 3.536.832.624.624 1.248 1.456 1.664 2.08v.208c.208.208.208.416.416.624.416.832.832 1.456.832 2.496.416 1.664 0 2.912-1.248 3.952-.416.416-.832.832-1.456 1.248l-.208.208v.208c0 .416.416 1.04.624 1.456.416.624.832 1.456 1.456 2.08.624.624 1.04 1.248 1.872 1.872.416.208.624.416.832.624l.208-.208.832-.832c.832-.624 2.288-2.08 4.576-1.04.624.208 1.04.624 1.456.832.624.416.832.624 1.04 1.04l.208.208c.624.624 1.456 1.248 1.872 2.08.208.416.416 1.04.624 1.664.208.832.208 2.08-1.04 3.12l-.624.624.208.208c-.832.832-1.664 1.456-2.912 1.872-1.04.624-2.08.832-3.328.832ZM6.448 1.705h-.416c-.208.208-.624.416-.832.624-.208.208-.416.416-.624.416l-.624.416c-.624.624-1.04 1.248-1.456 2.08-.624 1.04-.832 2.288-.832 4.16v.416c0 .416 0 .624.208 1.04.208 1.872 1.04 3.536 2.288 5.616l1.248 1.872c.832 1.04 1.456 1.872 2.288 2.912l1.248 1.248c.416.416 1.04 1.04 1.664 1.456.416.416.832.624 1.248.832l1.248.624 1.248.624c.624.208 1.04.208 1.456.208 1.456.208 2.496 0 3.328-.416.832-.416 1.664-.832 2.288-1.456l.416-.416.624-.624c.832-.416.832-.832.832-1.248 0-.416-.208-.624-.416-.832a6.33 6.33 0 0 0-1.664-1.664l-.208-.208c-.208-.208-.416-.416-.832-.624-.416-.208-.832-.624-1.04-.624-1.04-.416-1.456 0-2.496.624-.208.208-.624.416-.832.832l-.624.624c-.416.416-.832.416-1.456.416-.832-.208-1.248-.624-1.872-1.04-.832-.624-1.456-1.456-2.08-2.08-.832-.832-1.248-1.664-1.664-2.496-.416-.624-.832-1.248-.832-2.08-.208-.832 0-1.664.624-2.08l.208-.208L9.36 9.4c.624-.624.832-1.248.624-2.08 0-.624-.416-1.248-.624-1.872-.208-.208-.208-.416-.416-.624l-.208-.832c-.416-.624-.624-1.248-1.248-1.664-.416-.416-.624-.624-1.04-.624Z" fill="#E20000"/></svg>