<svg width="450" height="416" fill="none" xmlns="http://www.w3.org/2000/svg"><path opacity=".9" d="M287.595 183.361a35 35 0 0 1 30.311 17.5l94.154 163.08a35 35 0 0 1 0 35L317.906 562.02a35 35 0 0 1-30.311 17.5H99.287a35 35 0 0 1-30.311-17.5l-94.154-163.079a35 35 0 0 1 0-35l94.154-163.08a35 35 0 0 1 30.31-17.5h188.309Z" fill="url(#a)"/><path opacity=".4" d="M-185.425 162.851a35 35 0 0 1 12.773-32.586l147.175-117.47A35 35 0 0 1 9.13 7.562l175.32 68.722a35 35 0 0 1 21.834 27.355l28.145 186.192a35 35 0 0 1-12.773 32.586L74.481 439.889a35 35 0 0 1-34.606 5.232l-175.321-68.722a35 35 0 0 1-21.834-27.355l-28.145-186.193Z" fill="url(#b)"/><defs><linearGradient id="a" x1="297.689" y1="177.522" x2="-28.925" y2="743.234" gradientUnits="userSpaceOnUse"><stop stop-color="#0F00E2" stop-opacity=".75"/><stop offset="1" stop-color="#050081"/></linearGradient><linearGradient id="b" x1="-192.707" y1="153.744" x2="415.467" y2="392.135" gradientUnits="userSpaceOnUse"><stop stop-color="#0F00E2" stop-opacity=".75"/><stop offset="1" stop-color="#050081"/></linearGradient></defs></svg>