<svg width="319" height="334" fill="none" xmlns="http://www.w3.org/2000/svg"><path opacity=".9" d="M125.973 140.813a35 35 0 0 1 34.361 6.658l102.758 89.219a34.998 34.998 0 0 1 11.414 33.086l-25.887 133.601a34.997 34.997 0 0 1-22.946 26.428L97.028 474.187a35 35 0 0 1-34.361-6.658L-40.091 378.31a35 35 0 0 1-11.415-33.086l25.887-133.601a35 35 0 0 1 22.947-26.428l128.645-44.382Z" fill="url(#a)"/><path opacity=".6" d="M-204.483 184.391a35 35 0 0 1 12.773-32.586l106.36-84.893a35 35 0 0 1 34.606-5.231l126.7 49.663a35 35 0 0 1 21.834 27.355l20.34 134.557a35 35 0 0 1-12.773 32.586l-106.36 84.893a34.997 34.997 0 0 1-34.607 5.231l-126.699-49.663a35 35 0 0 1-21.834-27.355l-20.34-134.557Z" fill="url(#b)"/><defs><linearGradient id="a" x1="136.228" y1="132.509" x2="40.339" y2="627.386" gradientUnits="userSpaceOnUse"><stop stop-color="#0F00E2" stop-opacity=".75"/><stop offset="1" stop-color="#050081"/></linearGradient><linearGradient id="b" x1="-210.792" y1="172.801" x2="258.522" y2="356.762" gradientUnits="userSpaceOnUse"><stop stop-color="#0F00E2" stop-opacity=".75"/><stop offset="1" stop-color="#050081"/></linearGradient></defs></svg>