<svg width="137" height="140" fill="none" xmlns="http://www.w3.org/2000/svg"><path fill-rule="evenodd" clip-rule="evenodd" d="M136.023 135.57v-6.646c0-1.108-.888-2.215-2.219-2.215h-1.554V98.576c0-2.658-2.218-4.873-4.881-4.873H106.51V84.62c0-4.209-3.328-7.531-7.544-7.531H74.557c-.887-3.766-3.772-6.646-7.322-7.31v-7.975h32.397c9.985 0 18.195-8.196 18.195-18.165 0-9.525-7.322-17.278-16.642-17.943-2.885-6.424-9.32-10.633-16.642-10.633-2.22 0-4.438.443-6.435 1.108C73.67 6.203 64.35 0 53.699 0 39.276 0 27.737 11.519 27.293 25.696c-8.654 1.33-15.089 8.861-15.089 17.722 0 9.968 8.21 18.164 18.196 18.164h32.397v7.975c-3.772.886-6.657 3.766-7.323 7.31H31.066c-4.216 0-7.545 3.323-7.545 7.532v4.652C10.207 90.38 0 101.234 0 114.525 0 128.481 11.317 140 25.518 140c13.98 0 25.518-11.519 25.518-25.475 0-13.291-10.207-24.145-23.299-25.253V84.62c0-1.772 1.553-3.101 3.329-3.101h24.408c1.11 4.43 4.882 7.753 9.542 7.753s8.654-3.323 9.541-7.753h24.409c1.775 0 3.328 1.55 3.328 3.101v9.082H81.88c-2.663 0-4.882 2.216-4.882 4.874v28.133h-1.553c-1.11 0-2.22.886-2.22 2.215v6.646c0 2.436 1.998 4.43 4.439 4.43h54.143c2.219 0 4.216-1.994 4.216-4.43ZM16.42 43.418c0-7.31 5.77-13.291 13.092-13.735.666 0 1.11-.221 1.553-.664.444-.443.666-1.108.666-1.55V26.36c0-12.184 9.986-22.152 21.968-22.152 9.542 0 17.974 6.202 20.858 15.285.222.664.666 1.107 1.332 1.329.665.221 1.331.221 1.775-.222 1.997-1.107 4.438-1.772 6.657-1.772 5.77 0 11.095 3.766 13.092 9.082.222.886 1.11 1.551 1.997 1.551 7.544 0 13.757 6.203 13.757 13.734 0 7.532-6.213 13.734-13.757 13.734H30.178c-7.544.222-13.758-5.76-13.758-13.512Zm42.826 35.886c0-3.102 2.441-5.538 5.548-5.538 3.106 0 5.547 2.436 5.547 5.538 0 3.101-2.44 5.538-5.547 5.538-2.885-.222-5.548-2.659-5.548-5.538ZM25.518 93.48c11.539 0 21.08 9.525 21.08 21.044 0 4.652-1.553 8.861-3.994 12.184-2.44-3.101-5.77-5.538-9.32-7.089 2.441-2.215 3.995-5.316 3.995-8.861 0-6.424-5.326-11.74-11.76-11.74-6.436 0-11.761 5.316-11.761 11.74 0 3.545 1.553 6.646 3.994 8.861-3.772 1.329-6.88 3.766-9.32 7.089-2.663-3.323-3.994-7.532-3.994-12.184 0-11.519 9.32-20.823 21.08-21.044-.222 0-.222 0 0 0Zm55.696 5.095c0-.222.222-.443.444-.443h45.711c.222 0 .444.221.444.443v28.133H81.214V98.576Zm-63.24 12.405c0-3.987 3.328-7.31 7.322-7.31s7.323 3.323 7.323 7.31c0 3.987-3.329 7.31-7.323 7.31s-7.322-3.323-7.322-7.31Zm7.544 11.741c5.77 0 10.873 2.879 13.98 7.531-3.773 3.323-8.654 5.317-13.98 5.317-5.325 0-10.207-1.994-13.98-5.317 2.885-4.652 8.21-7.531 13.98-7.531-.222 0-.222 0 0 0Zm51.924 12.848v-4.652h54.143v4.652H77.442ZM33.728 26.36c0-11.075 8.876-19.936 19.971-19.936 1.11 0 2.219.886 2.219 2.215 0 1.108-.888 2.215-2.219 2.215-8.654 0-15.533 6.867-15.533 15.507 0 1.107-.887 2.215-2.219 2.215-1.331 0-2.219-.886-2.219-2.215Zm45.045-3.765c1.776-.886 3.773-1.55 5.548-1.55 1.11 0 2.219.885 2.219 2.214 0 1.108-.888 2.216-2.22 2.216-1.33 0-2.44.221-3.55.886-.443.221-.665.221-1.11.221-.665 0-1.552-.443-1.996-1.107-.444-.886 0-2.216 1.11-2.88Zm-49.039 9.304c1.331 0 2.22.886 2.22 1.993 0 1.108-.889 2.216-1.998 2.216-3.772.221-6.879 3.322-6.879 7.088 0 1.108-.887 2.215-2.219 2.215-1.11 0-2.219-.886-2.219-2.215 0-5.98 4.882-10.854 11.095-11.297Z" fill="url(#a)"/><defs><linearGradient id="a" x1="11.597" y1="125.773" x2="100.357" y2="61.641" gradientUnits="userSpaceOnUse"><stop stop-color="#402483"/><stop offset="1" stop-color="#E52B0E"/></linearGradient></defs></svg>