<svg width="223" height="166" fill="none" xmlns="http://www.w3.org/2000/svg"><path d="M62.596 78.753H46.522l3.215-18.892h9.476l3.384 18.892Z" fill="#58B1F4" stroke="#020050" stroke-width=".5" stroke-miterlimit="10"/><path d="M103.378 67.451H5.738A4.722 4.722 0 0 1 1 62.728V5.207C1 2.507 3.2.483 5.738.483h97.64a4.723 4.723 0 0 1 4.739 4.724v57.521c0 2.53-2.2 4.723-4.739 4.723Zm-33.336 7.423H39.075v7.422h30.967v-7.422Z" fill="#58B1F4" stroke="#020050" stroke-width=".5" stroke-miterlimit="10"/><path d="M99.148 61.379H9.968c-1.184 0-2.03-.844-2.03-2.024V8.412c0-1.181.846-2.025 2.03-2.025h89.35c1.184 0 2.03.844 2.03 2.025v50.774c-.17 1.18-1.016 2.193-2.2 2.193Z" fill="#fff"/><path d="m74.611 38.606 11.507 21.255.846-10.965 9.984-2.193-22.337-8.097Z" fill="#fff"/><path d="M176.596 78.753h-16.075l3.215-18.892h9.476l3.384 18.892Z" fill="#58B1F4" stroke="#020050" stroke-width=".5" stroke-miterlimit="10"/><path d="M217.378 67.451h-97.64A4.723 4.723 0 0 1 115 62.728V5.207c0-2.7 2.2-4.724 4.738-4.724h97.64a4.723 4.723 0 0 1 4.739 4.724v57.521c0 2.53-2.2 4.723-4.739 4.723Zm-33.336 7.423h-30.967v7.422h30.967v-7.422Z" fill="#58B1F4" stroke="#020050" stroke-width=".5" stroke-miterlimit="10"/><path d="M213.148 61.379h-89.179c-1.185 0-2.031-.844-2.031-2.024V8.412c0-1.181.846-2.025 2.031-2.025h89.348c1.185 0 2.031.844 2.031 2.025v50.774c-.17 1.18-1.016 2.193-2.2 2.193Z" fill="#fff"/><path d="M62.596 161.578H46.522l3.215-18.893h9.476l3.384 18.893Z" fill="#58B1F4" stroke="#020050" stroke-width=".5" stroke-miterlimit="10"/><path d="M103.378 150.276H5.738A4.722 4.722 0 0 1 1 145.553V88.031c0-2.699 2.2-4.723 4.738-4.723h97.64a4.723 4.723 0 0 1 4.739 4.723v57.522c0 2.53-2.2 4.723-4.739 4.723Zm-33.336 7.422H39.075v7.422h30.967v-7.422Z" fill="#58B1F4" stroke="#020050" stroke-width=".5" stroke-miterlimit="10"/><path d="M99.148 144.203H9.968c-1.184 0-2.03-.843-2.03-2.024V91.236c0-1.18.846-2.024 2.03-2.024h89.35c1.184 0 2.03.843 2.03 2.024v50.774c-.17 1.181-1.016 2.193-2.2 2.193Z" fill="#fff"/><path d="M176.48 161.578h-16.076l3.215-18.893h9.477l3.384 18.893Z" fill="#58B1F4" stroke="#020050" stroke-width=".5" stroke-miterlimit="10"/><path d="M217.262 150.276h-97.64a4.722 4.722 0 0 1-4.738-4.723V88.031c0-2.699 2.2-4.723 4.738-4.723h97.64A4.722 4.722 0 0 1 222 88.03v57.522c0 2.53-2.199 4.723-4.738 4.723Zm-33.336 7.422h-30.968v7.422h30.968v-7.422Z" fill="#58B1F4" stroke="#020050" stroke-width=".5" stroke-miterlimit="10"/><path d="M213.032 144.203h-89.18c-1.184 0-2.03-.843-2.03-2.024V91.236c0-1.18.846-2.024 2.03-2.024h89.349c1.184 0 2.031.843 2.031 2.024v50.774c-.17 1.181-1.016 2.193-2.2 2.193ZM76.913 35.492V20.078c0-2.72-9.596-5.078-21.366-5.078s-21.366 2.176-21.366 5.078v15.414" fill="#fff"/><path d="M76.913 35.492V20.078c0-2.72-9.596-5.078-21.366-5.078s-21.366 2.176-21.366 5.078v15.414" stroke="#0F00E2" stroke-miterlimit="10"/><path d="M38.165 38.031C35.449 37.306 34 36.581 34 35.674c0-2.177 9.597-3.99 21.366-3.99 11.77 0 21.367 1.813 21.367 3.99 0 .906-2.173 1.813-4.527 2.357" fill="#fff"/><path d="M38.165 38.031C35.449 37.306 34 36.581 34 35.674c0-2.177 9.597-3.99 21.366-3.99 11.77 0 21.367 1.813 21.367 3.99 0 .906-2.173 1.813-4.527 2.357" stroke="#0F00E2" stroke-miterlimit="10"/><path d="M38.164 35.674S38.164 50 55.547 50s16.84-14.326 16.84-14.326" fill="#fff"/><path d="M38.164 35.674S38.164 50 55.547 50s16.84-14.326 16.84-14.326" stroke="#0F00E2" stroke-miterlimit="10"/><path d="M55.366 49.093c3.7 0 6.7-3.004 6.7-6.71 0-3.705-3-6.71-6.7-6.71s-6.7 3.005-6.7 6.71c0 3.706 3 6.71 6.7 6.71Z" fill="#fff" stroke="#0F00E2" stroke-miterlimit="10"/><path d="M55.366 46.554c2.1 0 3.803-1.705 3.803-3.808a3.805 3.805 0 0 0-3.803-3.808 3.805 3.805 0 0 0-3.802 3.808 3.805 3.805 0 0 0 3.802 3.808Zm9.959-8.704a1.087 1.087 0 1 0-.002-2.175 1.087 1.087 0 0 0 .002 2.175Z" fill="#fff" stroke="#0F00E2" stroke-miterlimit="10"/><path d="m152.817 131.798-2.945-3.61 2.151-3.422.154-.245-.135-.255c-.866-1.636-1.353-3.378-1.648-5.34l-.04-.267-.245-.113-3.596-1.652.469-4.693a.727.727 0 0 1 .02-.025l.007-.011 3.901-.877.28-.063.087-.274a15.1 15.1 0 0 1 2.613-4.939l.177-.22-.098-.265-1.367-3.71 3.61-2.945 3.422 2.151.245.154.255-.135c1.636-.866 3.378-1.353 5.34-1.648l.267-.04.113-.245 1.651-3.593 4.689.563.03.023.011.007.877 3.901.063.28.274.087a15.1 15.1 0 0 1 4.939 2.613l.22.177.265-.098 3.71-1.367 2.945 3.61-2.151 3.422-.154.245.135.255c.866 1.636 1.353 3.378 1.648 5.34l.04.267.245.113 3.596 1.652-.469 4.592-.02.026-.007.011-3.901.877-.28.063-.087.274a15.1 15.1 0 0 1-2.613 4.939l-.177.22.098.265 1.367 3.71-3.611 2.945-3.526-2.155-.243-.148-.252.133c-1.636.866-3.378 1.353-5.34 1.648l-.267.04-.113.245-1.652 3.596-4.592-.469a.56.56 0 0 0-.037-.027l-.877-3.901-.063-.28-.274-.087a15.1 15.1 0 0 1-4.939-2.613l-.22-.177-.265.098-3.71 1.367Zm.077.088Zm29.992-.38Zm-.38-29.892Z" fill="#fff" stroke="#0F00E2"/><mask id="a" fill="#fff"><path d="M167.7 121.4c-1 0-2-.3-2.8-.9-1-.7-1.7-1.8-1.8-3.1-.2-1.2.1-2.5.9-3.5.7-1 1.8-1.7 3.1-1.8 2.6-.4 4.9 1.4 5.3 3.9.4 2.6-1.4 4.9-3.9 5.3-.3.1-.6.1-.8.1Zm0-8.7h-.6c-1.1.2-2 .7-2.7 1.6-.6.9-.9 1.9-.8 3 .2 1.1.7 2 1.6 2.7.9.6 1.9.9 3 .8 2.2-.3 3.7-2.4 3.4-4.6-.2-2.1-1.9-3.5-3.9-3.5Z"/></mask><path d="M167.7 121.4c-1 0-2-.3-2.8-.9-1-.7-1.7-1.8-1.8-3.1-.2-1.2.1-2.5.9-3.5.7-1 1.8-1.7 3.1-1.8 2.6-.4 4.9 1.4 5.3 3.9.4 2.6-1.4 4.9-3.9 5.3-.3.1-.6.1-.8.1Zm0-8.7h-.6c-1.1.2-2 .7-2.7 1.6-.6.9-.9 1.9-.8 3 .2 1.1.7 2 1.6 2.7.9.6 1.9.9 3 .8 2.2-.3 3.7-2.4 3.4-4.6-.2-2.1-1.9-3.5-3.9-3.5Z" fill="#fff"/><path d="m164.9 120.5.6-.8-.013-.01-.013-.009-.574.819Zm-1.8-3.1.997-.077-.003-.044-.008-.043-.986.164Zm.9-3.5.781.625.02-.025.018-.026-.819-.574Zm3.1-1.8.077.997.038-.003.037-.006-.152-.988Zm5.3 3.9.988-.152-.001-.006-.987.158Zm-3.9 5.3-.158-.987-.081.013-.077.025.316.949Zm-1.4-8.6v-1h-.09l-.089.016.179.984Zm-2.7 1.6-.789-.614-.023.029-.02.03.832.555Zm-.8 3-.996.091.004.044.008.044.984-.179Zm1.6 2.7-.614.789.029.023.03.02.555-.832Zm3 .8.091.996.022-.002.022-.003-.135-.991Zm3.4-4.6-.995.095.001.02.003.02.991-.135Zm-3.9 4.2c-.806 0-1.59-.243-2.2-.7l-1.2 1.6c.991.743 2.207 1.1 3.4 1.1v-2Zm-2.226-.719c-.778-.544-1.302-1.383-1.377-2.358l-1.994.154c.125 1.625 1.001 2.987 2.224 3.842l1.147-1.638Zm-1.388-2.445a3.467 3.467 0 0 1 .695-2.711l-1.562-1.25a5.464 5.464 0 0 0-1.105 4.289l1.972-.328Zm.733-2.762c.545-.778 1.383-1.302 2.358-1.377l-.154-1.994c-1.625.125-2.986 1.001-3.842 2.224l1.638 1.147Zm2.433-1.386c2.031-.312 3.843 1.087 4.161 3.07l1.974-.316c-.482-3.017-3.27-5.218-6.439-4.73l.304 1.976Zm4.16 3.064c.312 2.031-1.087 3.843-3.07 4.161l.316 1.974c3.017-.482 5.218-3.27 4.73-6.439l-1.976.304Zm-3.228 4.199c-.128.043-.276.049-.484.049v2c.192 0 .644.006 1.116-.151l-.632-1.898Zm-.484-8.651h-.6v2h.6v-2Zm-.779.016c-1.318.24-2.445.857-3.31 1.97l1.578 1.228c.535-.687 1.208-1.07 2.09-1.23l-.358-1.968Zm-3.353 2.029c-.711 1.067-1.087 2.291-.964 3.646l1.992-.181c-.077-.846.147-1.622.636-2.355l-1.664-1.11Zm-.952 3.734c.24 1.318.857 2.445 1.97 3.31l1.228-1.578c-.687-.535-1.07-1.208-1.23-2.09l-1.968.358Zm2.029 3.353c1.067.711 2.291 1.087 3.646.964l-.181-1.992c-.846.077-1.621-.147-2.355-.636l-1.11 1.664Zm3.69.959c2.781-.379 4.626-3.014 4.256-5.726l-1.982.27c.23 1.688-.925 3.253-2.544 3.474l.27 1.982Zm4.261-5.686c-.253-2.647-2.415-4.405-4.896-4.405v2c1.519 0 2.757 1.042 2.905 2.595l1.991-.19Z" fill="#0F00E2" mask="url(#a)"/><mask id="b" fill="#fff"><path d="M167.8 128.8c-.4 0-.8 0-1.2-.1-.9-.1-1.7-.3-2.5-.5-.1 0-.2-.2-.2-.3v-.1c.1-.2.2-.3.4-.2.8.3 1.6.4 2.4.5 4.1.4 7.9-1.4 10.3-4.4 1.3-1.6 2.1-3.6 2.4-5.7v-.2c0-.4.1-.8.1-1.2 0-2.6-.9-5.2-2.6-7.3-1.9-2.4-4.7-3.9-7.8-4.2-6.3-.6-12 4-12.6 10.3 0 .4-.1.8-.1 1.2 0 1.7.4 3.4 1.1 4.9v.1c0 .1-.1.2-.2.3-.2.1-.3 0-.4-.2-.8-1.6-1.1-3.4-1.1-5.2 0-.4 0-.8.1-1.2.4-6.6 6.4-11.5 13.1-10.8 3.2.3 6.1 1.9 8.2 4.4 1.8 2.2 2.7 4.9 2.7 7.7 0 .4 0 .8-.1 1.3-.5 6.2-5.8 10.9-12 10.9Z"/></mask><path d="M167.8 128.8c-.4 0-.8 0-1.2-.1-.9-.1-1.7-.3-2.5-.5-.1 0-.2-.2-.2-.3v-.1c.1-.2.2-.3.4-.2.8.3 1.6.4 2.4.5 4.1.4 7.9-1.4 10.3-4.4 1.3-1.6 2.1-3.6 2.4-5.7v-.2c0-.4.1-.8.1-1.2 0-2.6-.9-5.2-2.6-7.3-1.9-2.4-4.7-3.9-7.8-4.2-6.3-.6-12 4-12.6 10.3 0 .4-.1.8-.1 1.2 0 1.7.4 3.4 1.1 4.9v.1c0 .1-.1.2-.2.3-.2.1-.3 0-.4-.2-.8-1.6-1.1-3.4-1.1-5.2 0-.4 0-.8.1-1.2.4-6.6 6.4-11.5 13.1-10.8 3.2.3 6.1 1.9 8.2 4.4 1.8 2.2 2.7 4.9 2.7 7.7 0 .4 0 .8-.1 1.3-.5 6.2-5.8 10.9-12 10.9Z" fill="#fff"/><path d="m166.6 128.7.243-.97-.066-.016-.067-.008-.11.994Zm-2.5-.5.243-.97-.12-.03h-.123v1Zm-.2-.4-.894-.447-.106.211v.236h1Zm.4-.2-.447.894.047.024.049.018.351-.936Zm2.4.5-.124.992.013.002.014.001.097-.995Zm10.3-4.4-.776-.631-.005.006.781.625Zm2.4-5.7.99.141.01-.07V118h-1Zm-2.5-8.7-.784.621.007.008.777-.629Zm-7.8-4.2.096-.995-.001-.001-.095.996Zm-12.6 10.3-.995-.095-.005.047v.048h1Zm1 6.1h1v-.222l-.094-.201-.906.423Zm-.2.4.447.894.145-.072.115-.115-.707-.707Zm-1.4-6.6.97.242.023-.089.005-.093-.998-.06Zm13.1-10.8-.104.995.011.001.093-.996Zm8.2 4.4.774-.633-.008-.01-.766.643Zm2.6 9-.981-.196-.011.057-.005.059.997.08Zm-12 9.9c-.419 0-.696-.005-.957-.07l-.485 1.94c.538.135 1.061.13 1.442.13v-2Zm-1.09-.094c-.823-.091-1.561-.275-2.367-.476l-.485 1.94c.793.199 1.655.415 2.632.524l.22-1.988Zm-2.61-.506a.89.89 0 0 1 .582.211.68.68 0 0 1 .138.162.532.532 0 0 1 .046.1c.008.025.034.106.034.227h-2c0 .296.114.551.205.702.054.09.139.211.267.321.117.102.367.277.728.277v-2Zm.8.7v-.1h-2v.1h2Zm-.106.347c.013-.025.009-.012-.013.018a.72.72 0 0 1-.204.18.816.816 0 0 1-.45.115.666.666 0 0 1-.274-.066l.894-1.788c-.291-.146-.748-.246-1.199.024-.332.199-.489.516-.542.623l1.788.894Zm-.845.289c.927.348 1.842.458 2.627.556l.248-1.984c-.815-.102-1.5-.192-2.173-.444l-.702 1.872Zm2.654.559c4.459.435 8.581-1.524 11.178-4.77l-1.562-1.25c-2.203 2.754-5.68 4.395-9.422 4.03l-.194 1.99Zm11.173-4.764c1.43-1.76 2.292-3.936 2.614-6.19l-1.98-.282c-.278 1.946-1.016 3.77-2.186 5.21l1.552 1.262ZM180.4 118v-.2h-2v.2h2Zm0-.2c0-.127.016-.265.042-.476.024-.189.058-.451.058-.724h-2c0 .127-.016.265-.042.476-.024.189-.058.451-.058.724h2Zm.1-1.2c0-2.828-.978-5.651-2.823-7.929l-1.554 1.258a10.648 10.648 0 0 1 2.377 6.671h2Zm-2.816-7.921c-2.074-2.619-5.125-4.249-8.488-4.574l-.192 1.99c2.837.275 5.386 1.645 7.112 3.826l1.568-1.242Zm-8.489-4.575c-6.837-.651-13.037 4.338-13.69 11.201l1.991.19c.546-5.737 5.746-9.948 11.509-9.4l.19-1.991ZM155.5 115.4c0 .127-.016.265-.042.476-.024.189-.058.451-.058.724h2c0-.127.016-.265.042-.476.024-.189.058-.451.058-.724h-2Zm-.1 1.2a12.7 12.7 0 0 0 1.194 5.323l1.812-.846a10.705 10.705 0 0 1-1.006-4.477h-2Zm1.1 4.9v.1h2v-.1h-2Zm0 .1c0-.144.036-.256.067-.326a.585.585 0 0 1 .071-.124c.011-.015.016-.02.006-.009l-.051.052 1.414 1.414c.037-.037.142-.139.231-.257.08-.107.262-.374.262-.75h-2Zm.353-.594a.666.666 0 0 1 .274-.066.807.807 0 0 1 .45.115.72.72 0 0 1 .204.18c.022.03.026.043.013.018l-1.788.894c.053.107.21.424.542.623.451.27.908.17 1.199.024l-.894-1.788Zm.941.247c-.711-1.422-.994-3.058-.994-4.753h-2c0 1.905.317 3.869 1.206 5.647l1.788-.894Zm-.994-4.753c0-.419.005-.696.07-.958l-1.94-.485c-.135.539-.13 1.062-.13 1.443h2Zm.098-1.14c.364-6.002 5.835-10.509 11.998-9.865l.208-1.99c-7.237-.756-13.766 4.537-14.202 11.734l1.996.121Zm12.009-9.864c2.92.273 5.584 1.734 7.527 4.047l1.532-1.286c-2.257-2.687-5.393-4.426-8.873-4.753l-.186 1.992Zm7.519 4.037c1.645 2.011 2.474 4.484 2.474 7.067h2c0-3.017-.971-5.944-2.926-8.333l-1.548 1.266Zm2.474 7.067c0 .398-.002.71-.081 1.104l1.962.392c.121-.606.119-1.094.119-1.496h-2Zm-.097 1.22c-.456 5.66-5.303 9.98-11.003 9.98v2c6.7 0 12.453-5.08 12.997-11.82l-1.994-.16Z" fill="#0F00E2" mask="url(#b)"/><path d="M138.25 55.17V30.855h8.712v24.313h-8.712Z" fill="#0079D8" stroke="#0F00E2" stroke-width=".5"/><path d="M177.254 55.17V30.855h8.712v24.313h-8.712Z" fill="#58B1F4" stroke="#0F00E2" stroke-width=".5"/><path d="M190.2 55.17V16.25h8.712v38.92H190.2Z" fill="#0079D8" stroke="#0F00E2" stroke-width=".5"/><path d="M151.279 55.169v-13.11h8.712v13.11h-8.712Z" fill="#58B1F4" stroke="#0F00E2" stroke-width=".5"/><path d="M164.225 55.17V38.905h8.712v16.263h-8.712Z" fill="#0079D8" stroke="#0F00E2" stroke-width=".5"/><path d="M70.135 107.131a2.218 2.218 0 0 0-3.787-1.569 2.219 2.219 0 0 0 .001 3.138l.147.146h.015a2.216 2.216 0 0 0 2.974-.146c.416-.416.65-.98.65-1.569Zm0 0h-.5.5Zm-5.52-6.631a9.95 9.95 0 0 1 7.03 2.907l-14.06.001a9.95 9.95 0 0 1 7.03-2.908Z" fill="#fff" stroke="#0F00E2"/></svg>