<svg width="134" height="134" fill="none" xmlns="http://www.w3.org/2000/svg"><path fill-rule="evenodd" clip-rule="evenodd" d="M101.399 134h.675C120.96 127.705 134 109.943 134 89.933V69.248c0-.899-.45-1.574-1.349-2.023l-22.933-8.544V45.866c0-4.272-3.597-7.87-7.869-7.87h-7.644v-5.395h7.644c4.272 0 7.869-3.598 7.869-7.87V7.87c0-4.272-3.597-7.869-7.869-7.869H7.869C3.597 0 0 3.597 0 7.87v16.637c0 4.271 3.597 7.869 7.87 7.869h7.643v5.396H7.87C3.597 37.772 0 41.369 0 45.64v16.638c0 4.271 3.597 7.869 7.87 7.869h7.643v5.396H7.87C3.597 75.544 0 79.14 0 83.413v16.637c0 4.272 3.597 7.869 7.87 7.869h64.526c5.396 12.591 15.963 21.809 28.104 25.856.45.225.674.225.899.225ZM7.869 28.329c-2.023 0-3.822-1.574-3.822-3.822V7.869c0-2.023 1.574-3.822 3.822-3.822h93.755c2.024 0 3.822 1.574 3.822 3.822v16.638c0 2.023-1.574 3.822-3.822 3.822H7.869Zm11.916 4.047h70.148v5.396H19.785v-5.396ZM4.272 62.279V45.64c0-2.023 1.574-3.822 3.822-3.822h93.755c2.023 0 3.822 1.574 3.822 3.822v11.242l-3.372-1.125h-1.125L73.07 66.101H7.87c-2.023 0-3.597-1.574-3.597-3.822Zm99.151-1.574 26.305 9.668v19.335c0 .9 0 2.023-.225 3.148h-26.08V60.705ZM72.846 89.933v-19.56l26.305-9.668V92.63h-26.08c0-.9-.225-1.799-.225-2.698Zm-53.06-19.56h49.013v5.395H19.785v-5.395ZM4.271 100.275V83.638c0-2.024 1.574-3.823 3.822-3.823h60.705v10.118c0 5.62.899 9.443 2.248 13.939H8.094c-2.248 0-3.822-1.573-3.822-3.597Zm99.151-3.372h25.631c-2.473 13.939-11.916 26.305-25.631 31.926V96.903Zm-29.903 0H99.15v31.926c-13.49-5.621-23.158-17.537-25.63-31.926ZM13.265 16.188a8.06 8.06 0 0 1 8.094-8.094 8.06 8.06 0 0 1 8.094 8.094 8.06 8.06 0 0 1-8.094 8.094 8.06 8.06 0 0 1-8.094-8.094Zm4.047 0c0-2.024 1.799-3.822 3.822-3.822 2.024 0 3.822 1.798 3.822 3.822 0 2.023-1.798 3.822-3.822 3.822-2.023 0-3.822-1.574-3.822-3.822Zm74.195-5.171c0-1.124.899-2.024 2.023-2.024s2.024.9 2.024 2.024v10.567c0 1.124-.9 2.023-2.024 2.023s-2.023-.899-2.023-2.023V11.017Zm-11.467 0c0-1.124.9-2.024 2.024-2.024s2.023.9 2.023 2.024v10.567c0 1.124-.9 2.023-2.023 2.023a2.015 2.015 0 0 1-2.024-2.023V11.017Zm-11.241 0c0-1.124.899-2.024 2.023-2.024s2.024.9 2.024 2.024v10.567c0 1.124-.9 2.023-2.024 2.023s-2.023-.899-2.023-2.023V11.017Zm-11.467 0c0-1.124.9-2.024 2.024-2.024s2.023.9 2.023 2.024v10.567c0 1.124-.9 2.023-2.023 2.023a2.015 2.015 0 0 1-2.024-2.023V11.017ZM13.265 53.96a8.06 8.06 0 0 1 8.094-8.094 8.06 8.06 0 0 1 8.094 8.094 8.06 8.06 0 0 1-8.094 8.094 8.06 8.06 0 0 1-8.094-8.094Zm4.047 0c0-2.024 1.799-3.822 3.822-3.822 2.024 0 3.822 1.798 3.822 3.822 0 2.023-1.798 3.822-3.822 3.822-2.023 0-3.822-1.574-3.822-3.822Zm74.195-5.171c0-1.125.899-2.024 2.023-2.024s2.024.9 2.024 2.024v2.922c0 1.125-.9 2.024-2.024 2.024s-2.023-.9-2.023-2.024V48.79Zm-11.467 0c0-1.125.9-2.024 2.024-2.024s2.023.9 2.023 2.024v6.97c0 1.123-.9 2.023-2.023 2.023-1.124 0-2.024-.9-2.024-2.024v-6.97Zm-11.241 0c0-1.125.899-2.024 2.023-2.024s2.024.9 2.024 2.024v10.567c0 1.124-.9 2.023-2.024 2.023s-2.023-.9-2.023-2.023V48.789Zm-11.467 0c0-1.125.9-2.024 2.024-2.024s2.023.9 2.023 2.024v10.567c0 1.124-.9 2.023-2.023 2.023-1.125 0-2.024-.9-2.024-2.023V48.789ZM13.265 91.956a8.06 8.06 0 0 1 8.094-8.094 8.06 8.06 0 0 1 8.094 8.094 8.06 8.06 0 0 1-8.094 8.094c-4.497-.224-8.094-3.822-8.094-8.094Zm4.047 0c0-2.023 1.799-3.822 3.822-3.822 2.024 0 3.822 1.799 3.822 3.822 0 2.024-1.798 3.822-3.822 3.822-2.023 0-3.822-1.798-3.822-3.822Zm40.02-5.396c0-1.124.9-2.023 2.024-2.023s2.023.9 2.023 2.023v10.567c0 1.125-.9 2.024-2.023 2.024-1.125 0-2.024-.9-2.024-2.023V86.56Z" fill="url(#a)"/><defs><linearGradient id="a" x1="13.551" y1="97.219" x2="105.826" y2="30.661" gradientUnits="userSpaceOnUse"><stop stop-color="#402483"/><stop offset="1" stop-color="#E52B0E"/></linearGradient></defs></svg>