<svg width="126" height="127" fill="none" xmlns="http://www.w3.org/2000/svg"><path d="M49.249 64.768h2.736v13.68h-2.736v-13.68Zm-13.679 0h2.735v13.68H35.57v-13.68Zm-13.68 0h2.735v13.68h-2.736v-13.68ZM95.761 63.4a8.209 8.209 0 1 0 0 16.417 8.209 8.209 0 0 0 0-16.417Zm0 13.68a5.469 5.469 0 0 1-3.868-1.603 5.469 5.469 0 0 1 0-7.738 5.469 5.469 0 0 1 7.738 0 5.471 5.471 0 0 1-3.87 9.34ZM49.249 30.568h2.736v13.68h-2.736v-13.68Zm-13.679 0h2.735v13.68H35.57v-13.68Zm-13.68 0h2.735v13.68h-2.736v-13.68Zm73.871-2.736a8.21 8.21 0 1 0 .003 16.418 8.21 8.21 0 0 0-.003-16.418Zm0 13.68a5.472 5.472 0 1 1 0-10.944 5.472 5.472 0 0 1 0 10.944Z" fill="#0F00E2"/><path d="M124.01 26.068a16.496 16.496 0 0 0-3.297-4.364L109.168 6.438A15.131 15.131 0 0 0 97.129.473H29.741a15.05 15.05 0 0 0-11.642 5.472L6.211 20.5c-.478.381-.935.788-1.368 1.218A16.308 16.308 0 0 0 0 33.305v79.344a13.682 13.682 0 0 0 13.68 13.68h98.496c3.628 0 7.107-1.442 9.673-4.006a13.685 13.685 0 0 0 4.007-9.674V33.606a16.277 16.277 0 0 0-1.56-6.936 1.368 1.368 0 0 0-.232-.533l-.054-.069ZM2.737 33.305a13.67 13.67 0 0 1 1.368-5.978l3.994-4.884a13.572 13.572 0 0 1 8.318-2.818l93.024.26h-.001c3.401.017 6.673 1.3 9.18 3.598l3.01 3.981a13.556 13.556 0 0 1 1.49 6.142v18.85H2.736l.001-19.15Zm17.47-25.581a12.308 12.308 0 0 1 9.575-4.514H97.13a12.309 12.309 0 0 1 9.85 4.884l7.483 9.89a16.334 16.334 0 0 0-5.021-.794l-93.024-.3a16.41 16.41 0 0 0-4.214.56l8.003-9.726Zm102.915 104.925a10.943 10.943 0 0 1-10.944 10.943H13.682A10.941 10.941 0 0 1 2.74 112.649V90.761h120.384l-.001 21.888Zm0-24.624H2.738V55.193h120.384v32.832Z" fill="#0F00E2"/><path d="M58.825 35.588h18.428v2.736H58.825v-2.736Zm0 34.2h18.428v2.736H58.825v-2.736Zm-9.576 30.548h2.736v13.68h-2.736v-13.68Zm-13.679 0h2.735v13.68H35.57v-13.68Zm-13.68 0h2.735v13.68h-2.736v-13.68Zm73.871 15.048a8.206 8.206 0 0 0 8.209-8.209 8.208 8.208 0 1 0-8.209 8.209Zm0-13.68a5.471 5.471 0 1 1 .002 10.943 5.471 5.471 0 0 1-.002-10.943Zm-36.936 3.652h18.428v2.736H58.825v-2.736Z" fill="#0F00E2"/></svg>