<svg width="149" height="122" fill="none" xmlns="http://www.w3.org/2000/svg"><path d="M146.606 71.053V19.11C146.606 9.944 114.268 2 74.608 2 34.948 2 2.61 9.333 2.61 19.11v51.943" fill="#58B1F4"/><path d="M146.606 71.053V19.11C146.606 9.944 114.268 2 74.608 2 34.948 2 2.61 9.333 2.61 19.11v51.943" stroke="#0F00E2" stroke-width="3" stroke-miterlimit="10"/><path d="M16.034 79.608C6.88 77.164 2 74.72 2 71.664 2 64.331 34.338 58.22 73.998 58.22c39.66 0 71.998 6.111 71.998 13.444 0 3.055-7.322 6.11-15.254 7.944" fill="#58B1F4"/><path d="M16.034 79.608C6.88 77.164 2 74.72 2 71.664 2 64.331 34.338 58.22 73.998 58.22c39.66 0 71.998 6.111 71.998 13.444 0 3.055-7.322 6.11-15.254 7.944" stroke="#0F00E2" stroke-width="3" stroke-miterlimit="10"/><path d="M16.033 71.664s0 48.276 58.575 48.276 56.744-48.276 56.744-48.276" fill="#58B1F4"/><path d="M16.033 71.664s0 48.276 58.575 48.276 56.744-48.276 56.744-48.276" stroke="#0F00E2" stroke-width="3" stroke-miterlimit="10"/><path d="M73.998 116.884c12.468 0 22.576-10.123 22.576-22.61s-10.108-22.61-22.576-22.61-22.576 10.123-22.576 22.61 10.108 22.61 22.576 22.61Z" fill="#58B1F4" stroke="#0F00E2" stroke-width="3" stroke-miterlimit="10"/><path d="M73.999 108.329c7.076 0 12.813-5.745 12.813-12.833 0-7.087-5.737-12.832-12.813-12.832-7.077 0-12.813 5.745-12.813 12.832 0 7.088 5.736 12.833 12.813 12.833Zm33.557-29.332a3.664 3.664 0 0 0 3.661-3.666 3.664 3.664 0 0 0-3.661-3.667 3.664 3.664 0 0 0-3.66 3.666 3.664 3.664 0 0 0 3.66 3.667Z" fill="#58B1F4" stroke="#0F00E2" stroke-width="3" stroke-miterlimit="10"/></svg>