<svg width="141" height="115" fill="none" xmlns="http://www.w3.org/2000/svg"><path fill-rule="evenodd" clip-rule="evenodd" d="M21.954 4.66C34.436 1.736 51.564 0 70.361 0c18.81 0 35.938 1.882 48.417 4.879 6.224 1.495 11.393 3.29 15.051 5.328 1.829 1.018 3.366 2.144 4.466 3.395 1.108 1.262 1.853 2.75 1.853 4.42V67.01h-3.773V18.023c0-.49-.209-1.128-.914-1.93-.714-.813-1.852-1.69-3.467-2.59-3.229-1.8-8.022-3.497-14.097-4.956-12.121-2.91-28.943-4.775-47.536-4.775-18.605 0-35.428 1.722-47.546 4.561-6.075 1.423-10.858 3.102-14.077 4.92-3.356 1.896-4.391 3.574-4.391 4.77v48.986H.574V18.023c0-3.415 2.777-6.06 6.308-8.054C10.55 7.897 15.73 6.12 21.954 4.66Z" fill="url(#a)"/><path fill-rule="evenodd" clip-rule="evenodd" d="M4.534 66.455c-.702.634-.762 1.012-.762 1.13 0 .316.258 1.131 2.403 2.31 2.023 1.11 5.15 2.216 9.433 3.36l-.974 3.645c-4.349-1.162-7.838-2.36-10.275-3.7C2.044 71.93 0 70.153 0 67.586c0-1.61.893-2.925 2.005-3.93 1.119-1.01 2.661-1.9 4.472-2.695 3.636-1.597 8.78-2.998 14.986-4.161 12.444-2.332 29.54-3.779 48.324-3.779 18.783 0 35.879 1.447 48.323 3.779 6.207 1.163 11.35 2.564 14.986 4.161 1.811.796 3.353 1.685 4.472 2.696 1.112 1.004 2.005 2.32 2.005 3.93 0 1.497-.885 2.685-1.805 3.531-.954.877-2.232 1.655-3.642 2.342-2.836 1.382-6.583 2.574-10.4 3.456l-.849-3.675c3.663-.847 7.11-1.96 9.596-3.172 1.251-.61 2.167-1.2 2.742-1.728.54-.497.583-.751.586-.762-.003-.126-.074-.502-.762-1.123-.695-.628-1.828-1.324-3.46-2.041-3.251-1.429-8.07-2.766-14.163-3.907-12.156-2.279-29.01-3.714-47.63-3.714s-35.473 1.435-47.628 3.714c-6.093 1.142-10.912 2.478-14.164 3.907-1.632.717-2.765 1.413-3.46 2.04Z" fill="url(#b)"/><path fill-rule="evenodd" clip-rule="evenodd" d="M119.474 91.282C112.643 103.292 98.614 115 70.362 115c-28.25 0-42.686-11.701-49.949-23.672-3.594-5.925-5.384-11.835-6.278-16.255a48.413 48.413 0 0 1-.786-5.369 33.652 33.652 0 0 1-.113-1.951l-.001-.117v-.048c0-.001 0-.003 1.886-.003l1.886-.001v-.001.017l.001.079.01.341c.013.307.038.767.09 1.359.102 1.184.309 2.891.724 4.946.833 4.117 2.496 9.589 5.806 15.046 6.548 10.793 19.732 21.857 46.724 21.857 26.988 0 39.717-11.057 45.833-21.811 3.097-5.446 4.551-10.91 5.227-15.024a44.15 44.15 0 0 0 .537-4.943 29.66 29.66 0 0 0 .037-1.358c.001-.153-.001-.268-.002-.342l-.002-.078v-.017s0 .002 1.884-.07c1.885-.071 1.885-.07 1.885-.069l.001.004v.011l.001.034.003.116c.001.1.003.24.003.42-.001.36-.01.879-.042 1.532a47.825 47.825 0 0 1-.583 5.372c-.726 4.422-2.294 10.34-5.67 16.277Zm-102.467-23.7Z" fill="url(#c)"/><path fill-rule="evenodd" clip-rule="evenodd" d="M69.786 69.472c-10.714 0-19.404 8.7-19.404 19.437 0 10.737 8.69 19.437 19.404 19.437 10.715 0 19.405-8.7 19.405-19.437 0-10.738-8.69-19.437-19.405-19.437ZM46.61 88.909c0-12.816 10.374-23.21 23.177-23.21 12.803 0 23.177 10.394 23.177 23.21 0 12.815-10.374 23.209-23.177 23.209-12.803 0-23.177-10.394-23.177-23.21Z" fill="url(#d)"/><path fill-rule="evenodd" clip-rule="evenodd" d="M69.787 79.845c-5.629 0-10.197 4.571-10.197 10.216s4.568 10.217 10.197 10.217c5.63 0 10.198-4.572 10.198-10.217 0-5.645-4.568-10.216-10.198-10.216Zm-13.97 10.216c0-7.723 6.252-13.988 13.97-13.988 7.719 0 13.97 6.265 13.97 13.988s-6.251 13.989-13.97 13.989c-7.718 0-13.97-6.266-13.97-13.989Z" fill="url(#e)"/><path fill-rule="evenodd" clip-rule="evenodd" d="M101.434 69.472c-.862 0-1.566.7-1.566 1.571s.704 1.572 1.566 1.572a1.57 1.57 0 0 0 1.567-1.572 1.57 1.57 0 0 0-1.567-1.571Zm-5.338 1.571a5.341 5.341 0 0 1 5.338-5.344 5.341 5.341 0 0 1 5.339 5.344 5.341 5.341 0 0 1-5.339 5.344 5.341 5.341 0 0 1-5.338-5.344Z" fill="url(#f)"/><defs><linearGradient id="a" x1="-11.166" y1="57.975" x2="68.846" y2="-55.262" gradientUnits="userSpaceOnUse"><stop stop-color="#402483"/><stop offset="1" stop-color="#E52B0E"/></linearGradient><linearGradient id="b" x1="-11.74" y1="73.694" x2="2.603" y2="16.769" gradientUnits="userSpaceOnUse"><stop stop-color="#402483"/><stop offset="1" stop-color="#E52B0E"/></linearGradient><linearGradient id="c" x1="3.769" y1="108.598" x2="57.685" y2="21.777" gradientUnits="userSpaceOnUse"><stop stop-color="#402483"/><stop offset="1" stop-color="#E52B0E"/></linearGradient><linearGradient id="d" x1="42.71" y1="105.86" x2="97.352" y2="68.785" gradientUnits="userSpaceOnUse"><stop stop-color="#402483"/><stop offset="1" stop-color="#E52B0E"/></linearGradient><linearGradient id="e" x1="53.467" y1="100.278" x2="86.401" y2="77.93" gradientUnits="userSpaceOnUse"><stop stop-color="#402483"/><stop offset="1" stop-color="#E52B0E"/></linearGradient><linearGradient id="f" x1="95.198" y1="74.946" x2="107.781" y2="66.405" gradientUnits="userSpaceOnUse"><stop stop-color="#402483"/><stop offset="1" stop-color="#E52B0E"/></linearGradient></defs></svg>