<svg width="215" height="170" fill="none" xmlns="http://www.w3.org/2000/svg"><path d="m70.167 55.821.763-.172-.205-.755c-.597-2.209-.95-4.528-.95-6.912 0-14.564 11.802-26.37 26.36-26.37 6.594 0 12.609 2.457 17.235 6.467l.796.69.392-.978C120.908 11.932 136.408.75 154.526.75c23.772 0 43.042 19.278 43.042 43.06 0 2.672-.299 5.26-.77 7.818l-.091.498.427.271c10.27 6.517 17.116 17.938 17.116 31.051 0 20.39-16.406 36.801-36.786 36.801l-100.098.001c-18.012 0-32.616-14.607-32.616-32.63 0-15.534 10.88-28.51 25.417-31.799Z" fill="#58B1F4" stroke="#0F00E2" stroke-width="1.5"/><path fill-rule="evenodd" clip-rule="evenodd" d="M124.01 69.596a16.494 16.494 0 0 0-3.297-4.364l-11.545-15.267A15.131 15.131 0 0 0 97.129 44H29.741a15.05 15.05 0 0 0-11.642 5.472L6.211 64.028c-.478.38-.935.787-1.368 1.217A16.308 16.308 0 0 0 0 76.833v79.344a13.683 13.683 0 0 0 13.68 13.68h98.496a13.683 13.683 0 0 0 13.68-13.68V77.133a16.277 16.277 0 0 0-1.56-6.935 1.368 1.368 0 0 0-.232-.534l-.054-.068Z" fill="#fff"/><path d="M49.249 108.295h2.736v13.68h-2.736v-13.68Zm-13.679 0h2.735v13.68h-2.736v-13.68Zm-13.68 0h2.735v13.68h-2.736v-13.68Zm73.871-1.368a8.21 8.21 0 1 0 .001 16.418 8.21 8.21 0 0 0 0-16.418Zm0 13.68a5.468 5.468 0 0 1-3.868-1.603 5.469 5.469 0 0 1 0-7.738 5.468 5.468 0 0 1 7.738 0 5.472 5.472 0 0 1-3.87 9.341ZM49.249 74.095h2.736v13.68h-2.736v-13.68Zm-13.679 0h2.735v13.68h-2.736v-13.68Zm-13.68 0h2.735v13.68h-2.736v-13.68Zm73.871-2.735a8.21 8.21 0 1 0 .003 16.417 8.21 8.21 0 0 0-.003-16.418Zm0 13.68a5.472 5.472 0 1 1 0-10.944 5.472 5.472 0 0 1 0 10.943Z" fill="#0F00E2"/><path d="M124.01 69.596a16.494 16.494 0 0 0-3.297-4.364l-11.545-15.267A15.131 15.131 0 0 0 97.129 44H29.741a15.05 15.05 0 0 0-11.642 5.472L6.211 64.028c-.478.38-.935.787-1.368 1.217A16.308 16.308 0 0 0 0 76.833v79.344a13.683 13.683 0 0 0 13.68 13.68h98.496a13.683 13.683 0 0 0 13.68-13.68V77.133a16.277 16.277 0 0 0-1.56-6.935 1.368 1.368 0 0 0-.232-.534l-.054-.068ZM2.737 76.832a13.67 13.67 0 0 1 1.368-5.978l3.994-4.884a13.573 13.573 0 0 1 8.318-2.817l93.024.26h-.001a13.68 13.68 0 0 1 9.18 3.597l3.01 3.981a13.556 13.556 0 0 1 1.49 6.142v18.851H2.736l.001-19.151Zm17.47-25.581a12.308 12.308 0 0 1 9.575-4.514H97.13a12.309 12.309 0 0 1 9.85 4.884l7.483 9.89a16.34 16.34 0 0 0-5.021-.793l-93.024-.3c-1.423.002-2.84.19-4.214.56l8.003-9.727Zm102.915 104.926a10.944 10.944 0 0 1-10.944 10.943H13.682A10.946 10.946 0 0 1 2.74 156.177v-21.889h120.384l-.001 21.889Zm0-24.624H2.738V98.721h120.384v32.832Z" fill="#0F00E2"/><path d="M58.825 79.115h18.428v2.736H58.825v-2.736Zm0 34.2h18.428v2.736H58.825v-2.736Zm-9.576 30.548h2.736v13.68h-2.736v-13.68Zm-13.679 0h2.735v13.68h-2.736v-13.68Zm-13.68 0h2.735v13.68h-2.736v-13.68Zm73.871 15.048a8.205 8.205 0 0 0 8.209-8.208 8.209 8.209 0 1 0-8.209 8.208Zm0-13.68a5.476 5.476 0 0 1 5.473 5.472 5.473 5.473 0 0 1-5.473 5.473 5.473 5.473 0 0 1 0-10.945Zm-36.936 3.652h18.428v2.736H58.825v-2.736Z" fill="#0F00E2"/></svg>