<svg width="135" height="135" fill="none" xmlns="http://www.w3.org/2000/svg"><path fill-rule="evenodd" clip-rule="evenodd" d="M29.467 135h76.066c3.655 0 6.853-2.97 6.853-6.853V114.67c0-3.655-2.97-6.853-6.853-6.853h-5.71v-3.426h5.71c3.883 0 6.853-2.97 6.853-6.853V84.061c0-3.883-2.97-6.853-6.853-6.853h-5.71v-3.426h5.71c3.655 0 6.853-2.97 6.853-6.853V53.452c0-3.883-2.97-6.853-6.853-6.853H29.467c-3.883 0-6.853 2.97-6.853 6.853v13.477c0 3.655 2.97 6.853 6.853 6.853h5.71v3.426h-5.71c-3.883 0-6.853 2.97-6.853 6.853v13.477c0 3.655 2.97 6.853 6.853 6.853h5.71v3.426h-5.71c-3.883 0-6.853 2.97-6.853 6.853v13.477c0 3.883 3.198 6.853 6.853 6.853ZM135 55.736v1.828c-.914 11.192-10.736 19.873-22.386 19.873a2.048 2.048 0 0 1-2.056-2.056c0-1.142.914-2.056 2.056-2.056 9.366 0 17.361-7.081 18.274-15.99v-1.599a18.425 18.425 0 0 0-18.502-18.502c-.914 0-1.599-.686-2.056-1.371-2.513-7.538-9.594-12.335-17.589-12.335-7.081 0-8.68 3.198-10.736 2.513-.685-.229-1.142-.686-1.142-1.37A29.207 29.207 0 0 0 52.995 4.34c-16.218 0-29.239 13.248-29.239 29.238v1.37c0 1.142-.913 2.056-2.055 2.285-9.823.456-17.59 8.68-17.59 18.502v1.599c.686 8.909 8.68 15.99 18.275 15.99 1.142 0 2.056.914 2.056 2.056a2.047 2.047 0 0 1-2.056 2.056C10.736 77.437.914 68.757 0 57.564v-1.828C0 44.315 8.452 34.721 19.645 33.35 19.645 14.848 34.72 0 52.995 0 66.7 0 79.035 8.223 84.06 20.787c11.65-4.797 24.898.685 29.695 12.106C125.635 33.807 135 43.63 135 55.736ZM26.954 66.929V53.452a2.535 2.535 0 0 1 2.513-2.513h76.066a2.535 2.535 0 0 1 2.513 2.513v13.477a2.535 2.535 0 0 1-2.513 2.513H29.467a2.535 2.535 0 0 1-2.513-2.513Zm12.564 6.624H95.71v3.427H39.518v-3.427ZM26.954 97.538V84.061a2.535 2.535 0 0 1 2.513-2.513h76.066a2.535 2.535 0 0 1 2.513 2.513v13.477a2.535 2.535 0 0 1-2.513 2.513H29.467a2.535 2.535 0 0 1-2.513-2.513Zm12.564 6.853H95.71v3.426H39.518v-3.426Zm-12.564 23.756V114.67a2.535 2.535 0 0 1 2.513-2.513h76.066a2.535 2.535 0 0 1 2.513 2.513v13.477a2.535 2.535 0 0 1-2.513 2.513H29.467c-1.37.228-2.513-.914-2.513-2.513Zm6.396-68.07c0-3.884 3.198-6.854 6.853-6.854 3.883 0 6.853 3.198 6.853 6.853 0 3.883-3.198 6.853-6.853 6.853s-6.853-2.97-6.853-6.853Zm4.34 0c0-1.371 1.143-2.742 2.742-2.742 1.37 0 2.74 1.142 2.74 2.741 0 1.37-1.141 2.741-2.74 2.741-1.6 0-2.742-1.37-2.742-2.74Zm59.163-4.341c0-1.142.913-2.056 2.056-2.056 1.142 0 2.055.914 2.055 2.056v8.452a2.047 2.047 0 0 1-2.055 2.056 2.047 2.047 0 0 1-2.056-2.056v-8.452Zm-9.137 0c0-1.142.913-2.056 2.056-2.056 1.142 0 2.055.914 2.055 2.056v8.452a2.047 2.047 0 0 1-2.055 2.056 2.047 2.047 0 0 1-2.056-2.056v-8.452Zm-9.366 0c0-1.142.914-2.056 2.056-2.056s2.056.914 2.056 2.056v8.452a2.047 2.047 0 0 1-2.056 2.056 2.047 2.047 0 0 1-2.056-2.056v-8.452Zm-9.137 0c0-1.142.914-2.056 2.056-2.056s2.056.914 2.056 2.056v8.452a2.047 2.047 0 0 1-2.056 2.056 2.047 2.047 0 0 1-2.056-2.056v-8.452ZM33.35 90.686c0-4.57 3.427-6.854 6.853-6.854 3.426 0 6.853 2.285 6.853 6.853 0 3.883-3.198 6.853-6.853 6.853-3.655.228-6.853-2.97-6.853-6.853Zm4.34 0c0-1.371 1.143-2.742 2.742-2.742 1.37 0 2.74 1.142 2.74 2.741 0 1.37-1.141 2.741-2.74 2.741-1.6 0-2.742-1.142-2.742-2.74Zm59.163-4.112c0-1.142.913-2.056 2.056-2.056 1.142 0 2.055.913 2.055 2.056v8.451a2.047 2.047 0 0 1-2.055 2.056 2.047 2.047 0 0 1-2.056-2.056v-8.451Zm-9.137 0c0-1.142.913-2.056 2.056-2.056 1.142 0 2.055.913 2.055 2.056v8.451a2.047 2.047 0 0 1-2.055 2.056 2.047 2.047 0 0 1-2.056-2.056v-8.451Zm-9.366 0c0-1.142.914-2.056 2.056-2.056s2.056.913 2.056 2.056v8.451a2.047 2.047 0 0 1-2.056 2.056 2.047 2.047 0 0 1-2.056-2.056v-8.451Zm-9.137 0c0-1.142.914-2.056 2.056-2.056s2.056.913 2.056 2.056v8.451a2.047 2.047 0 0 1-2.056 2.056 2.047 2.047 0 0 1-2.056-2.056v-8.451ZM33.35 121.523c0-3.883 3.198-6.853 6.853-6.853 3.883 0 6.853 3.198 6.853 6.853 0 3.883-3.198 6.853-6.853 6.853s-6.853-3.198-6.853-6.853Zm4.34 0c0-1.371 1.143-2.741 2.742-2.741 1.37 0 2.74 1.142 2.74 2.741 0 1.37-1.141 2.741-2.74 2.741-1.6-.228-2.742-1.371-2.742-2.741Zm59.163-4.34c0-1.142.913-2.056 2.056-2.056 1.142 0 2.055.914 2.055 2.056v8.452a2.046 2.046 0 0 1-2.055 2.055 2.047 2.047 0 0 1-2.056-2.055v-8.452Zm-9.137 0c0-1.142.913-2.056 2.056-2.056 1.142 0 2.055.914 2.055 2.056v8.452a2.047 2.047 0 0 1-2.055 2.055 2.047 2.047 0 0 1-2.056-2.055v-8.452Zm-9.366 0c0-1.142.914-2.056 2.056-2.056s2.056.914 2.056 2.056v8.452a2.047 2.047 0 0 1-2.056 2.055 2.047 2.047 0 0 1-2.056-2.055v-8.452Zm-9.137 0c0-1.142.914-2.056 2.056-2.056s2.056.914 2.056 2.056v8.452a2.047 2.047 0 0 1-2.056 2.055 2.047 2.047 0 0 1-2.056-2.055v-8.452Z" fill="url(#a)"/><defs><linearGradient id="a" x1="-23.403" y1="138.516" x2="128.814" y2="28.72" gradientUnits="userSpaceOnUse"><stop offset=".438" stop-color="#402483"/><stop offset="1" stop-color="#E52B0E"/></linearGradient></defs></svg>