<svg width="177" height="141" fill="none" xmlns="http://www.w3.org/2000/svg"><path fill-rule="evenodd" clip-rule="evenodd" d="M75.6 4.9c.4.3.9.5 1.4.6.5.1 1 .1 1.4-.1 0 0 .1.1.2.1.106.106.25.237.435.407.34.31.819.747 1.465 1.393l2.1 2.1v16.4l.1.1 3.5 3.5 3.4 3.4v3.3l-.3.1c-1 .4-1.4 1.4-1.4 2.6 0 .4 0 .7.2 1 .1.3.4.6.6.8.3.3.5.5.9.6.3.1.7.2 1 .2.6 0 1.1-.1 1.5-.4.4-.2.8-.6 1-1.1.7-1.4.1-3.1-1.3-3.8l-.3-.2v-4.3l-.1-.1-3.4-3.3-3.4-3.4V8.5l-.1-.1L82.1 6c-.55-.6-.975-1.025-1.288-1.338C80.5 4.35 80.3 4.15 80.2 4l-.1-.2v-.2c.8-2.7-2.4-4.7-4.5-2.9-.6.6-1 1.3-1 2.1s.3 1.5 1 2.1Zm58.5 14.4v.1s-.1.1-.1.2c-.15.2-.375.425-.7.75-.325.325-.75.75-1.3 1.35l-2.5 2.5-.1.1v14.3l-.4.4c-.5.2-.8.6-1.1 1-.2.4-.3.9-.3 1.5 0 .8.3 1.5.8 2s1.3.8 2.1.8c.6 0 1.2-.3 1.7-.7.5-.4.8-1 .9-1.6.2-1.2-.4-2.5-1.5-3l-.4-.2V25.2l2.2-2.2c.9-.9 1.5-1.5 1.9-1.8.2-.1.3-.2.3-.2h.1c.05 0 .1.025.15.05.05.025.1.05.15.05.1 0 .225.025.35.05.125.025.25.05.35.05.4 0 .7 0 1-.2.3-.1.6-.3.9-.6l-.3-.4.3.3.1.1c.3-.3.5-.5.7-.8.1-.3.2-.6.2-1 0-1.3-.6-2.3-1.5-2.7-.9-.5-2.1-.4-3 .4-1 .8-1.4 2-1 3Zm2.299 9.1v18.4l-3.3 3.3-3.2 3.2-.3-.1c-1.569-.589-3.331.65-3.587 2.302l-.013-.002c-.3 2.8 3.1 4.2 4.9 2.1.046-.068.091-.132.136-.193.15-.209.287-.398.364-.707.1-.3.1-.7 0-1.2l-.1-.9 3.3-3.3 3.4-3.4.1-.1V29.4l3.6-3.6 3.6-3.6.8.1c.6.1 1.1 0 1.6-.2s.8-.5 1.2-1l.1-.1.1.1c.3-.4.4-.9.5-1.4 0-.5-.1-1.1-.3-1.5-.3-.6-1-1.1-1.6-1.3-.7-.2-1.4-.2-2.1.1-.4.2-.8.6-1.1 1.1a1.937 1.937 0 0 1-.143.228 1.877 1.877 0 0 0-.257.472c-.1.2-.2.5-.2.7 0 .3.1.7.2 1 0 .1-.1.2-.4.5-.319.383-.842.93-1.621 1.742-.441.461-.964 1.007-1.579 1.658l-3.9 4h-.2Zm16.701 8.8.1-.1 2-2 1.6-1.6-.1-.9c-.1-.5-.1-.9 0-1.3.1-.3.4-.6.7-.9.2-.3.5-.6.8-.7.3-.2.6-.2 1-.2 1 0 1.8.3 2.3.9.6.5.8 1.3.7 2.2-.2 1.7-2 2.9-3.6 2.3h-.1l-.1.1c-.2.1-.6.5-1.5 1.4l-1.6 1.6v7.5l-.1.1-4.6 4.6-4.6 4.6-.2.2h-3.5l-.2.3c-.7 1.3-2.4 2-3.8 1.3-.4-.2-.8-.7-1.1-1.1-.153-.153-.248-.364-.328-.544l-.001-.001a3.685 3.685 0 0 0-.071-.155c-.1-.2-.2-.5-.2-.7 0-.4.2-1 .4-1.4.2-.5.6-.9 1-1.1 1-.5 2.4-.4 3.2.3.2.1.4.3.5.5.1.1.2.3.3.5.2.1.6.1 1.4.1h1.5l4.1-4.1 4.1-4.1v-7.6Zm6.2 1.1c.9-.5 1.8-.6 2.7-.1 2 1 2 3.9 0 4.8v.1l-.3.2v7.1l-.1.1-5.7 5.7-5.7 5.7-.1.1h-28.2l-1.7 1.7-1.7 1.7.1.9v.7c0 .2 0 .4-.1.6-.1.4-.4.7-.7 1-.3.3-.6.6-.9.7-.3.2-.6.2-1 .2-1 0-1.8-.4-2.3-1-.5-.6-.8-1.5-.6-2.4.2-.9.8-1.5 1.5-1.9.7-.4 1.6-.6 2.3-.2h.045a.196.196 0 0 0 .044-.008c.029-.01.054-.035.111-.092l1.7-1.7 2.1-2.1.1-.1h28.4l5.3-5.3 5.3-5.3v-6.1l-.367-.183-.033.083c-.5-.2-.8-.6-1.1-1-.3-.4-.5-.9-.5-1.4 0-.5.2-1 .4-1.4.055-.074.111-.151.167-.23h.001c.247-.345.506-.707.832-.87Zm11.2 24.2c.2-.6.6-1.3 1.2-1.6 1.9-1.1 4.2.2 4.2 2.5 0 1-.5 1.8-1.3 2.3-.7.5-1.7.7-2.5.3-.1 0-.2.1-.3.2L170 68c-1.1 1.1-1.7 1.7-1.9 2-.1.1-.1.2-.1.2v.2c.2.5.2 1 .1 1.5-.1.4-.3.8-.7 1.2-1.3 1.3-3.4 1.1-4.4-.5-1.4-2.1.8-4.9 3.2-4.1l.4.1 2-2c1-1 1.5-1.5 1.8-1.9.1-.2.2-.3.2-.3-.3-.6-.3-1.3-.1-1.9Zm-22.3-33.8c-.1.4-.1.8 0 1.3l.1.9-2 2L144 35l-.1.2v8.7l-.3.2c-1.1.5-1.6 1.6-1.5 2.7.1 1 .7 2.1 1.9 2.5.6.2 1.2.1 1.8-.1.6-.2 1.1-.5 1.4-1 .5-.7.5-1.5.4-2.3-.2-.7-.7-1.5-1.4-1.8l-.3-.1v-7.7l2-2c1-1.1 1.5-1.5 1.9-1.8.1-.1.2-.1.2-.1h.1c1.6.6 3.4-.6 3.6-2.3.1-.9-.1-1.7-.7-2.2-.5-.6-1.3-.9-2.3-.9-.4 0-.7 0-1 .2-.3.1-.6.4-.8.7-.3.1-.6.4-.7.8Zm13.1 31.8 6.6-6.6-.1-.7c-.1-.7 0-1.3.2-1.8.3-.5.7-.9 1.2-1.2.5-.2.9-.3 1.4-.3.4 0 .9.1 1.3.4 1.6 1 1.9 3.2.5 4.5-.4.3-.8.6-1.3.7-.5.1-1 0-1.5-.1l-.4-.1-6.8 6.8-7 7-.1.1h-18.6l-2.4 2.4-2.4 2.4.1.9c.1.5.1.9 0 1.2-.078.309-.214.498-.365.707-.044.061-.09.124-.135.193-.5.7-1.3 1.1-2.1 1.1s-1.6-.3-2.2-1c-.4-.5-.6-1.2-.6-1.9s.2-1.4.6-1.9c.8-.8 1.9-1.1 2.9-.8l.3.1L133 70l2.8-2.8.1-.1h18.8l6.6-6.6ZM46.1 79.4c1.8.5 3.5-.9 3.5-2.7 0-1.1-.6-2.1-1.6-2.5-.4-.2-.8-.3-1.2-.3-.4 0-.8.2-1.2.4-1.2.6-1.8 1.9-1.4 3.2l.1.5-4.8 4.8c-2.1 2.1-3.3 3.3-4.1 4-.4.4-.6.5-.8.6-.6-.2-1.2-.2-1.8-.1-.6.2-1.3.6-1.6 1.1-.3.4-.4 1-.4 1.6 0 .5.1 1.1.4 1.6.6.9 1.6 1.2 2.5 1.2.9-.1 1.9-.5 2.3-1.5.2-.4.3-.8.3-1.2 0-.4 0-.7-.2-1.1.05-.05.1-.125.176-.238.075-.112.175-.262.325-.462.6-.7 1.899-2 4.197-4.297L40.8 84l4.8-4.8.5.2Zm-14.9 9 .3.2.1.1-.4-.3Zm54.9 2.1-.1.1L75.6 101l-9.9 10.1.1.5c.1.4.1.7.1 1 0 .3-.1.6-.3.9h-.1c-.9 1.8-3.1 2.2-4.5.8-.9-.8-1.1-2-.6-3.1.4-.6.9-1.1 1.5-1.4.6-.3 1.3-.3 2-.1 0 0 .1 0 .2-.1.3-.2.7-.5 1.4-1.2 1.079-.934 2.673-2.54 5.191-5.076l.001-.001.002-.001c.986-.993 2.113-2.129 3.407-3.422l9.9-10V83l-.4-.2c-.8-.4-1.3-1.2-1.4-2.1-.1-.8.2-1.8.9-2.4.2-.2.5-.4.8-.5.3-.1.6-.1 1-.1.6 0 1.1 0 1.5.3.4.2.7.6 1 1.1.4.7.4 1.6.1 2.3-.2.7-.7 1.3-1.4 1.6v7.5ZM55 95.6v.1c1 0 1.7-.4 2.3-1.3.3-.4.4-.9.4-1.4 0-.4 0-.8-.2-1.2a.606.606 0 0 0 .093-.132c.04-.068.09-.151.206-.268.4-.5 1.1-1.2 2.2-2.3 1.3-1.3 2-2 2.5-2.4.2-.2.3-.2.3-.2 2.562.985 4.639-1.719 3.36-4.094l.14-.106c-.7-1.2-2.3-1.5-3.6-1-.3.1-.6.4-.8.7-.2.3-.4.6-.5 1l-.017.068-.014.053-.02.077c-.08.308-.149.57-.149.902 0 .3.1.6.2.8 0 .1-.1.2-.3.4-.4.5-1.1 1.2-2.2 2.3-1.2 1.2-1.9 1.9-2.4 2.3-.2.2-.3.3-.4.3-.3-.1-.7-.2-1.1-.2-.4 0-.9.1-1.3.3l.1.2v.1l-.2-.3c-.9.5-1.4 1.4-1.4 2.5 0 1.6 1.2 2.8 2.8 2.8Zm4.9 7.667c-.2.241-.3.362-.3.433.4 1.1.1 2.2-.8 3.1-2.2 1.9-5.4-.3-4.5-3 .2-.8.8-1.4 1.5-1.7.7-.2 1.4-.3 2.1 0 .031-.031.081-.071.15-.127a8.93 8.93 0 0 0 .75-.673c1-.9 2.7-2.6 5.8-5.7a371.13 371.13 0 0 0 4.063-4.131c.591-.609 1.063-1.095 1.437-1.47.306-.305.5-.574.65-.782.095-.132.173-.24.25-.317.1 0 .1-.1.1-.1-.2-.5-.2-1.1 0-1.7.2-.7.6-1.3 1.1-1.7.2-.1.4-.2.7-.3.3-.1.6-.1.9-.1.6 0 1.1.1 1.5.3.4.3.8.6 1 1.1 1.1 2.2-1 4.8-3.4 4-.07 0-.191.1-.433.3-.1.083-.22.183-.367.3-.9.8-2.6 2.5-6 5.9-3.4 3.4-5.1 5.1-5.9 6a28.2 28.2 0 0 1-.3.367ZM80.7 113.4l-.3-.2v-5.9l7.1-7.2 7.3-7.3.1-.1v-2.3c0-1 0-1.5.1-1.7h.1c1-.4 1.6-1.4 1.6-2.6 0-.6-.1-1.1-.3-1.5-.2-.4-.6-.8-1.1-1l-.1.2c-.5-.3-1.1-.4-1.7-.3-.6.1-1.1.4-1.5.8a6.92 6.92 0 0 1-.183.175c-.232.216-.438.407-.517.725-.1.3-.2.7-.2 1.1 0 .4 0 .7.1 1.1.1.3.3.6.6.8.2.2.4.4.6.5.1.1.3.2.5.3v.1c0 .064.01.149.024.264.03.243.076.624.076 1.236V92l-7.1 7.2-7.3 7.3-.1.1v3.6c0 1.6 0 2.4-.1 2.9v.2l-.05.025-.05-.125.043.129c-.18.09-.353.18-.443.271-.2.1-.4.3-.5.5-1.1 1.4-.7 3.5.9 4.3 2.4 1.1 4.8-1.4 3.7-3.8-.4-.5-.8-1-1.3-1.2ZM26.3 82.7c.6.2.9.7 1.2 1.2.123.205.212.41.296.602.12.275.227.521.404.698 0 .4-.2.9-.5 1.3-.4.7-1 1.1-1.7 1.3-.7.2-1.4 0-2.1-.4-.5-.3-.9-.7-1.1-1.2-.2-.5-.3-1.1-.2-1.7l.014.003.086-.603-1.4-1.4-1.4-1.4h-3.7l-.2.3c-.8 1.3-2.2 1.7-3.4 1.3-1.2-.3-2.1-1.5-1.9-3 0-.5.2-.9.5-1.3.2-.4.6-.7 1.1-.9.1-.05.2-.075.3-.1.1-.025.2-.05.3-.1.1-.1.3-.1.5-.1.5 0 1 .2 1.4.5.4.3.8.7 1 1.1l.2.4h4.5l.1.1 1.7 1.7 1.4 1.6.8-.1c.7-.1 1.3 0 1.8.2Zm-20.7-14c.9-.8 1.3-2 .8-3v-.1s0-.1.2-.2c.3-.4 1-1.1 2.3-2.4l2.6-2.6h12.2l4.8 4.8 5 5 .1.1h19.6c.38 0 .64.04.83.07.07.01.13.02.183.025.03.003.06.005.087.005.05.1.1.175.15.25.05.075.1.15.15.25.1.2.3.4.5.5.8.7 2.1.8 3 .4.7-.3 1.1-1 1.4-1.6.2-.7.3-1.5-.1-2.1l-.04.026c-.22-.375-.684-.745-1.06-1.026-.4-.3-1-.5-1.5-.5s-1.1.2-1.5.5c-.4.3-.9.7-1 1.2l.083.033-.083.167H34.6l-4.8-4.8-5-5-.1-.1H10.9l-.1.1L8 61.6l-2.3 2.3c-.117.117-.2.166-.269.206-.048.028-.09.052-.131.094-.6-.2-1.2-.2-1.8-.1-.6.2-1.3.5-1.7 1.1-.05.1-.1.225-.15.35a4.9 4.9 0 0 1-.15.35c-.4.1-.5.4-.5.7 0 .7.2 1.4.7 1.9.4.5 1.1.7 1.8.8.137 0 .275.012.408.023.255.022.495.043.692-.023.4-.1.7-.3 1-.6Zm85 42.3.1.4c.1.4.1.7.1 1.1 0 .4-.1.7-.3 1-1.1 2.4-4.4 2.2-5.2-.3-.7-2.2 1.3-4.3 3.5-3.5l.3.1 6.3-6.3 6.3-6.4v-8l-.4-.2c-2.1-1.2-2-4.1.2-5.1 1.9-.8 3.9.6 3.9 2.7 0 .5-.2 1.1-.5 1.5-.2.4-.6.8-1.1 1v.3c-.1.6-.1 1.7-.1 3.9v4.7l-.1.1-6.6 6.6-6.4 6.4ZM46.8 89.7l5-5c2-2 3.3-3.3 4.1-4 .4-.4.7-.6.9-.7h.1c.5.2 1.2.2 1.7 0 .6-.2 1.3-.6 1.7-1.2l-.3-.2.2.1c.8-1.3.3-3.2-1-3.9-.5-.2-1-.3-1.5-.3s-1.1.1-1.4.4c-.5.4-.9 1-1.1 1.7-.2.6-.2 1.2.1 1.8-.1.2-.3.4-.7.8-.7.8-2 2.1-4.2 4.3L45 88.8l-.1.1v9.3l-.3.2c-.4.2-.8.6-1.1 1-.3.4-.5.9-.5 1.4 0 1.6 1.3 2.9 2.8 2.9 1.6 0 2.8-1.2 2.8-2.8 0-1.1-.5-2-1.5-2.5l-.3-.1v-8.6ZM33.1 77.6s0-.1-.1-.1h-4.1l-.1-.1-3.9-3.9-3.8-3.8h-7.6l-1.8 1.8-1.1 1.1c-.19.19-.3.34-.38.45a1.343 1.343 0 0 1-.12.15c-.1 0-.1.1-.1.1h.1c.6 1.7-.9 3.6-2.7 3.6-2.6 0-3.8-3.2-1.9-4.9.3-.3.9-.5 1.4-.6.4-.1 1-.1 1.4.1.043 0 .067 0 .089-.008.03-.01.054-.035.111-.092l1.7-1.7 2.1-2.1.1-.1h9.4l.1.1 3.8 3.9 3.7 3.7h3.5c.05-.1.125-.2.2-.3.075-.1.15-.2.2-.3l.5-.5c.3-.2.6-.4.9-.5.263-.066.482-.045.716-.023.121.011.247.023.384.023.6.1 1.2.3 1.6.6.4.4.7.8.9 1.4.8 2.8-2.4 4.8-4.5 2.9-.2-.2-.4-.4-.5-.6-.05-.05-.075-.1-.1-.15a.523.523 0 0 0-.1-.15ZM5.2 55.5l.2-.3H33l3.7 3.7 3.8 3.9.1.1h18l.1-.1 1.7-1.7 1.5-1.5.9.1c.7.1 1.3 0 1.8-.2s.9-.6 1.1-1.2c.3-.5.4-1.1.3-1.6-.1-.6-.3-1.1-.7-1.5-1.8-1.9-4.9-.8-4.8 1.8 0 .2 0 .4.1.6 0 .05.025.125.05.2.025.075.05.15.05.2 0 0-.1.1-.1.2-.2.3-.6.7-1.2 1.3L57.9 61H41.5l-3.8-3.8-3.9-3.9-.1-.3H6.9c-.612 0-1.039-.046-1.312-.076A3.19 3.19 0 0 0 5.3 52.9c-.2-.5-.5-.8-1-1.1-.5-.3-1-.5-1.6-.5-.4 0-.7 0-1 .2-.3.1-.6.3-.9.6l.3.4-.1-.1-.3-.3a9.576 9.576 0 0 1-.183.175C.285 52.49.079 52.682 0 53v1.1c0 .4 0 .8.1 1.1.1.3.3.6.6.8 1.3 1.3 3.5 1.1 4.5-.5Zm159.699 35.8.6.3c.4.3.8.6 1.1.8.5.6.6 1.5.4 2.3-.2.8-.6 1.6-1.4 1.9-.1.1-.2.1-.2.1v2.7l-.1.1-2.9 2.9-2.7 2.7.1.3c.6 1.7-.9 3.6-2.7 3.6-2.6 0-3.8-3.1-1.9-4.9.3-.2.5-.3.8-.4.3-.1.6-.2.9-.2h.8c.1 0 .3 0 .4.1.1 0 .2-.1.4-.3.207-.207.448-.431.731-.693v-.001h.001v-.001h.001c.4-.372.882-.82 1.467-1.405l2.7-2.7v-1.8s-.1-.1-.2-.1c-.5-.1-.9-.6-1.2-1-.3-.4-.5-1-.5-1.5s.2-1.1.5-1.5c.3-.5.7-.9 1.2-1.1.1-.05.2-.075.3-.1.1-.025.2-.05.3-.1.117 0 .235-.034.332-.063a.707.707 0 0 1 .168-.037c.2 0 .4 0 .6.1Zm-7.599 3.9c1.6-1.1 1.7-3.3.2-4.5a7.04 7.04 0 0 1-.193-.136c-.208-.15-.398-.287-.707-.364-.3-.1-.7-.1-1.2 0l-.9.1-6.3-6.4-.001-.001c-2.899-2.9-4.499-4.5-5.399-5.5-.4-.5-.7-.8-.8-.9.1-.2.1-.4.1-.6v-.8c-.1-.5-.3-1-.6-1.4l-.4.3.1-.1.3-.3c-.3-.3-.7-.6-1.1-.7-.2-.1-.4-.2-.6-.2-.2-.1-.4-.1-.6-.1-.1 0-.225.026-.35.05-.125.026-.25.05-.35.05-.152 0-.364.118-.544.217l-.086.047a1.589 1.589 0 0 1-.07.037l-.6.6c-.066.1-.133.189-.2.278a3.849 3.849 0 0 0-.4.622c-.1.3-.2.6-.2 1 0 1.8 1.8 3.3 3.6 2.7l.3-.1 6.3 6.3 6.3 6.3-.1.5c-.4 2.5 2.4 4.4 4.5 3Zm-6.5 18.4h-.5v.1h.5v13l.4.2c1.7.8 2 3.1.7 4.4-.4.4-.8.7-1.3.8-.5.1-1 .1-1.5-.1-2.4-.7-2.6-3.9-.5-5.1l.3-.2v-26l-.4-.2c-.3-.2-.5-.4-.7-.6-.06-.09-.119-.17-.176-.247-.134-.181-.254-.343-.324-.553l.1-.1.3-.2-.4.2c-.033-.1-.078-.2-.122-.3-.089-.2-.178-.4-.178-.6 0-.4.1-.7.2-1 .2-.6.6-1.2 1.1-1.5.4-.3.9-.5 1.4-.5.4-.1.9.1 1.4.3.4.3.8.7 1.1 1.1.3.4.5.9.5 1.4 0 .5-.2 1-.5 1.4-.3.4-.7.9-1.1 1.1l-.3.2v13Zm25.399-35.5c-.2-.5-.6-1-1-1.3-.7-.5-1.5-.5-2.3-.3-.7.2-1.4.7-1.8 1.4l-.1.3h-7.5l-2-2.1-2.2-2.2-.1-.1h-5.7l-.2-.3-.036.036c-.6-1.027-1.906-1.597-3.147-1.452a3.496 3.496 0 0 0-.064.008l-.053.008c-.153 0-.364.117-.544.216-.056.031-.109.06-.156.084l-.6.6c-1.9 2.2.4 5.6 3.1 4.4.5-.2 1-.7 1.3-1.2l-.1-.2.1.1.2.1.3-.4h4.7l2 2.1 2.2 2.2.1.1h8.3l.2.3c.3.5.7.9 1.2 1.2.5.3 1.1.4 1.7.3.5-.1 1.1-.4 1.5-.8.4-.4.7-.9.8-1.5.2-.6.1-1.1-.1-1.6Zm-5.1-.2.5.2-.3-.1-.2-.1ZM112.1 99.6l-.1.1-6.8 6.9-6.5 6.5.1.4c.6 1.9-1.1 3.7-3 3.5-1.3-.2-2.1-1-2.4-2-.3-1 0-2.2 1-3a8.08 8.08 0 0 0 .192-.135l.001-.001c.209-.15.398-.287.707-.364.256-.064.472-.046.725-.025.142.012.295.025.475.025l.8.1 6.4-6.4 6.4-6.4V95l-.4-.3c-1-.6-1.6-1.6-1.4-2.8.1-.5.3-1 .6-1.4.3-.4.7-.7 1.1-.9 1.274-.49 2.74.076 3.457 1.229l.043-.03c.3.7.3 1.6.1 2.3-.2.7-.7 1.3-1.4 1.6v.1c-.1.3-.1.9-.1 2.1v2.7ZM174.301 86l.1-.1c-.5-1-1.6-1.4-2.6-1.4s-2 .5-2.4 1.6v.1h-7.2l-1.6-1.7a17.966 17.966 0 0 1-.75-.81c-.169-.19-.319-.36-.45-.49a.558.558 0 0 1-.082-.11c-.033-.052-.056-.09-.118-.09 0-.05.025-.1.05-.15.025-.05.05-.1.05-.15 0-.1.025-.225.05-.35.025-.125.05-.25.05-.35 0-1.2-.7-2.1-1.8-2.6-.5-.2-.9-.3-1.3-.3s-.8.2-1.2.5c-.4.3-.8.6-1 1.1-.2.4-.3.9-.3 1.4 0 .9.5 1.7 1.2 2.1.7.5 1.6.7 2.4.4l.2-.1.1.1c.028.028.064.056.105.089.107.083.251.195.395.41.15.1.3.25.475.426a7.4 7.4 0 0 0 .625.575l1.8 1.8.1.1h8.1l.2.4c.5 1 1.5 1.5 2.6 1.5.3 0 .6 0 .9-.2.3-.1.6-.4.9-.7l.1.1c.5-.5.8-1 .9-1.6.1-.6 0-1.2-.3-1.7l-.3.2Zm-4.9.1.5.2h-.1l-.4-.2Zm-45.6 4.9v.3l.2 10.9v11.2l-.2.1-1.5 1.4c-.236.236-.442.426-.61.581-.259.239-.43.398-.49.519v.1c.5 1 .2 2-.4 2.8-.6.8-1.6 1.3-2.7 1.1-.7-.1-1.2-.5-1.6-1-.3-.5-.6-1.1-.6-1.8 0-1.8 1.9-3.3 3.6-2.7.1.1.2.1.2.1.1 0 .2-.1.4-.3.064-.128.209-.255.383-.409.099-.087.208-.182.317-.291l1.2-1.1V91.9l-2-1.8c-1.2-1.1-3.8-3.5-5.8-5.4-1.5-1.4-2.4-2.2-3-2.7-.2-.3-.4-.4-.5-.4-.5.3-1.2.3-1.8.1-.7-.2-1.3-.6-1.7-1.1-.128-.128-.174-.298-.217-.456a1.342 1.342 0 0 0-.083-.244c-.1-.3-.1-.5-.1-.8 0-.5.1-1.1.3-1.5.1-.2.2-.4.4-.5.1-.05.2-.125.3-.2.1-.075.2-.15.3-.2 1.4-.9 3.3-.4 4 1.1l-.3.1-.2.1.5-.2c.3.7.3 1.4.1 2.1 0 .1 0 .1.1.2.2.3.5.6 1 1.1.644.644 1.595 1.544 2.817 2.7l.002.002.002.002.011.01c.481.456 1.005.95 1.568 1.486l5.9 5.5.2.1Zm-10.4 16.3 2.7-2.4h.8c.8 0 1.3-.1 1.8-.5 1.1-1 1.4-2.3.8-3.6-.2-.5-.6-.8-1-1.1-.4-.2-1-.4-1.5-.4-.4 0-.7 0-1 .2-.3.1-.6.4-.9.7-.4.4-.6.7-.7 1.2-.1.5 0 1.1.2 2a.11.11 0 0 1-.019.064l-.003.004-.006.007-.027.029-.008.008c-.037.038-.087.088-.137.188-.126.189-.332.378-.592.617-.152.14-.323.298-.508.483-.8.8-2.1 2-2.8 2.6l-1.3 1.2-.2.1v2.7c-.5.2-.9.6-1.2 1-.3.5-.5 1-.5 1.6 0 .7.3 1.3.6 1.8.4.5.9.9 1.6 1 .8.2 1.7-.1 2.3-.7.6-.5 1.1-1.3 1.1-2.1 0-.5-.2-1-.5-1.5-.3-.4-.7-.8-1.1-1.1-.1-.1-.2-.1-.2-.1v-1.7l2.3-2.3Zm16.449 13.9c.05.025.1.05.15.1.2.2.4.4.6.7 1 1.2.9 2.7.1 3.6-.7 1-2.1 1.4-3.5.7-1-.5-1.4-1.5-1.4-2.5s.4-2 1.4-2.5l.3-.2V103c0-.426-.05-.701-.079-.86-.012-.065-.021-.111-.021-.14-.2-.1-.4-.2-.5-.3-.129-.065-.216-.171-.316-.292-.055-.066-.113-.137-.184-.208-1.2-1.4-.6-3.6 1.1-4.3l.1.3.1.2-.2-.5c.3-.2.6-.3 1-.3.3 0 .6.1 1 .3.5.2.9.5 1.2.9.281.28.387.737.481 1.204L131.2 99c.1 1.2-.4 2.3-1.4 2.9-.2.1-.3.2-.3.2v10.2c0 2.472.041 4.302.07 5.641v.002c.017.772.03 1.381.03 1.857 0 .456.043.785.072 1.014.016.122.028.216.028.286.05.05.1.075.15.1Zm18.651 14.3c-.3-.1-.7-.1-1.2 0l-.8.1-1.2-1.2-1.2-1.2V90.5l-.1-.1-3.3-3.3h-.001v-.001h-.001v-.001h-.001v-.001h-.001c-1.597-1.598-2.397-2.397-2.796-2.897-.2-.2-.2-.3-.2-.4v-.1c.4-1.2 0-2.3-.8-3-.8-.7-2-1-3.1-.4-1 .5-1.5 1.5-1.5 2.7 0 .4 0 .7.2 1 .1.3.4.6.6.8.4.4.7.6 1.2.8.4.1 1 .1 1.7 0 0 0 .1 0 .1.1.2.1.4.3.7.6.337.28.737.656 1.2 1.09.361.34.761.715 1.2 1.11l3 3v42.6l.1.1 1.5 1.5.9.9c.117.117.2.234.268.331.049.069.09.127.132.169v.1s0 .1-.1.2c-.4 1.2.1 2.3 1 3 .9.6 2.1.8 3.2.2 1.7-1.1 1.8-3.3.2-4.6-.2-.2-.5-.4-.9-.5Zm-11.201-8.1.2.1c.4.2.9.6 1.1 1.1.3.4.5 1 .5 1.5 0 .6-.3 1.1-.6 1.6s-.8.9-1.3 1.1c-.3.1-.6.2-.9.2-.238 0-.475-.063-.762-.138l-.111-.03-.127-.032c-1.9-.8-2.4-3-1.1-4.5.2-.2.4-.4.6-.5.05-.05.1-.075.15-.1.05-.025.1-.05.15-.1v-.3c.1-.4.1-1.2.1-2.4V94.6l-6.8-6.9-7-7-.1-.1V76c0-1.368-.043-2.27-.072-2.897a18.302 18.302 0 0 1-.028-.803V72c-.2-.1-.4-.2-.5-.3-.129-.065-.217-.17-.317-.292a2.611 2.611 0 0 0-.183-.208c-.5-.7-.7-1.6-.5-2.4.2-.8.7-1.5 1.5-1.9l.2.4-.1-.3-.1-.2c.6-.3 1.3-.4 1.9-.2.6.1 1.1.5 1.6 1.1.6.7.6 1.7.4 2.4-.2.7-.7 1.5-1.5 1.8l-.2.1v7.7l6.8 6.9 7 7 .1.1v33.7ZM6.3 42.1c-.3-.1-.5-.3-.8-.6-.3-.2-.6-.5-.6-.8-.2-.3-.2-.6-.2-1 0-1.2.5-2.2 1.5-2.7.4-.2 1.1-.3 1.6-.2.5 0 1.1.2 1.5.6.8.8 1.1 1.9.8 2.9l-.1.3 2.4 2.8.1-.1 2.8 2.8h7.3l.1-.3c.4-.7 1.1-1.2 1.8-1.4.8-.2 1.6-.2 2.3.3.4.3.8.8 1 1.3.2.5.3 1.1.2 1.6-.1.5-.4 1-.8 1.4-.4.4-.9.7-1.4.8l-.1-.5v.1l.1.4c-.6.1-1.2 0-1.7-.3-.5-.2-1-.7-1.2-1.2l-.2-.3h-8.3l-.1-.1-3.1-3.1a58.982 58.982 0 0 0-1.532-1.469 33.049 33.049 0 0 1-.769-.731c-.19-.19-.34-.3-.45-.38a1.331 1.331 0 0 1-.15-.12c-.1.1-.2.1-.3.1-.2.1-.4.1-.7.1-.4 0-.7-.1-1-.2ZM109.8 7.2l.4.2v17.1l.1.1 3.1 3.1 2.9 2.9V49l-1.1 1.1c-.5.5-.8.8-1 .9 0 0-.1 0-.1.1-.1-.1-.3-.1-.5-.1-.1 0-.225-.025-.35-.05a1.961 1.961 0 0 0-.35-.05c-.3 0-.6 0-.9.2-.3.1-.6.3-.8.6-.062.062-.124.119-.183.175-.232.216-.438.407-.517.725-.1.3-.2.7-.2 1.1 0 .4 0 .8.2 1.1.1.3.4.6.7.9.3.3.6.5.9.6.3.1.6.2 1 .2 1.9 0 3.1-1.8 2.7-3.6v-.3c.1-.2.4-.5 1-1.1l1.3-1.3.1-.1V29.7l-.1-.1-3.1-3.1-2.9-2.9V7.5l.3-.1c.5-.2.9-.7 1.2-1.4.2-.4.3-.7.4-1 0-.3-.1-.7-.2-1-.2-.5-.6-1-1-1.4-.4-.3-1-.6-1.5-.6-.284 0-.617.1-.93.194a8.354 8.354 0 0 1-.37.106c-2.1.9-2.2 3.8-.2 4.9Zm2.6.2-.2-.5.1.2.1.3Zm5.799 6-.4-.3c-1.9-1.2-1.9-3.8 0-4.8l.3.4-.2-.4c.5-.3 1.1-.4 1.6-.3l.083.016c.482.096 1.039.206 1.417.584 1.6 1.3 1.4 3.6-.3 4.6l-.4.3v11.1l2.2 2.2 2.4 2.4.1.1v9.4c0 2.89.043 4.875.073 6.236v.001c.015.71.027 1.251.027 1.663 0 .345.048.595.077.75.013.069.023.119.023.15.4.2.8.6 1.1 1 .3.4.5 1 .5 1.6 0 .6-.1 1.1-.3 1.5-.3.4-.6.8-1.1 1l-.2-.3.1.3c-.6.3-1.1.4-1.7.3-.5-.1-1-.4-1.5-.8-.3-.3-.6-.6-.7-.9-.2-.3-.2-.7-.2-1.1 0-1.2.5-2.2 1.6-2.6l.2-.1V30l-2.3-2.3-2.4-2.4-.1-.1V13.4Zm-25.4-3 .3.1v15.2l.1.1 2.8 2.8 2.6 2.6-.1.5c-.1.3-.1.6-.1.9 0 .3.1.6.3.9 1.1 2.4 4.501 2 5.301-.5.3-1.1-.2-2.2-.9-2.9-.7-.6-1.9-1-2.9-.4 0 0-.1-.1-.3-.2-.243-.182-.559-.511-1.038-1.01-.31-.323-.69-.718-1.162-1.19L95.1 25v-7.3c0-3.7 0-5.5.1-6.5 0-.4 0-.6.1-.7.1-.05.175-.1.25-.15.075-.05.15-.1.25-.15.2-.1.4-.3.5-.5 1.1-1.3.7-3.5-.9-4.3-.9-.4-1.7-.5-2.4-.2-1.1.5-1.7 1.5-1.7 2.6 0 1 .4 2.1 1.5 2.6Zm9-4.1-.4-.2c-2.1-1.1-1.9-4.2.1-5.1 1.193-.46 2.555-.16 3.312.744l.088-.044h.1c.3.5.4 1.1.4 1.7 0 .6-.2 1.2-.6 1.7-.1.2-.3.4-.5.5-.1.05-.175.1-.25.15-.075.05-.15.1-.25.15 0 .03-.01.08-.023.15-.03.154-.077.404-.077.75v16.6l3.5 3.5 3.6 3.6.1.1v2.8c0 .8.044 1.333.074 1.689.015.178.026.31.026.41v.2c.6.3 1.1.8 1.4 1.4.3.7.4 1.4.2 2.1-.8 2.5-4 2.7-5.2.4-.05-.1-.075-.2-.1-.3-.025-.1-.05-.2-.1-.3-.1-.2-.1-.4-.1-.6 0-.5.2-1 .5-1.4.3-.4.7-.9 1.1-1.1l.3-.2v-4.1l-3.5-3.5-3.6-3.6-.1-.1V6.3ZM70.3 39.8c1.6 0 3-1.3 3-2.9 0-.2-.1-.5-.2-.7a4.027 4.027 0 0 1-.072-.156c-.08-.18-.175-.391-.328-.544-.3-.4-.7-.9-1.1-1.1-.4-.2-.8-.3-1.2-.3-.3 0-.7 0-1 .2 0 0-.1-.1-.2-.1-.3-.2-.7-.6-1.4-1.3l-1.6-1.6V19.5l1-1 .6-.6c.1-.05.15-.1.188-.138.037-.037.062-.062.112-.062 0 0 .1 0 .1.1.5.2 1.1.2 1.6 0s1.1-.5 1.5-1c.9-1 .8-2.4.1-3.3-.6-.9-1.8-1.5-3.1-1.1-1.1.3-1.8 1.2-1.9 2.4v.8c0 .1 0 .2.1.3 0 .1 0 .1.1.2-.1.2-.4.5-.9 1l-1.2 1.2-.1.1v13.8l.1.1 1.8 1.8c.9.9 1.3 1.3 1.5 1.6.058.057.082.082.093.111a.273.273 0 0 1 .007.089v.2c-.7 1.9.6 3.7 2.4 3.7Zm-1.1-5.3.2.3v.1l-.2-.4Zm-55.8.7c-1.6.5-3.3-.7-3.5-2.4-.1-1.2.5-2.4 1.5-3 .1-.05.2-.075.3-.1.1-.025.2-.05.3-.1a1.2 1.2 0 0 0 .33-.063.711.711 0 0 1 .17-.037c.4 0 .9.2 1.3.4.4.3.8.6 1.1.9.2.3.3.6.4.9.063.189.046.378.025.617-.012.14-.025.298-.025.483l-.1.8 2.5 2.5 2.5 2.5h14.1l.1.1-.4.4.4-.3 7 7 6.8 6.9h2c.646 0 1.083-.042 1.393-.071.17-.017.3-.03.406-.03h.1c0-.12.074-.205.154-.297a.973.973 0 0 0 .147-.202c.064-.13.17-.217.291-.316.067-.055.138-.113.209-.184 1.1-1 2.5-.8 3.4-.1.9.7 1.4 2 .9 3.3-1 2.3-4.1 2.3-5.2.1l-.1-.2h-4.5l-.1-.1-7-7-6.9-6.9H19.2l-.1-.1-2.8-2.8-2.5-2.6-.3.1-.2-.5.1.4Zm5.7-4.5c.4.4.8.7 1.4.9.3.1.6.2.9.1.3 0 .6-.1.9-.3.3-.1.5-.3.7-.5.2-.2.4-.4.6-.7l-.3-.2h.1l.3.2.2-.4h9.5l6.1 6.1 6.1 6.1-.1.9c0 .13-.008.253-.014.372-.019.336-.035.632.113.928.08.318.285.51.517.725.06.056.121.113.183.175.3.3.5.5.8.6.3.1.6.2 1 .2 1.2 0 2.2-.6 2.7-1.6.2-.4.3-.8.3-1.2 0-.4-.1-.8-.3-1.2-.3-.7-.9-1.1-1.6-1.4-.6-.2-1.2-.3-1.8 0 0 0-.1 0-.1-.1-.2-.1-.5-.4-1-.9-1-.9-2.6-2.5-5.2-5.2L34.5 28l-.1-.1H23.9l-.2-.3c-.7-1.3-2.3-1.9-3.6-1.3-1.1.5-1.7 1.7-1.6 2.9.1.5.3 1 .6 1.5ZM66.7 6.6c-.4 0-.7-.1-1-.2-.3-.1-.6-.3-.8-.7-.6-.6-1-1.3-1-2s.4-1.4 1-2c.3-.3.6-.6.9-.7.198-.066.438-.045.693-.023.133.011.27.023.407.023 1.8.2 3.1 1.8 2.5 3.7l-.1.3 3.6 3.6 3.8 3.8.1.1v17l1.4 1.4c.456.456.785.742 1.014.942.123.106.217.188.286.258l.1.1c.5-.2 1-.2 1.5-.1s1 .3 1.4.6c1.284 1.184 1.203 3.051-.146 4.253L82.4 37c-.2.2-.5.4-.8.5-.193.065-.387.046-.608.024a3.93 3.93 0 0 0-.392-.024c-.7-.1-1.3-.3-1.7-.7-.4-.4-.7-.9-.8-1.4-.2-.5-.2-1.1 0-1.6v-.1l-.1-.1c-.1-.2-.5-.6-1.3-1.4l-1.6-1.6-.1-.1v-17l-3.7-3.7c-1.2-1.2-2.1-2.1-2.8-2.7-.2-.15-.35-.3-.475-.425S67.8 6.45 67.7 6.4c0 .1-.1.1-.2.1-.3.1-.5.1-.8.1Zm-21.1 5.9c.2-.1.2-.1.3-.1.1 0 .2.1.3.3l.7.7 1 1v14.2h-.1c-.8.3-1.3.9-1.6 1.7-.2.7-.2 1.6.2 2.3.6 1.2 2 1.6 3.1 1.4 1.1-.2 2.2-1.1 2.2-2.5 0-1.1-.5-2.2-1.4-2.6l-.3-.2V13.6l-.1-.1-1.2-1.2-1.2-1.3.1-.9c0-.18.013-.346.025-.5.022-.275.04-.508-.025-.7-.079-.318-.285-.51-.516-.725A6.998 6.998 0 0 1 46.9 8c-.9-.9-2-1.2-3.1-.7-.5.2-.9.5-1.2.9-.3.4-.4.9-.5 1.4-.2 1.9 1.7 3.5 3.5 2.9Zm9.7-4.3-.5-.5a6.428 6.428 0 0 0-.102-.147c-.16-.228-.298-.422-.298-.753-.065-.194-.046-.388-.024-.608.011-.121.024-.25.024-.392.1-1.3.8-2.2 1.9-2.5 1.5-.4 2.8.4 3.3 1.5.6 1.1.3 2.6-1 3.5l-.4.3v27.5l3.5 3.5-.2.2 3.4 3.4.7-.1.1.5v-.5c1-.1 1.8.1 2.4.6.6.5.9 1.3.9 2.2 0 .4 0 .7-.1 1-.1.15-.2.275-.3.4-.1.125-.2.25-.3.4-.6.6-1.3.9-2.1.9s-1.5-.3-2.1-.9c-.3-.3-.5-.5-.6-.9-.065-.195-.046-.475-.024-.784.012-.167.024-.341.024-.516l.1-1-3.7-3.7-3.9-3.9-.1-.1V10.1c0-.691-.048-1.096-.077-1.346A2.229 2.229 0 0 1 55.8 8.5c-.2-.1-.4-.2-.5-.3ZM29.7 20.9l-.3-.1h.1l.2.1Zm-5.1-.2c1 2.2 4.1 2.4 5.1.2l.2-.3H37l1.5 1.5 1.4 1.4-.1.3c-.3.9 0 1.8.5 2.4.5.7 1.3 1.2 2.2 1.2.5 0 1.1-.2 1.6-.5s.8-.8 1.1-1.3c.5-1.2.1-2.4-.9-3.2a5.779 5.779 0 0 1-.193-.136c-.209-.15-.398-.287-.707-.364-.3-.1-.7-.1-1.2 0l-1 .1-1.5-1.5-1.7-1.7-.1-.1h-8c0-.05-.025-.075-.05-.1-.025-.025-.05-.05-.05-.1-.1-.1-.2-.3-.3-.5-.07-.14-.188-.23-.287-.306-.043-.034-.083-.064-.113-.094l-.2-.2-.1-.1s-.1-.1-.3-.1c-.2-.2-.4-.2-.5-.2-.5-.1-1.1-.1-1.6.1l.08.2-.18-.3c-.8.3-1.4.8-1.7 1.5-.3.7-.3 1.5 0 2.2Zm99.2 2.3c-.6-.1-1.2-.4-1.6-.9-.4-.5-.7-1.1-.7-1.7 0-.9.3-1.7.9-2.2.6-.5 1.5-.7 2.4-.6l.8.1 2.3-2.3 2.2-2.3-.1-.7c-.2-1.3.2-2.4 1.2-3l.3.4-.2-.4c.4-.2.9-.4 1.4-.4.5 0 1 .1 1.4.3.9.5 1.4 1.5 1.4 2.5s-.4 2-1.4 2.5c-.4.2-.9.3-1.3.3s-.8-.1-1.1-.2a.594.594 0 0 1-.131.094 1.16 1.16 0 0 0-.269.206c-.4.3-1.1 1-2.1 2-1.1 1.1-1.8 1.8-2.1 2.2-.1.1-.2.2-.2.3.4 1 .2 2-.4 2.7-.6.7-1.6 1.3-2.7 1.1ZM74.2 74.7l2.3-7h11.1l2.3 7h7L86.2 43.9h-8.4L67.2 74.7h7ZM81.9 51h.2l3.8 11.7h-7.8L81.9 51Zm15.8-7.1h6.499v30.8h-6.5V43.9Z" fill="url(#a)"/><defs><linearGradient id="a" x1="-30.581" y1="144.633" x2="136.029" y2="-5.777" gradientUnits="userSpaceOnUse"><stop offset=".438" stop-color="#402483"/><stop offset="1" stop-color="#E52B0E"/></linearGradient></defs></svg>