<svg width="201" height="160" fill="none" xmlns="http://www.w3.org/2000/svg"><path fill-rule="evenodd" clip-rule="evenodd" d="M86.21.678c-1.262 1.11-1.27 2.752-.019 3.93.589.555 2.044.817 2.67.481.377-.202.75.09 2.986 2.339l2.555 2.57v18.658l4.048 4.056 4.048 4.057v4.398l-.661.294c-.826.366-1.308 1.273-1.308 2.458 0 .744.137 1.049.744 1.658.632.634.897.746 1.758.746 1.163 0 1.972-.446 2.433-1.339.659-1.279.112-2.912-1.205-3.595l-.666-.346v-4.932l-4.049-4.057-4.048-4.057V9.339l-2.626-2.64c-2.574-2.59-2.621-2.655-2.424-3.348C91.171.817 88.19-1.066 86.21.678Zm29.528.412c-1.976.82-2.103 3.727-.207 4.751l.754.408v20.87l4.158 4.166 4.158 4.167-.002 2.637-.001 2.636-.651.371c-.76.434-1.533 1.607-1.534 2.33 0 .277.145.787.323 1.132 1.142 2.214 4.16 2.014 4.931-.328.412-1.253-.348-2.806-1.589-3.246-.339-.12-.383-.472-.383-3.053v-2.918l-4.158-4.167-4.158-4.166V16.428c0-9.98.011-10.254.428-10.387.236-.075.679-.434.985-.8.666-.793.759-2.31.196-3.173-.663-1.015-2.112-1.451-3.25-.98Zm-41.779.716c-1.297 1.301-1.306 2.547-.027 3.83.614.615.89.733 1.724.733.547 0 1.062-.11 1.145-.244.09-.147 1.888 1.496 4.499 4.114l4.348 4.358V34.13l1.87 1.885c1.778 1.792 1.859 1.915 1.639 2.496-.307.81.039 2.085.749 2.754.361.34.895.545 1.599.613.906.087 1.154.019 1.743-.478 1.324-1.117 1.405-2.912.184-4.063-.598-.564-2.05-.83-2.681-.49-.376.2-.667-.006-2.22-1.572l-1.789-1.804V13.946l-4.382-4.4-4.381-4.399.243-.7c.54-1.556-.603-3.122-2.409-3.296-1.02-.099-1.147-.054-1.854.655Zm51.369.712c-1.942.848-2.044 3.628-.169 4.64l.755.408V27.12l3.501 3.508 3.501 3.507v21.531l-1.477 1.469c-1.133 1.127-1.553 1.42-1.805 1.26-.181-.116-.699-.211-1.152-.213-.636-.003-1.011.168-1.642.748-.741.682-.817.857-.817 1.883s.076 1.201.817 1.883c.678.623.986.751 1.803.751 1.729 0 2.955-1.675 2.49-3.402-.164-.61-.067-.77 1.35-2.2l1.528-1.543V33.475l-3.502-3.507-3.501-3.507V7.52l.648-.27c.425-.177.814-.612 1.13-1.268.447-.926.46-1.065.173-1.89-.351-1.01-1.467-1.9-2.367-1.886-.313.005-.882.145-1.264.312ZM63.862 3.755c-1.042.295-1.677 1.125-1.793 2.342-.087.91-.02 1.158.478 1.752.32.38.773.753 1.009.828.42.133.428.45.428 16.314v16.177l4.458 4.47 4.46 4.468-.112 1.39c-.105 1.318-.078 1.422.546 2.048 1.172 1.176 2.785 1.178 3.904.006.521-.546.64-.86.64-1.698 0-1.842-1.202-2.84-3.143-2.61l-1.049.125-4.205-4.223-4.205-4.222.007-15.98.007-15.98.71-.48c2.558-1.729.82-5.566-2.14-4.727Zm42.028 2.164c-2.034.845-2.115 3.986-.124 4.868l.68.301-.014 8.77-.014 8.768 3.172 3.196 3.171 3.195-.24.886c-.2.739-.175 1.023.15 1.711 1.035 2.188 4.24 1.875 4.945-.483.604-2.024-1.745-4.054-3.562-3.079-.406.218-.762-.066-3.487-2.796l-3.035-3.038v-8.605c0-8.348.012-8.609.428-8.74.235-.076.678-.436.984-.8 1.042-1.243.609-3.317-.834-4.004-.815-.388-1.529-.436-2.22-.15ZM49.65 8.206c-.977.444-1.462 1.108-1.577 2.16-.202 1.847 1.618 3.374 3.342 2.803.692-.229.75-.197 2.045 1.118l1.333 1.354v16.863l-.493.19c-1.372.532-2.068 2.392-1.388 3.71 1.18 2.29 4.944 1.474 4.944-1.072 0-1.142-.494-2.086-1.316-2.512l-.653-.339V15.027l-1.4-1.391-1.399-1.391.114-1.264c.11-1.204.08-1.303-.624-2.05-.859-.914-1.928-1.179-2.928-.725Zm84.691 1.063a2.639 2.639 0 0 0-.013 4.586l.777.46V28l2.735 2.737 2.736 2.738v20.48l-.602.256c-.954.407-1.477 1.293-1.477 2.503 0 .943.089 1.142.817 1.81.921.848 1.922.988 3.01.424.928-.481 1.315-1.17 1.315-2.338 0-1.11-.688-2.224-1.541-2.496-.417-.133-.428-.407-.428-10.607V33.035l-2.736-2.738-2.735-2.737V14.315l.777-.46c1.606-.95 1.751-3.059.296-4.287-.734-.62-2.133-.763-2.931-.299Zm15.299 1.465c-.9.55-1.281 1.525-1.104 2.824l.141 1.032-2.77 2.785-2.77 2.786-1.131-.117c-1.935-.2-3.181.846-3.181 2.672 0 1.052 1.105 2.277 2.214 2.454 1.992.318 3.742-1.924 2.832-3.63-.17-.317.32-.91 2.79-3.382 2.337-2.337 3.068-2.95 3.324-2.786.495.316 1.692.259 2.415-.116 1.718-.891 1.689-3.671-.049-4.639-.734-.409-1.937-.357-2.711.117Zm-71.991 3.339c-1.006.285-1.663 1.116-1.793 2.269-.064.574-.01 1.123.128 1.29.185.223-.083.61-1.175 1.696l-1.415 1.407v15.372l2.078 2.093c2.02 2.034 2.073 2.112 1.877 2.799-.469 1.637.772 3.348 2.428 3.348 1.555 0 2.808-1.2 2.808-2.69 0-.688-.84-1.943-1.539-2.298-.642-.325-1.723-.357-2.182-.064-.254.163-.785-.247-2.352-1.81l-2.024-2.02V21.393l1.276-1.268c1.208-1.198 1.309-1.253 1.86-1 .812.37 2.139-.056 2.866-.923 1.617-1.928-.377-4.828-2.841-4.13Zm76.399 4.386c-.862.76-1.199 1.903-.84 2.856.212.564.087.729-2.594 3.412l-2.817 2.82v16.57l-.643.333c-.93.482-1.326 1.174-1.326 2.312 0 1.603 1.067 2.635 2.727 2.635 1.049 0 2.27-1.11 2.447-2.222.173-1.095-.439-2.329-1.379-2.779l-.732-.35v-16.06l2.681-2.68c2.087-2.087 2.753-2.634 3.009-2.47.18.116.74.212 1.243.214.74.002 1.063-.138 1.696-.736.653-.62.781-.89.781-1.658 0-2.507-2.458-3.777-4.253-2.197Zm-124.32.988c-1.505.52-2.168 1.983-1.56 3.444.85 2.04 3.783 2.178 4.727.222l.343-.709 4.319-.005 4.318-.005 1.87 1.888 1.87 1.888-.263.727c-.534 1.482.892 3.402 2.525 3.4.976-.002 2.073-.756 2.464-1.695.441-1.059.116-2.218-.852-3.034-.628-.531-.827-.58-1.939-.479l-1.238.113-1.937-1.953-1.937-1.952h-4.655c-3.598 0-4.655-.063-4.655-.277 0-.223-.984-1.48-1.159-1.48-.026 0-.35-.087-.72-.193-.454-.13-.946-.098-1.521.1Zm136.239-.065c-.696.353-1.539 1.608-1.539 2.29 0 .293.109.736.243.986.218.41-.193.89-4.268 4.982l-4.509 4.527v21.076l-3.887 3.895-3.887 3.895-.67-.254c-1.445-.547-3.125.59-3.305 2.235-.289 2.645 2.926 3.969 4.649 1.915.526-.628.575-.83.475-1.94l-.112-1.24 3.915-3.924 3.916-3.924V32.77l4.285-4.292 4.285-4.291 1.131.103c1.282.116 1.954-.158 2.63-1.072.498-.672.571-1.996.153-2.779-.596-1.117-2.346-1.644-3.505-1.056ZM22.683 29.956c-1.031.462-1.637 1.545-1.519 2.715.116 1.14.78 1.927 1.918 2.269.683.205.947.178 1.654-.169.464-.227 1.04-.73 1.28-1.117l.438-.705 5.69-.009 5.692-.008 7.11 7.136 7.111 7.136-.075 1.317c-.071 1.256-.038 1.354.69 2.085.63.632.925.766 1.682.766 1.148 0 2.083-.54 2.514-1.45.42-.89.42-1.476-.007-2.302-.618-1.2-2.323-1.865-3.356-1.31-.319.17-1.615-1.03-7.698-7.135l-7.315-7.34-6.019-.002-6.02-.002-.361-.638c-.71-1.25-2.184-1.786-3.409-1.237Zm147.274 1.557c-.748.75-.77.818-.658 2.06l.117 1.284-2.493 2.495-2.493 2.495-.005 5.05-.006 5.048-.707.33c-2.033.947-1.765 4.116.41 4.836.974.323 2.388-.158 3.017-1.026.839-1.158.312-3.28-.955-3.843l-.661-.294v-9.436l2.436-2.451c2.346-2.36 2.461-2.443 3.069-2.23 1.504.526 3.181-.55 3.399-2.18.226-1.69-.945-2.915-2.788-2.915-.748 0-1.045.137-1.682.777ZM12.836 34.135c-1.029.449-1.638 1.535-1.52 2.707.17 1.66 1.762 2.752 3.28 2.25l.725-.24 3.15 3.187 3.149 3.186h16.21l8.025 8.049 8.025 8.048 2.648-.018 2.647-.018.303.587c1.084 2.102 3.971 2.03 4.868-.122 1.01-2.427-2.053-4.705-4.055-3.015-.364.307-.723.752-.797.988-.125.394-.347.43-2.664.43h-2.529L46.31 52.14l-7.993-8.013H22.302l-2.989-2.992-2.988-2.993.109-1.233c.093-1.051.036-1.327-.389-1.864-.478-.606-1.636-1.246-2.222-1.228-.154.005-.599.148-.987.317Zm166.75.67c-.747.75-.77.82-.659 2.05l.115 1.274-2.049 2.067-2.05 2.066-.005 4.392-.006 4.393-4.87 4.882-4.871 4.883h-2.008c-1.8 0-2.022-.044-2.143-.43-.075-.236-.434-.68-.798-.987-.766-.647-2.036-.748-3.016-.24-.674.35-1.332 1.522-1.332 2.371 0 .689.84 1.943 1.538 2.298 1.249.634 2.934.045 3.606-1.259l.351-.68 2.086.042 2.086.042 5.233-5.233 5.233-5.233V42.93l1.998-2.014c1.912-1.926 2.026-2.003 2.632-1.791 1.504.526 3.181-.55 3.399-2.18.226-1.69-.945-2.915-2.788-2.915-.748 0-1.045.137-1.682.777ZM6.67 42.199c-.926.499-1.445 1.424-1.421 2.532.019.866.134 1.112.817 1.74.645.592.975.731 1.74.731.52 0 1.04-.097 1.159-.215.14-.14 1.424 1 3.706 3.293l3.492 3.508 4.817.005 4.817.005.328.708c.44.947 1.71 1.575 2.783 1.373.921-.173 1.936-1.155 2.136-2.066.183-.834-.43-2.316-1.155-2.793-1.252-.822-3.225-.288-3.807 1.03l-.282.64h-8.991l-3.33-3.34-3.33-3.341.236-.72c.294-.895-.017-1.976-.774-2.69-.636-.599-2.182-.81-2.94-.4Zm175.088 1.496c-.693.424-1.355 1.554-1.355 2.314 0 .757.743 1.9 1.457 2.242l.732.35v7.495l-6.184 6.2-6.183 6.2h-32.392l-2.387 2.403c-2.087 2.099-2.442 2.373-2.818 2.17-1.205-.647-3.29.482-3.56 1.928-.328 1.752.883 3.156 2.721 3.158.799 0 1.077-.124 1.726-.775.756-.758.771-.808.652-2.12l-.121-1.344 2.155-2.161 2.156-2.16 16.154-.002h16.154l6.51-6.523 6.511-6.523.001-3.96.002-3.958.636-.363c1.867-1.065 1.864-3.728-.004-4.697-.847-.44-1.708-.397-2.563.126Zm-92.371 6.69c-.22.296-11.836 32.993-11.836 33.318 0 .1 1.551.153 3.447.117l3.447-.066 1.206-3.442c.663-1.893 1.27-3.506 1.348-3.585.16-.16 12.445-.172 12.605-.011.057.056.659 1.663 1.339 3.57l1.236 3.468 3.458.02c3.06.017 3.448-.022 3.366-.33-.181-.674-11.542-32.623-11.705-32.914-.204-.365-7.645-.501-7.911-.145Zm23.549-.19c-.084.085-.152 7.694-.152 16.911v16.758h7.002V50.275h-3.045c-1.676 0-3.182-.053-3.349-.117-.167-.064-.372-.048-.456.037Zm80.203 7.034c-1.016.502-1.437 1.421-1.293 2.822l.117 1.132-7.704 7.727-7.704 7.725-10.707-.012-10.707-.012-3.187 3.192-3.188 3.193-.696-.244c-.88-.308-1.962.015-2.703.806-.75.802-.75 2.663 0 3.465 1.185 1.265 2.959 1.2 4.09-.148.519-.619.569-.824.468-1.933l-.112-1.241 2.879-2.882 2.88-2.883h21.218l8.01-8.032 8.009-8.033.773.214c1.042.289 1.806.11 2.566-.602 1.276-1.197 1.041-3.254-.478-4.183-.862-.527-1.568-.547-2.531-.071ZM.805 59.356c-.728.67-.805.848-.805 1.875 0 .97.096 1.23.664 1.801 1.248 1.252 3.303 1.02 4.209-.474l.392-.648 16.053-.01 16.053-.011 4.39 4.4 4.392 4.402H66.29l1.937-1.953 1.937-1.952 1.252.114c1.429.13 2.215-.236 2.754-1.28.543-1.055.406-2.083-.395-2.953-1.682-1.829-4.548-.754-4.537 1.701.002.399.097.873.212 1.054.162.255-.223.766-1.694 2.25l-1.904 1.921h-19.28l-4.462-4.5-4.461-4.5H21.398c-15.937 0-16.254-.009-16.387-.43-.264-.833-1.384-1.546-2.43-1.546-.798 0-1.115.132-1.776.74Zm94.581 5.124c1.084 3.103 2.002 5.77 2.04 5.926.057.226-.796.285-4.103.285-2.295 0-4.172-.074-4.17-.165.003-.09.388-1.251.858-2.58.47-1.327 1.379-3.92 2.02-5.762.642-1.841 1.216-3.347 1.276-3.347.06 0 .996 2.54 2.08 5.643ZM8.513 70.02c-2.697 2.727-3.312 3.247-3.635 3.074-.963-.517-2.677-.039-3.358.936-.193.277-.342.943-.342 1.535 0 1.502.814 2.386 2.33 2.532.999.096 1.174.041 1.895-.594.908-.799 1.232-1.907.823-2.808-.25-.55-.146-.685 2.87-3.715l3.128-3.144h14.452l5.686 5.708 5.687 5.707h11.858c11.578 0 11.862.01 11.995.43.075.236.433.68.797.988.72.607 1.954.747 2.861.324 1.153-.538 1.8-2.388 1.22-3.491-.401-.761-1.641-1.544-2.446-1.543-.922.002-2.095.76-2.39 1.547l-.245.648H38.486L32.8 72.447l-5.687-5.708H11.76l-3.247 3.282Zm187.376-.523c-1.052.572-1.605 2.335-1.056 3.364.17.318-.253.845-2.381 2.975l-2.587 2.588-.758-.25c-2.241-.742-4.277 1.879-3.021 3.89.926 1.482 2.908 1.707 4.142.47.719-.721.895-1.473.61-2.601-.185-.736-.152-.782 2.386-3.335 2.118-2.13 2.643-2.553 2.959-2.383 1.528.82 3.696-.598 3.696-2.417 0-2.04-2.171-3.292-3.99-2.301ZM138.048 76.3c-1.443.714-1.884 2.794-.855 4.022.306.365.75.724.985.8.408.13.428.366.428 5.117v4.98l7.987 8.01 7.988 8.011v19.155c0 16.249-.046 19.155-.306 19.155-.168 0-.611.35-.984.776-1.266 1.447-.769 3.513 1.009 4.194.828.317 1.033.322 1.755.047.972-.371 1.809-1.515 1.808-2.47-.002-.925-.757-2.101-1.542-2.398l-.646-.245v-38.665l-7.987-8.023-7.988-8.023v-9.419l.646-.244c1.379-.522 1.995-2.728 1.086-3.888-.917-1.169-2.162-1.497-3.384-.892ZM11.586 79.679c-2.087 2.1-2.442 2.373-2.818 2.17-.63-.338-2.083-.072-2.68.491-1.762 1.66-.634 4.596 1.765 4.596 1.737 0 3.078-1.773 2.53-3.346-.24-.692-.221-.719 2.002-2.957l2.244-2.259h9.203l4.482 4.5 4.482 4.501h2.464c1.963 0 2.464.062 2.464.307 0 .168.348.613.773.987 1.994 1.757 4.95-.113 4.242-2.682-.302-1.098-1.102-1.731-2.337-1.85-.917-.089-1.153-.021-1.779.507-.397.336-.794.804-.881 1.042-.145.394-.363.431-2.426.416l-2.266-.017-4.394-4.404-4.395-4.404H13.973l-2.387 2.402Zm159.473 2.58c-.265.052-.782.438-1.149.857-1.844 2.107.364 5.245 2.933 4.168.455-.19.969-.65 1.237-1.106l.458-.779h5.982l2.509 2.525 2.51 2.524 4.818.006 4.818.004.34.694c.457.93 1.729 1.584 2.719 1.397.959-.18 2.026-1.244 2.205-2.198.171-.916-.366-2.14-1.173-2.67-1.252-.823-3.225-.289-3.807 1.03l-.282.64h-9.107l-2.498-2.525-2.498-2.524h-6.568l-.338-.657c-.545-1.056-1.848-1.637-3.109-1.387Zm-13.13 1.977c-.265.051-.783.436-1.149.856-.527.601-.667.964-.667 1.725 0 1.753 1.762 3.098 3.337 2.548l.698-.244 7.466 7.487 7.467 7.488-.222.832c-.613 2.305 2.035 4.166 4.012 2.82 1.484-1.01 1.568-3.066.173-4.243-.604-.51-.846-.573-1.956-.508l-1.267.074-7.436-7.445c-6.61-6.619-7.409-7.493-7.203-7.88.316-.59.09-2.06-.4-2.614-.43-.484-1.629-1.07-2.091-1.02-.154.017-.497.072-.762.124Zm-106.2.45a2.602 2.602 0 0 0-1.36 3l.244.896-5.718 5.75c-4.749 4.773-5.784 5.714-6.102 5.543-.989-.531-2.67-.036-3.335.982-.456.698-.466 2.295-.019 2.935 1.127 1.614 3.739 1.471 4.553-.25.406-.858.446-1.416.157-2.178-.184-.486.254-.982 5.526-6.26l5.726-5.731.883.241c1.67.457 3.238-.787 3.238-2.568 0-1.096-.521-1.937-1.486-2.396-.934-.445-1.36-.438-2.307.036Zm12.302.836c-.97.682-1.449 2.403-.936 3.364.17.32-.812 1.406-5.8 6.406l-6.004 6.02v10.639l-.666.346c-.763.396-1.52 1.516-1.521 2.252-.002 1.497 1.203 2.742 2.656 2.742 1.495 0 2.613-1.123 2.634-2.645.014-1.039-.503-1.903-1.37-2.288l-.639-.283v-10.324l5.854-5.865c4.6-4.61 5.924-5.82 6.182-5.655.886.569 2.725-.026 3.347-1.082.737-1.252.288-3.003-.932-3.636-.83-.43-2.185-.426-2.805.01Zm59.107 2.062c-.384.234-.802.623-.93.863-.345.646-.283 2.272.108 2.832.685.98 2.396 1.453 3.369.931.336-.18 1.057.404 4.539 3.677 2.277 2.14 5.242 4.918 6.59 6.172l2.449 2.28v23.99l-1.487 1.48c-1.448 1.442-1.506 1.474-2.182 1.238-1.571-.55-3.334.798-3.334 2.548 0 1.2.961 2.429 2.06 2.636 1.997.376 3.871-1.949 2.956-3.665-.207-.388-.035-.633 1.422-2.016l1.659-1.575-.018-12.622-.017-12.623-6.748-6.257c-4.631-4.294-6.71-6.36-6.626-6.585.305-.824.294-1.548-.032-2.237-.673-1.422-2.401-1.91-3.778-1.067Zm-109.596.977c-.942.417-1.442 1.07-1.574 2.054-.39 2.916 3.473 4.147 4.933 1.572l.362-.638 2.402-.002h2.403l1.795 1.791 1.796 1.792-.125 1.054c-.157 1.336.21 2.25 1.136 2.824 1.292.802 2.66.472 3.552-.857.59-.88.628-1.547.141-2.575-.495-1.048-1.408-1.478-2.824-1.331l-1.132.117-1.942-1.957-1.941-1.957h-5.29l-.349-.733c-.351-.74-1.498-1.47-2.281-1.453-.223.005-.7.14-1.061.3Zm81.287.735c-1.315 1.179-1.043 3.546.493 4.292l.647.315-.024 4.255-.024 4.255-11.529 11.573c-10.545 10.585-11.576 11.559-12.084 11.418-1.502-.416-2.79.118-3.402 1.411-.477 1.009-.274 2.138.532 2.946 1.3 1.306 3.392.931 4.252-.76.374-.736.4-.979.189-1.757l-.246-.902 11.816-11.864 11.814-11.864-.026-4.37c-.024-4.047.004-4.381.375-4.522 1.274-.484 1.954-2.397 1.301-3.664-.506-.98-1.173-1.366-2.368-1.366-.828 0-1.181.125-1.716.604Zm82.054 1.653c-.901.609-1.287 1.323-1.291 2.391-.006 1.591 1.837 2.914 3.332 2.392.688-.24.72-.22 2.788 1.847l2.091 2.09h9.412l.391.729a2.734 2.734 0 0 0 2.449 1.466c.652 0 .98-.168 1.662-.852.955-.958 1.118-1.94.518-3.107-.929-1.8-4.011-1.705-4.713.146l-.197.52h-8.882l-2.043-2.058c-1.237-1.247-1.948-2.117-1.801-2.208.133-.083.242-.576.242-1.096 0-1.124-.603-2.01-1.671-2.458-.999-.419-1.43-.381-2.287.198Zm-24.392.707c-.885.453-1.411 1.395-1.411 2.525 0 .755.134 1.056.744 1.668.799.802 1.198.892 3.015.68.217-.026 1.86 1.442 3.994 3.564l3.626 3.608v48.755l1.755 1.77c1.723 1.738 1.751 1.783 1.513 2.468-.759 2.185 1.911 4.173 3.912 2.914 1.564-.985 1.665-3.069.209-4.298-.629-.531-.828-.58-1.94-.479l-1.239.113-1.558-1.574-1.558-1.573v-48.73l-3.801-3.809c-3.64-3.646-3.792-3.834-3.579-4.401.794-2.11-1.657-4.24-3.682-3.201Zm-81.23 1.214c-1.04.419-1.747 2.572-1.152 3.506.164.257-.516 1.059-3.106 3.664-2.738 2.753-3.383 3.298-3.7 3.128-.565-.303-1.661-.251-2.361.112-.86.446-1.335 1.27-1.335 2.316 0 1.539 1.122 2.643 2.67 2.627.924-.01 1.623-.404 2.156-1.215.45-.685.557-1.964.21-2.51-.164-.257.514-1.058 3.1-3.658 3.023-3.04 3.357-3.312 3.839-3.129 2.4.916 4.479-1.691 3.124-3.92-.643-1.058-2.124-1.454-3.445-.921Zm33.696 3.16c-.735.676-.817.861-.817 1.851 0 .917.106 1.212.64 1.77.352.37.82.728 1.039.798.351.112.4.389.4 2.254v2.127l-8.316 8.34-8.316 8.34v3.883c0 3.661-.024 3.891-.428 4.019-.235.075-.678.435-.985.8-1.056 1.259-.607 3.317.878 4.023 2.245 1.069 4.553-1.299 3.457-3.548-.244-.502-.686-.964-1.112-1.162l-.706-.33-.005-3.623-.005-3.623 8.316-8.34 8.316-8.34v-2.367c0-2.287.017-2.373.518-2.564.886-.338 1.451-1.274 1.451-2.406 0-1.155-.391-1.846-1.315-2.326-1.088-.564-2.089-.423-3.01.424Zm10.781-.451c-2.058.934-2.173 3.62-.205 4.785l.752.446v9.728l-7.417 7.438-7.416 7.437-.706-.247c-1.99-.696-3.917 1.216-3.302 3.278.71 2.378 3.869 2.555 4.875.273.344-.779.378-1.096.192-1.772l-.227-.823 7.547-7.575 7.548-7.575v-5.198c0-4.966.019-5.204.428-5.334.794-.252 1.542-1.39 1.542-2.346 0-2.011-1.863-3.31-3.611-2.515Zm-33.325 1.798c-.97.681-1.449 2.403-.936 3.364.17.32-1.112 1.705-7.63 8.242-7.115 7.136-7.876 7.834-8.287 7.613-1.214-.651-3.019.156-3.479 1.556-.85 2.588 2.148 4.59 4.186 2.794.87-.766 1.152-1.745.784-2.717-.243-.642-.211-.678 7.567-8.482 7.664-7.692 7.822-7.834 8.441-7.618 2.197.768 4.223-1.67 3.138-3.775-.476-.922-1.169-1.32-2.3-1.32-.549 0-1.215.154-1.484.343Zm42.954 4.696c-.767.319-1.455 1.257-1.574 2.149-.148 1.108.33 2.056 1.361 2.695l.783.485-.031 2.445-.03 2.445-7.451 7.495-7.452 7.495-1.235-.112c-1.104-.1-1.309-.05-1.925.47-1.885 1.591-1.102 4.422 1.292 4.666 1.849.189 3.35-1.515 2.828-3.212l-.238-.777 7.657-7.684 7.656-7.685v-2.893c0-2.617.038-2.905.403-3.021 1.282-.408 1.953-2.44 1.243-3.763-.608-1.132-2.118-1.683-3.287-1.198Zm60.785 2.531c-.842.368-1.589 1.504-1.589 2.419 0 .905.763 2.082 1.541 2.376.617.234.645.304.645 1.572v1.326l-3.254 3.26c-2.186 2.188-3.309 3.171-3.421 2.99-.275-.447-2.222-.146-2.845.441-1.775 1.673-.659 4.609 1.752 4.609 1.737 0 3.078-1.772 2.53-3.346l-.242-.699 3.287-3.304 3.288-3.303V111.3c0-1.587.021-1.655.607-1.915 1.319-.586 1.807-2.724.888-3.896-.458-.584-1.621-1.219-2.2-1.202-.154.005-.598.148-.987.317Zm-16.932 4.567a2.844 2.844 0 0 0-1.052 1.39c-.281.808-.271.968.109 1.749.23.473.735 1.057 1.121 1.299l.703.439.007 15.147.007 15.148-.636.363c-2.045 1.167-1.79 4.158.412 4.819 1.067.321 1.867.121 2.646-.66 1.251-1.254.942-3.409-.593-4.143l-.732-.35.002-15.162.001-15.162.65-.372c.779-.444 1.534-1.612 1.534-2.372 0-.774-.737-1.894-1.51-2.294-.919-.477-1.801-.424-2.669.161Zm-23.958 1.347c-1.632.713-2.166 2.739-1.066 4.05.306.365.749.725.985.8.417.133.428.414.428 11.422v11.285l-.653.339c-1.722.893-1.729 3.717-.011 4.608 2.645 1.372 5.21-1.72 3.267-3.94-.374-.427-.817-.776-.985-.776-.257 0-.308-1.681-.322-10.592-.009-5.826-.034-10.918-.055-11.317-.031-.6.081-.794.66-1.137a2.693 2.693 0 0 0 1.314-2.692c-.134-1.003-.639-1.645-1.622-2.063-.858-.364-1.079-.363-1.94.013Zm-14.03 3.749c-.797.799-.825 1.005-.464 3.293.05.313-.436.911-1.681 2.074-.963.898-2.416 2.256-3.228 3.017l-1.477 1.384v1.632c0 1.428-.054 1.65-.428 1.769-.827.263-1.542 1.389-1.542 2.427 0 1.2.961 2.429 2.061 2.636 1.525.288 3.19-1.092 3.19-2.645 0-.877-.698-1.983-1.521-2.41-.627-.325-.666-.421-.666-1.626v-1.281l3.197-2.937 3.196-2.937 1.157-.003c.847-.001 1.287-.119 1.64-.441 1.064-.965 1.36-2.252.778-3.381-.46-.893-1.27-1.339-2.432-1.339-.868 0-1.126.111-1.78.768Z" fill="#58B1F4"/><path fill-rule="evenodd" clip-rule="evenodd" d="M86.21.678c-1.262 1.11-1.27 2.752-.019 3.93.589.555 2.044.817 2.67.481.377-.202.75.09 2.986 2.339l2.555 2.57v18.658l4.048 4.056 4.048 4.057v4.398l-.661.294c-.826.366-1.308 1.273-1.308 2.458 0 .744.137 1.049.744 1.658.632.634.897.746 1.758.746 1.163 0 1.972-.446 2.433-1.339.659-1.279.112-2.912-1.205-3.595l-.666-.346v-4.932l-4.049-4.057-4.048-4.057V9.339l-2.626-2.64c-2.574-2.59-2.621-2.655-2.424-3.348C91.171.817 88.19-1.066 86.21.678Zm29.528.412c-1.976.82-2.103 3.727-.207 4.751l.754.408v20.87l4.158 4.166 4.158 4.167-.002 2.637-.001 2.636-.651.371c-.76.434-1.533 1.607-1.534 2.33 0 .277.145.787.323 1.132 1.142 2.214 4.16 2.014 4.931-.328.412-1.253-.348-2.806-1.589-3.246-.339-.12-.383-.472-.383-3.053v-2.918l-4.158-4.167-4.158-4.166V16.428c0-9.98.011-10.254.428-10.387.236-.075.679-.434.985-.8.666-.793.759-2.31.196-3.173-.663-1.015-2.112-1.451-3.25-.98Zm-41.779.716c-1.297 1.301-1.306 2.547-.027 3.83.614.615.89.733 1.724.733.547 0 1.062-.11 1.145-.244.09-.147 1.888 1.496 4.499 4.114l4.348 4.358V34.13l1.87 1.885c1.778 1.792 1.859 1.915 1.639 2.496-.307.81.039 2.085.749 2.754.361.34.895.545 1.599.613.906.087 1.154.019 1.743-.478 1.324-1.117 1.405-2.912.184-4.063-.598-.564-2.05-.83-2.681-.49-.376.2-.667-.006-2.22-1.572l-1.789-1.804V13.946l-4.382-4.4-4.381-4.399.243-.7c.54-1.556-.603-3.122-2.409-3.296-1.02-.099-1.147-.054-1.854.655ZM63.862 3.755c-1.042.295-1.677 1.125-1.793 2.342-.087.91-.02 1.158.478 1.752.32.38.773.753 1.009.828.42.133.428.45.428 16.314v16.177l4.458 4.47 4.46 4.468-.112 1.39c-.105 1.318-.078 1.422.546 2.048 1.172 1.176 2.785 1.178 3.904.006.521-.546.64-.86.64-1.698 0-1.842-1.202-2.84-3.143-2.61l-1.049.125-4.205-4.223-4.205-4.222.007-15.98.007-15.98.71-.48c2.558-1.729.82-5.566-2.14-4.727Zm42.028 2.164c-2.034.845-2.115 3.986-.124 4.868l.68.301-.014 8.77-.014 8.768 3.172 3.196 3.171 3.195-.24.886c-.2.739-.175 1.023.15 1.711 1.035 2.188 4.24 1.875 4.945-.483.604-2.024-1.745-4.054-3.562-3.079-.406.218-.762-.066-3.487-2.796l-3.035-3.038v-8.605c0-8.348.012-8.609.428-8.74.235-.076.678-.436.984-.8 1.042-1.243.609-3.317-.834-4.004-.815-.388-1.529-.436-2.22-.15Zm28.451 3.35a2.639 2.639 0 0 0-.013 4.586l.777.46V28l2.735 2.737 2.736 2.738v20.48l-.602.256c-.954.407-1.477 1.293-1.477 2.503 0 .943.089 1.142.817 1.81.921.848 1.922.988 3.01.424.928-.481 1.315-1.17 1.315-2.338 0-1.11-.688-2.224-1.541-2.496-.417-.133-.428-.407-.428-10.607V33.035l-2.736-2.738-2.735-2.737V14.315l.777-.46c1.606-.95 1.751-3.059.296-4.287-.734-.62-2.133-.763-2.931-.299Zm15.299 1.465c-.9.55-1.281 1.525-1.104 2.824l.141 1.032-2.77 2.785-2.77 2.786-1.131-.117c-1.935-.2-3.181.846-3.181 2.672 0 1.052 1.105 2.277 2.214 2.454 1.992.318 3.742-1.924 2.832-3.63-.17-.317.32-.91 2.79-3.382 2.337-2.337 3.068-2.95 3.324-2.786.495.316 1.692.259 2.415-.116 1.718-.891 1.689-3.671-.049-4.639-.734-.409-1.937-.357-2.711.117Zm-71.991 3.339c-1.006.285-1.663 1.116-1.793 2.269-.064.574-.01 1.123.128 1.29.185.223-.083.61-1.175 1.696l-1.415 1.407v15.372l2.078 2.093c2.02 2.034 2.073 2.112 1.877 2.799-.469 1.637.772 3.348 2.428 3.348 1.555 0 2.808-1.2 2.808-2.69 0-.688-.84-1.943-1.539-2.298-.642-.325-1.723-.357-2.182-.064-.254.163-.785-.247-2.352-1.81l-2.024-2.02V21.393l1.276-1.268c1.208-1.198 1.309-1.253 1.86-1 .812.37 2.139-.056 2.866-.923 1.617-1.928-.377-4.828-2.841-4.13Zm76.399 4.386c-.862.76-1.199 1.903-.84 2.856.212.564.087.729-2.594 3.412l-2.817 2.82v16.57l-.643.333c-.93.482-1.326 1.174-1.326 2.312 0 1.603 1.067 2.635 2.727 2.635 1.049 0 2.27-1.11 2.447-2.222.173-1.095-.439-2.329-1.379-2.779l-.732-.35v-16.06l2.681-2.68c2.087-2.087 2.753-2.634 3.009-2.47.18.116.74.212 1.243.214.74.002 1.063-.138 1.696-.736.653-.62.781-.89.781-1.658 0-2.507-2.458-3.777-4.253-2.197Zm11.919.923c-.696.353-1.539 1.608-1.539 2.29 0 .293.109.736.243.986.218.41-.193.89-4.268 4.982l-4.509 4.527v21.076l-3.887 3.895-3.887 3.895-.67-.254c-1.445-.547-3.125.59-3.305 2.235-.289 2.645 2.926 3.969 4.649 1.915.526-.628.575-.83.475-1.94l-.112-1.24 3.915-3.924 3.916-3.924V32.77l4.285-4.292 4.285-4.291 1.131.103c1.282.116 1.954-.158 2.63-1.072.498-.672.571-1.996.153-2.779-.596-1.117-2.346-1.644-3.505-1.056ZM22.683 29.956c-1.031.462-1.637 1.545-1.519 2.715.116 1.14.78 1.927 1.918 2.269.683.205.947.178 1.654-.169.464-.227 1.04-.73 1.28-1.117l.438-.705 5.69-.009 5.692-.008 7.11 7.136 7.111 7.136-.075 1.317c-.071 1.256-.038 1.354.69 2.085.63.632.925.766 1.682.766 1.148 0 2.083-.54 2.514-1.45.42-.89.42-1.476-.007-2.302-.618-1.2-2.323-1.865-3.356-1.31-.319.17-1.615-1.03-7.698-7.135l-7.315-7.34-6.019-.002-6.02-.002-.361-.638c-.71-1.25-2.184-1.786-3.409-1.237Zm-9.847 4.18c-1.029.448-1.638 1.534-1.52 2.706.17 1.66 1.762 2.752 3.28 2.25l.725-.24 3.15 3.187 3.149 3.186h16.21l8.025 8.049 8.025 8.048 2.648-.018 2.647-.018.303.587c1.084 2.102 3.971 2.03 4.868-.122 1.01-2.427-2.053-4.705-4.055-3.015-.364.307-.723.752-.797.988-.125.394-.347.43-2.664.43h-2.529L46.31 52.14l-7.993-8.013H22.302l-2.989-2.992-2.988-2.993.109-1.233c.093-1.051.036-1.327-.389-1.864-.478-.606-1.636-1.246-2.222-1.228-.154.005-.599.148-.987.317Zm166.75.67c-.747.749-.77.82-.659 2.05l.115 1.273-2.049 2.067-2.05 2.066-.005 4.392-.006 4.393-4.87 4.882-4.871 4.883h-2.008c-1.8 0-2.022-.044-2.143-.43-.075-.236-.434-.68-.798-.987-.766-.647-2.036-.748-3.016-.24-.674.35-1.332 1.522-1.332 2.371 0 .689.84 1.943 1.538 2.298 1.249.634 2.934.045 3.606-1.259l.351-.68 2.086.042 2.086.042 5.233-5.233 5.233-5.233V42.93l1.998-2.014c1.912-1.926 2.026-2.003 2.632-1.791 1.504.526 3.181-.55 3.399-2.18.226-1.69-.945-2.915-2.788-2.915-.748 0-1.045.137-1.682.777ZM6.67 42.198c-.926.499-1.445 1.424-1.421 2.532.019.866.134 1.112.817 1.74.645.592.975.731 1.74.731.52 0 1.04-.097 1.159-.215.14-.14 1.424 1 3.706 3.293l3.492 3.508 4.817.005 4.817.005.328.708c.44.947 1.71 1.575 2.783 1.373.921-.173 1.936-1.155 2.136-2.066.183-.834-.43-2.316-1.155-2.793-1.252-.822-3.225-.288-3.807 1.03l-.282.64h-8.991l-3.33-3.34-3.33-3.341.236-.72c.294-.895-.017-1.976-.774-2.69-.636-.599-2.182-.81-2.94-.4Zm175.088 1.496c-.693.424-1.355 1.554-1.355 2.314 0 .757.743 1.9 1.457 2.242l.732.35v7.495l-6.184 6.2-6.183 6.2h-32.392l-2.387 2.403c-2.087 2.099-2.442 2.373-2.818 2.17-1.205-.647-3.29.482-3.56 1.928-.328 1.752.883 3.156 2.721 3.158.799 0 1.077-.124 1.726-.775.756-.758.771-.808.652-2.12l-.121-1.344 2.155-2.161 2.156-2.16 16.154-.002h16.154l6.51-6.523 6.511-6.523.001-3.96.002-3.958.636-.363c1.867-1.065 1.864-3.728-.004-4.697-.847-.44-1.708-.397-2.563.126Zm11.381 13.534c-1.016.502-1.437 1.421-1.293 2.822l.117 1.132-7.704 7.727-7.704 7.725-10.707-.012-10.707-.012-3.187 3.192-3.188 3.193-.696-.244c-.88-.308-1.962.015-2.703.806-.75.802-.75 2.663 0 3.465 1.185 1.265 2.959 1.2 4.09-.148.519-.619.569-.824.468-1.933l-.112-1.241 2.879-2.882 2.88-2.883h21.218l8.01-8.032 8.009-8.033.773.214c1.042.289 1.806.11 2.566-.602 1.276-1.197 1.041-3.254-.478-4.183-.862-.527-1.568-.547-2.531-.071ZM.805 59.356c-.728.67-.805.848-.805 1.875 0 .97.096 1.23.664 1.801 1.248 1.252 3.303 1.02 4.209-.474l.392-.648 16.053-.01 16.053-.011 4.39 4.4 4.392 4.402H66.29l1.937-1.953 1.937-1.952 1.252.114c1.429.13 2.215-.236 2.754-1.28.543-1.055.406-2.083-.395-2.953-1.682-1.829-4.548-.754-4.537 1.701.002.399.097.873.212 1.054.162.255-.223.766-1.694 2.25l-1.904 1.921h-19.28l-4.462-4.5-4.461-4.5H21.398c-15.937 0-16.254-.009-16.387-.43-.264-.833-1.384-1.546-2.43-1.546-.798 0-1.115.132-1.776.74Zm7.708 10.665c-2.697 2.727-3.312 3.247-3.635 3.074-.963-.517-2.677-.039-3.358.936-.193.277-.342.943-.342 1.535 0 1.502.814 2.386 2.33 2.532.999.096 1.174.041 1.895-.594.908-.799 1.232-1.907.823-2.808-.25-.55-.146-.685 2.87-3.715l3.128-3.144h14.452l5.686 5.708 5.687 5.707h11.858c11.578 0 11.862.01 11.995.43.075.236.433.68.797.988.72.607 1.954.747 2.861.324 1.153-.538 1.8-2.388 1.22-3.491-.401-.761-1.641-1.544-2.446-1.543-.922.002-2.095.76-2.39 1.547l-.245.648H38.486L32.8 72.447l-5.687-5.708H11.76l-3.247 3.282Zm187.376-.523c-1.052.572-1.605 2.335-1.056 3.364.17.318-.253.845-2.381 2.975l-2.587 2.588-.758-.25c-2.241-.742-4.277 1.879-3.021 3.89.926 1.482 2.908 1.707 4.142.47.719-.721.895-1.473.61-2.601-.185-.736-.152-.782 2.386-3.335 2.118-2.13 2.643-2.553 2.959-2.383 1.528.82 3.696-.598 3.696-2.417 0-2.04-2.171-3.292-3.99-2.301ZM138.048 76.3c-1.443.714-1.884 2.794-.855 4.022.306.365.75.724.985.8.408.13.428.366.428 5.117v4.98l7.987 8.01 7.988 8.011v19.155c0 16.249-.046 19.155-.306 19.155-.168 0-.611.35-.984.776-1.266 1.447-.769 3.513 1.009 4.194.828.317 1.033.322 1.755.047.972-.371 1.809-1.515 1.808-2.47-.002-.925-.757-2.101-1.542-2.398l-.646-.245v-38.665l-7.987-8.023-7.988-8.023v-9.419l.646-.244c1.379-.522 1.995-2.728 1.086-3.888-.917-1.169-2.162-1.497-3.384-.892ZM11.586 79.679c-2.087 2.1-2.442 2.373-2.818 2.17-.63-.338-2.083-.072-2.68.491-1.762 1.66-.634 4.596 1.765 4.596 1.737 0 3.078-1.773 2.53-3.346-.24-.692-.221-.719 2.002-2.957l2.244-2.259h9.203l4.482 4.5 4.482 4.501h2.464c1.963 0 2.464.062 2.464.307 0 .168.348.613.773.987 1.994 1.757 4.95-.113 4.242-2.682-.302-1.098-1.102-1.731-2.337-1.85-.917-.089-1.153-.021-1.779.507-.397.336-.794.804-.881 1.042-.145.394-.363.431-2.426.416l-2.266-.017-4.394-4.404-4.395-4.404H13.973l-2.387 2.402Zm159.473 2.58c-.265.052-.782.438-1.149.857-1.844 2.107.364 5.245 2.933 4.168.455-.19.969-.65 1.237-1.106l.458-.779h5.982l2.509 2.525 2.51 2.524 4.818.006 4.818.004.34.694c.457.93 1.729 1.584 2.719 1.397.959-.18 2.026-1.244 2.205-2.198.171-.916-.366-2.14-1.173-2.67-1.252-.823-3.225-.289-3.807 1.03l-.282.64h-9.107l-2.498-2.525-2.498-2.524h-6.568l-.338-.657c-.545-1.056-1.848-1.637-3.109-1.387Zm-13.13 1.977c-.265.051-.783.436-1.149.856-.527.601-.667.964-.667 1.725 0 1.753 1.762 3.098 3.337 2.548l.698-.244 7.466 7.487 7.467 7.488-.222.832c-.613 2.305 2.035 4.166 4.012 2.82 1.484-1.01 1.568-3.066.173-4.243-.604-.51-.846-.573-1.956-.508l-1.267.074-7.436-7.445c-6.61-6.619-7.409-7.493-7.203-7.88.316-.59.09-2.06-.4-2.614-.43-.484-1.629-1.07-2.091-1.02-.154.017-.497.072-.762.124Zm-106.2.45a2.602 2.602 0 0 0-1.36 3l.244.896-5.718 5.75c-4.749 4.773-5.784 5.714-6.102 5.543-.989-.531-2.67-.036-3.335.982-.456.698-.466 2.295-.019 2.935 1.127 1.614 3.739 1.471 4.553-.25.406-.858.446-1.416.157-2.178-.184-.486.254-.982 5.526-6.26l5.726-5.731.883.241c1.67.457 3.238-.787 3.238-2.568 0-1.096-.521-1.937-1.486-2.396-.934-.445-1.36-.438-2.307.036Zm12.302.836c-.97.682-1.449 2.403-.936 3.364.17.32-.812 1.406-5.8 6.406l-6.004 6.02v10.639l-.666.346c-.763.396-1.52 1.516-1.521 2.252-.002 1.497 1.203 2.742 2.656 2.742 1.495 0 2.613-1.123 2.634-2.645.014-1.039-.503-1.903-1.37-2.288l-.639-.283v-10.324l5.854-5.865c4.6-4.61 5.924-5.82 6.182-5.655.886.569 2.725-.026 3.347-1.082.737-1.252.288-3.003-.932-3.636-.83-.43-2.185-.426-2.805.01Zm59.107 2.062c-.384.234-.802.623-.93.863-.345.646-.283 2.272.108 2.832.685.98 2.396 1.453 3.369.931.336-.18 1.057.404 4.539 3.677 2.277 2.14 5.242 4.918 6.59 6.172l2.449 2.28v23.99l-1.487 1.48c-1.448 1.442-1.506 1.474-2.182 1.238-1.571-.55-3.334.798-3.334 2.548 0 1.2.961 2.429 2.06 2.636 1.997.376 3.871-1.949 2.956-3.665-.207-.388-.035-.633 1.422-2.016l1.659-1.575-.018-12.622-.017-12.623-6.748-6.257c-4.631-4.294-6.71-6.36-6.626-6.585.305-.824.294-1.548-.032-2.237-.673-1.422-2.401-1.91-3.778-1.067Zm-28.309 1.712c-1.315 1.179-1.043 3.546.493 4.292l.647.315-.024 4.255-.024 4.255-11.529 11.573c-10.545 10.585-11.576 11.559-12.084 11.418-1.502-.416-2.79.118-3.402 1.411-.477 1.009-.274 2.138.532 2.946 1.3 1.306 3.392.931 4.252-.76.374-.736.4-.979.189-1.757l-.246-.902 11.816-11.864 11.814-11.864-.026-4.37c-.024-4.047.004-4.381.375-4.522 1.274-.484 1.954-2.397 1.301-3.664-.506-.98-1.173-1.366-2.368-1.366-.828 0-1.181.125-1.716.604Zm82.054 1.653c-.901.609-1.287 1.323-1.291 2.391-.006 1.591 1.837 2.914 3.332 2.392.688-.24.72-.22 2.788 1.847l2.091 2.09h9.412l.391.729a2.734 2.734 0 0 0 2.449 1.466c.652 0 .98-.168 1.662-.852.955-.958 1.118-1.94.518-3.107-.929-1.8-4.011-1.705-4.713.146l-.197.52h-8.882l-2.043-2.058c-1.237-1.247-1.948-2.117-1.801-2.208.133-.083.242-.576.242-1.096 0-1.124-.603-2.01-1.671-2.458-.999-.419-1.43-.381-2.287.198Zm-24.392.707c-.885.453-1.411 1.395-1.411 2.525 0 .755.134 1.056.744 1.668.799.802 1.198.892 3.015.68.217-.026 1.86 1.442 3.994 3.564l3.626 3.608v48.755l1.755 1.77c1.723 1.738 1.751 1.783 1.513 2.468-.759 2.185 1.911 4.173 3.912 2.914 1.564-.985 1.665-3.069.209-4.298-.629-.531-.828-.58-1.94-.479l-1.239.113-1.558-1.574-1.558-1.573v-48.73l-3.801-3.809c-3.64-3.646-3.792-3.834-3.579-4.401.794-2.11-1.657-4.24-3.682-3.201Zm-81.23 1.214c-1.04.419-1.747 2.572-1.152 3.506.164.257-.516 1.059-3.106 3.664-2.738 2.753-3.383 3.298-3.7 3.128-.565-.303-1.661-.251-2.361.112-.86.446-1.335 1.27-1.335 2.316 0 1.539 1.122 2.643 2.67 2.627.924-.01 1.623-.404 2.156-1.215.45-.685.557-1.964.21-2.51-.164-.257.514-1.058 3.1-3.658 3.023-3.04 3.357-3.312 3.839-3.129 2.4.916 4.479-1.691 3.124-3.92-.643-1.058-2.124-1.454-3.445-.921Zm33.696 3.16c-.735.676-.817.861-.817 1.851 0 .917.106 1.212.64 1.77.352.37.82.728 1.039.798.351.112.4.389.4 2.254v2.127l-8.316 8.34-8.316 8.34v3.883c0 3.661-.024 3.891-.428 4.019-.235.075-.678.435-.985.8-1.056 1.259-.607 3.317.878 4.023 2.245 1.069 4.553-1.299 3.457-3.548-.244-.502-.686-.964-1.112-1.162l-.706-.33-.005-3.623-.005-3.623 8.316-8.34 8.316-8.34v-2.367c0-2.287.017-2.373.518-2.564.886-.338 1.451-1.274 1.451-2.406 0-1.155-.391-1.846-1.315-2.326-1.088-.564-2.089-.423-3.01.424Zm10.781-.451c-2.058.934-2.173 3.62-.205 4.785l.752.446v9.728l-7.417 7.438-7.416 7.437-.706-.247c-1.99-.696-3.917 1.216-3.302 3.278.71 2.378 3.869 2.555 4.875.273.344-.779.378-1.096.192-1.772l-.227-.823 7.547-7.575 7.548-7.575v-5.198c0-4.966.019-5.204.428-5.334.794-.252 1.542-1.39 1.542-2.346 0-2.011-1.863-3.31-3.611-2.515Zm-33.325 1.798c-.97.681-1.449 2.403-.936 3.364.17.32-1.112 1.705-7.63 8.242-7.115 7.136-7.876 7.834-8.287 7.613-1.214-.651-3.019.156-3.479 1.556-.85 2.588 2.148 4.59 4.186 2.794.87-.766 1.152-1.745.784-2.717-.243-.642-.211-.678 7.567-8.482 7.664-7.692 7.822-7.834 8.441-7.618 2.197.768 4.223-1.67 3.138-3.775-.476-.922-1.169-1.32-2.3-1.32-.549 0-1.215.154-1.484.343Zm42.954 4.696c-.767.319-1.455 1.257-1.574 2.149-.148 1.108.33 2.056 1.361 2.695l.783.485-.031 2.445-.03 2.445-7.451 7.495-7.452 7.495-1.235-.112c-1.104-.1-1.309-.05-1.925.47-1.885 1.591-1.102 4.422 1.292 4.666 1.849.189 3.35-1.515 2.828-3.212l-.238-.777 7.657-7.684 7.656-7.685v-2.893c0-2.617.038-2.905.403-3.021 1.282-.408 1.953-2.44 1.243-3.763-.608-1.132-2.118-1.683-3.287-1.198Zm43.853 7.098a2.844 2.844 0 0 0-1.052 1.39c-.281.808-.271.968.109 1.749.23.473.735 1.057 1.121 1.299l.703.439.007 15.147.007 15.148-.636.363c-2.045 1.167-1.79 4.158.412 4.819 1.067.321 1.867.121 2.646-.66 1.251-1.254.942-3.409-.593-4.143l-.732-.35.002-15.162.001-15.162.65-.372c.779-.444 1.534-1.612 1.534-2.372 0-.774-.737-1.894-1.51-2.294-.919-.477-1.801-.424-2.669.161Zm-37.988 5.096c-.797.799-.825 1.005-.464 3.293.05.313-.436.911-1.681 2.074-.963.898-2.416 2.256-3.228 3.017l-1.477 1.384v1.632c0 1.428-.054 1.65-.428 1.769-.827.263-1.542 1.389-1.542 2.427 0 1.2.961 2.429 2.061 2.636 1.525.288 3.19-1.092 3.19-2.645 0-.877-.698-1.983-1.521-2.41-.627-.325-.666-.421-.666-1.626v-1.281l3.197-2.937 3.196-2.937 1.157-.003c.847-.001 1.287-.119 1.64-.441 1.064-.965 1.36-2.252.778-3.381-.46-.893-1.27-1.339-2.432-1.339-.868 0-1.126.111-1.78.768Z" fill="#0F00E2"/></svg>