<svg width="144" height="130" fill="none" xmlns="http://www.w3.org/2000/svg"><path d="M73.593 94.184h-4.407v4.421h4.407v-4.421Z" fill="url(#a)"/><path d="M55.746 52.84h-4.407v23.436h4.407V52.84Z" fill="url(#b)"/><path d="M73.593 63.895h-4.407v12.38h4.407v-12.38Z" fill="url(#c)"/><path d="M64.78 59.473h-4.407v16.802h4.407V59.473Z" fill="url(#d)"/><path d="M82.627 67.21h-4.406v8.845h4.406V67.21Z" fill="url(#e)"/><path fill-rule="evenodd" clip-rule="evenodd" d="M133.966 0H9.034C3.966 0 0 3.98 0 9.065v89.54c0 4.864 3.966 9.065 9.034 9.065h46.491L52 125.578h-9.254V130h58.169v-4.422h-9.254l-3.525-17.908h46.271c4.847 0 9.034-3.98 9.034-9.065V9.065C143 3.98 138.814 0 133.966 0Zm-77.56 125.578 3.526-17.908h23.136l3.525 17.908H56.407Zm81.967-26.973c0 2.432-1.983 4.422-4.407 4.422H9.034c-2.424 0-4.407-1.99-4.407-4.422V9.065c0-2.432 1.983-4.422 4.407-4.422h125.152c2.424 0 4.407 1.99 4.407 4.422v89.54h-.22Z" fill="url(#f)"/><path fill-rule="evenodd" clip-rule="evenodd" d="M9.034 89.54h125.153V9.065H9.034v80.477Zm4.407-76.054H129.56V85.12H13.441V13.486Z" fill="url(#g)"/><path d="M91.441 71.633h-4.407v4.422h4.407v-4.422Z" fill="url(#h)"/><defs><linearGradient id="a" x1="69.369" y1="97.862" x2="73.905" y2="94.601" gradientUnits="userSpaceOnUse"><stop stop-color="#3F2482"/><stop offset="1" stop-color="#E42A0E"/></linearGradient><linearGradient id="b" x1="47.798" y1="68.66" x2="60.373" y2="59.62" gradientUnits="userSpaceOnUse"><stop stop-color="#3F2482"/><stop offset="1" stop-color="#E42A0E"/></linearGradient><linearGradient id="c" x1="67.837" y1="72.644" x2="75.698" y2="66.993" gradientUnits="userSpaceOnUse"><stop stop-color="#3F2482"/><stop offset="1" stop-color="#E42A0E"/></linearGradient><linearGradient id="d" x1="58.035" y1="71.045" x2="67.789" y2="64.033" gradientUnits="userSpaceOnUse"><stop stop-color="#3F2482"/><stop offset="1" stop-color="#E42A0E"/></linearGradient><linearGradient id="e" x1="77.434" y1="73.863" x2="83.855" y2="69.247" gradientUnits="userSpaceOnUse"><stop stop-color="#3F2482"/><stop offset="1" stop-color="#E42A0E"/></linearGradient><linearGradient id="f" x1="13.947" y1="95.403" x2="138.735" y2="5.697" gradientUnits="userSpaceOnUse"><stop stop-color="#3F2482"/><stop offset="1" stop-color="#E42A0E"/></linearGradient><linearGradient id="g" x1="21.687" y1="85.317" x2="129.686" y2="7.681" gradientUnits="userSpaceOnUse"><stop stop-color="#3F2482"/><stop offset="1" stop-color="#E42A0E"/></linearGradient><linearGradient id="h" x1="87.232" y1="75.455" x2="91.77" y2="72.192" gradientUnits="userSpaceOnUse"><stop stop-color="#3F2482"/><stop offset="1" stop-color="#E42A0E"/></linearGradient></defs></svg>