<svg width="328" height="226" fill="none" xmlns="http://www.w3.org/2000/svg"><path d="M52.242 34.098a4.227 4.227 0 1 0 0 8.454c.942 0 1.949-.26 2.814-.725l-.002 8.24h-8.236a6.098 6.098 0 0 0 .727-2.818 4.227 4.227 0 0 0-8.454 0 6.1 6.1 0 0 0 .727 2.818h-6.364v-9.051a.47.47 0 0 0-.808-.326c-.821.852-2.185 1.392-3.419 1.392a3.288 3.288 0 0 1 0-6.576c1.234 0 2.598.54 3.42 1.393a.47.47 0 0 0 .807-.326V28.46h8.112a.47.47 0 0 0 .326-.808c-.852-.822-1.392-2.186-1.392-3.42a3.288 3.288 0 1 1 6.576 0c0 1.234-.54 2.598-1.393 3.42a.47.47 0 0 0 .326.808h9.051l-.002 6.362a6.1 6.1 0 0 0-2.816-.726ZM32.515 50.537c0 .26.21.47.47.47h7.693a.47.47 0 0 0 .371-.757c-.638-.827-1.019-1.971-1.019-3a3.288 3.288 0 0 1 6.576 0c0 1.029-.381 2.173-1.02 3a.47.47 0 0 0 .373.757h9.565c.26 0 .47-.21.47-.47l.002-9.569a.47.47 0 0 0-.756-.372 5.13 5.13 0 0 1-2.998 1.017 3.288 3.288 0 0 1 0-6.576c1.03 0 2.172.38 3 1.017a.47.47 0 0 0 .756-.372l.002-7.69a.47.47 0 0 0-.47-.47h-8.524a6.081 6.081 0 0 0 1.01-3.288 4.227 4.227 0 1 0-8.455 0c0 1.13.37 2.334 1.009 3.288h-7.585a.47.47 0 0 0-.47.47v7.585a6.082 6.082 0 0 0-3.288-1.01 4.227 4.227 0 1 0 0 8.455c1.13 0 2.334-.371 3.288-1.01v8.525Z" fill="#0F00E2"/><path fill-rule="evenodd" clip-rule="evenodd" d="M52.242 34.097a6.08 6.08 0 0 1 2.817.726l.001-6.362h-9.05a.47.47 0 0 1-.327-.808c.852-.822 1.393-2.186 1.393-3.42a3.288 3.288 0 0 0-6.576 0c0 1.234.54 2.598 1.392 3.42a.47.47 0 0 1-.326.808h-8.111v8.112a.47.47 0 0 1-.808.326c-.822-.852-2.186-1.393-3.42-1.393a3.288 3.288 0 1 0 0 6.576c1.234 0 2.598-.54 3.42-1.392a.47.47 0 0 1 .808.326v9.051h6.363a6.08 6.08 0 0 1-.727-2.818 4.227 4.227 0 1 1 8.454 0 6.079 6.079 0 0 1-.727 2.818h8.236l.002-8.24a6.08 6.08 0 0 1-2.814.725 4.227 4.227 0 0 1 0-8.455Zm-.145-.197v-.003h.145a6.27 6.27 0 0 1 2.617.602l.001-5.838h-8.85a.67.67 0 0 1-.465-1.152c.809-.78 1.33-2.09 1.33-3.276a3.088 3.088 0 0 0-6.175 0c0 1.185.522 2.496 1.331 3.276a.67.67 0 0 1-.465 1.152h-7.912v7.912a.67.67 0 0 1-1.151.465c-.78-.81-2.091-1.332-3.276-1.332a3.088 3.088 0 0 0 0 6.176c1.185 0 2.495-.522 3.276-1.331a.67.67 0 0 1 1.151.465v8.851h5.84a6.27 6.27 0 0 1-.603-2.618 4.427 4.427 0 1 1 8.855 0 6.27 6.27 0 0 1-.603 2.618h7.711l.002-7.715a6.28 6.28 0 0 1-2.614.6 4.427 4.427 0 0 1-.145-8.852ZM56 27.992a.47.47 0 0 0-.47-.47h-8.524a6.086 6.086 0 0 0 1.01-3.288 4.227 4.227 0 1 0-8.455 0 6.088 6.088 0 0 0 1.01 3.288h-7.586a.47.47 0 0 0-.47.47v7.585a6.088 6.088 0 0 0-3.288-1.01 4.227 4.227 0 1 0 0 8.455 6.086 6.086 0 0 0 3.288-1.01v8.525c0 .26.21.47.47.47h7.693a.47.47 0 0 0 .372-.757c-.639-.827-1.02-1.971-1.02-3a3.288 3.288 0 1 1 6.576 0c0 1.029-.381 2.173-1.02 3a.47.47 0 0 0 .373.757h9.565c.26 0 .47-.21.47-.47l.002-9.569a.47.47 0 0 0-.756-.372 5.13 5.13 0 0 1-2.997 1.017 3.288 3.288 0 0 1 0-6.576 5.13 5.13 0 0 1 2.999 1.017.47.47 0 0 0 .756-.372l.002-7.69Zm-.88 8.22a.67.67 0 0 0 1.078-.53l.002-7.69c0-.37-.3-.67-.67-.67h-8.163c.54-.93.849-2.038.849-3.088a4.427 4.427 0 1 0-8.855 0c0 1.05.309 2.159.849 3.088h-7.225c-.37 0-.67.3-.67.67v7.224a6.286 6.286 0 0 0-3.087-.849 4.427 4.427 0 1 0 0 8.855c1.05 0 2.158-.309 3.087-.849v8.164c0 .37.3.67.67.67h7.693a.67.67 0 0 0 .53-1.079 4.93 4.93 0 0 1-.978-2.879 3.088 3.088 0 1 1 6.176 0c0 .986-.367 2.087-.977 2.879a.67.67 0 0 0 .53 1.079h9.565c.37 0 .67-.3.67-.67l.002-9.569a.67.67 0 0 0-1.078-.53 4.93 4.93 0 0 1-2.875.975 3.088 3.088 0 0 1 0-6.176 4.93 4.93 0 0 1 2.877.976Z" fill="#0F00E2"/><path d="M104.242 193.091a4.227 4.227 0 0 0 0 8.455c.942 0 1.949-.261 2.814-.725l-.002 8.24h-8.236a6.101 6.101 0 0 0 .727-2.819 4.228 4.228 0 0 0-8.454 0c0 .944.262 1.952.727 2.819h-6.364v-9.052a.47.47 0 0 0-.808-.326c-.821.852-2.185 1.393-3.419 1.393a3.289 3.289 0 0 1 0-6.576c1.234 0 2.598.54 3.42 1.392a.47.47 0 0 0 .807-.326v-8.112h8.112a.47.47 0 0 0 .326-.808c-.852-.821-1.392-2.185-1.392-3.419a3.288 3.288 0 1 1 6.576 0c0 1.234-.54 2.598-1.393 3.419a.47.47 0 0 0 .326.808h9.051l-.002 6.362a6.103 6.103 0 0 0-2.816-.725ZM84.515 209.53c0 .26.21.47.47.47h7.693a.47.47 0 0 0 .371-.756 5.131 5.131 0 0 1-1.019-3.001 3.288 3.288 0 1 1 6.576 0 5.132 5.132 0 0 1-1.02 3.001.47.47 0 0 0 .373.756h9.565c.259 0 .469-.21.469-.469l.003-9.569a.47.47 0 0 0-.756-.373 5.125 5.125 0 0 1-2.998 1.017 3.289 3.289 0 0 1 0-6.576 5.13 5.13 0 0 1 2.999 1.018.47.47 0 0 0 .757-.372l.002-7.691a.47.47 0 0 0-.47-.47h-8.524a6.08 6.08 0 0 0 1.009-3.288 4.227 4.227 0 1 0-8.454 0c0 1.13.37 2.334 1.009 3.288h-7.585a.47.47 0 0 0-.47.47v7.585a6.085 6.085 0 0 0-3.288-1.009 4.227 4.227 0 1 0 0 8.454c1.13 0 2.334-.371 3.288-1.009v8.524Z" fill="#0F00E2"/><path fill-rule="evenodd" clip-rule="evenodd" d="M104.242 193.091a6.088 6.088 0 0 1 2.817.725l.001-6.362h-9.05a.47.47 0 0 1-.327-.808c.852-.821 1.393-2.185 1.393-3.419a3.288 3.288 0 1 0-6.576 0c0 1.234.54 2.598 1.392 3.419a.47.47 0 0 1-.325.808h-8.112v8.112a.47.47 0 0 1-.808.326c-.822-.852-2.186-1.392-3.42-1.392a3.288 3.288 0 0 0 0 6.576c1.234 0 2.598-.541 3.42-1.393a.47.47 0 0 1 .807.326v9.052h6.364a6.085 6.085 0 0 1-.727-2.819 4.227 4.227 0 0 1 8.454 0 6.083 6.083 0 0 1-.727 2.819h8.236l.002-8.24a6.075 6.075 0 0 1-2.814.725 4.228 4.228 0 0 1 0-8.455Zm-.145-.198.001-.002h.144a6.28 6.28 0 0 1 2.617.601l.001-5.838h-8.85a.67.67 0 0 1-.466-1.152c.81-.78 1.332-2.09 1.332-3.275a3.088 3.088 0 0 0-6.176 0c0 1.185.522 2.495 1.331 3.275a.67.67 0 0 1-.465 1.152h-7.912v7.912a.67.67 0 0 1-1.151.465c-.78-.809-2.091-1.331-3.276-1.331a3.088 3.088 0 1 0 0 6.176c1.185 0 2.495-.522 3.276-1.332a.67.67 0 0 1 1.151.465v8.852h5.84a6.274 6.274 0 0 1-.603-2.619 4.427 4.427 0 1 1 8.855 0c0 .873-.216 1.795-.603 2.619h7.711l.002-7.716a6.266 6.266 0 0 1-2.614.601 4.428 4.428 0 0 1-.145-8.853Zm3.903-5.908a.47.47 0 0 0-.469-.47h-8.525a6.086 6.086 0 0 0 1.009-3.288 4.227 4.227 0 0 0-8.454 0 6.088 6.088 0 0 0 1.01 3.288h-7.586a.47.47 0 0 0-.47.47v7.585a6.085 6.085 0 0 0-3.288-1.009 4.227 4.227 0 1 0 0 8.454 6.086 6.086 0 0 0 3.288-1.009v8.525c0 .259.21.469.47.469h7.693a.47.47 0 0 0 .371-.756 5.131 5.131 0 0 1-1.019-3.001 3.288 3.288 0 1 1 6.576 0 5.132 5.132 0 0 1-1.02 3.001.47.47 0 0 0 .373.756h9.565a.47.47 0 0 0 .47-.469l.002-9.569a.47.47 0 0 0-.756-.373 5.125 5.125 0 0 1-2.997 1.017 3.288 3.288 0 1 1 0-6.576c1.028 0 2.171.381 2.999 1.018a.47.47 0 0 0 .756-.372l.002-7.691Zm-.88 8.221a.67.67 0 0 0 1.078-.53l.002-7.691a.67.67 0 0 0-.669-.67h-8.164c.54-.929.848-2.038.848-3.088a4.427 4.427 0 1 0-8.854 0c0 1.05.308 2.159.849 3.088h-7.225c-.37 0-.67.3-.67.67v7.224a6.288 6.288 0 0 0-3.087-.848 4.427 4.427 0 1 0 0 8.854c1.05 0 2.158-.308 3.087-.849v8.165c0 .369.3.669.67.669h7.693a.67.67 0 0 0 .53-1.079 4.93 4.93 0 0 1-.978-2.878 3.088 3.088 0 1 1 6.176 0c0 .986-.367 2.087-.977 2.878a.67.67 0 0 0 .53 1.079h9.565c.37 0 .669-.3.67-.669l.002-9.569a.67.67 0 0 0-1.078-.531 4.93 4.93 0 0 1-2.875.975 3.088 3.088 0 1 1 0-6.176c.985 0 2.085.367 2.877.976Z" fill="#0F00E2"/><path d="M308.242 108.091a4.227 4.227 0 0 0 0 8.455c.942 0 1.949-.261 2.814-.725l-.002 8.24h-8.236a6.092 6.092 0 0 0 .727-2.819 4.227 4.227 0 0 0-8.454 0c0 .944.261 1.952.727 2.819h-6.364v-9.052a.47.47 0 0 0-.808-.326c-.821.852-2.185 1.393-3.419 1.393a3.289 3.289 0 0 1 0-6.576c1.234 0 2.598.54 3.419 1.392a.47.47 0 0 0 .808-.326v-8.112h8.112a.47.47 0 0 0 .326-.808c-.852-.821-1.392-2.185-1.392-3.42a3.288 3.288 0 0 1 6.576 0c0 1.234-.541 2.599-1.393 3.42a.47.47 0 0 0 .326.808h9.051l-.002 6.362a6.103 6.103 0 0 0-2.816-.725Zm-19.727 16.439c0 .26.21.47.47.47h7.693a.47.47 0 0 0 .371-.756 5.132 5.132 0 0 1-1.019-3.001 3.288 3.288 0 1 1 6.576 0 5.132 5.132 0 0 1-1.019 3.001.47.47 0 0 0 .372.756h9.565c.259 0 .469-.21.469-.469l.003-9.569a.47.47 0 0 0-.756-.373 5.125 5.125 0 0 1-2.998 1.017 3.289 3.289 0 0 1 0-6.576 5.13 5.13 0 0 1 2.999 1.018.47.47 0 0 0 .757-.372l.002-7.691a.47.47 0 0 0-.47-.47h-8.524a6.085 6.085 0 0 0 1.009-3.288 4.227 4.227 0 1 0-8.454 0c0 1.13.371 2.334 1.009 3.288h-7.585a.47.47 0 0 0-.47.47v7.585a6.084 6.084 0 0 0-3.288-1.009 4.227 4.227 0 0 0 0 8.454c1.13 0 2.334-.371 3.288-1.009v8.524Z" fill="#0F00E2"/><path fill-rule="evenodd" clip-rule="evenodd" d="M308.242 108.091a6.088 6.088 0 0 1 2.817.725l.001-6.362h-9.051a.47.47 0 0 1-.326-.808c.853-.821 1.393-2.185 1.393-3.42a3.288 3.288 0 0 0-6.576 0c0 1.235.54 2.599 1.392 3.42a.47.47 0 0 1-.325.808h-8.113v8.112a.47.47 0 0 1-.807.326c-.822-.852-2.186-1.392-3.42-1.392a3.288 3.288 0 1 0 0 6.576c1.234 0 2.598-.541 3.42-1.393a.47.47 0 0 1 .807.326v9.052h6.364a6.083 6.083 0 0 1-.727-2.819 4.228 4.228 0 0 1 8.454 0 6.083 6.083 0 0 1-.727 2.819h8.236l.002-8.24a6.075 6.075 0 0 1-2.814.725 4.228 4.228 0 0 1 0-8.455Zm-.145-.198.001-.002h.144a6.28 6.28 0 0 1 2.617.601l.001-5.838h-8.851a.67.67 0 0 1-.464-1.152c.809-.78 1.331-2.09 1.331-3.275a3.088 3.088 0 0 0-6.176 0c0 1.185.522 2.495 1.331 3.275a.67.67 0 0 1-.464 1.152h-7.913v7.912a.67.67 0 0 1-1.151.465c-.781-.809-2.091-1.331-3.276-1.331a3.088 3.088 0 1 0 0 6.176c1.185 0 2.495-.522 3.276-1.332a.67.67 0 0 1 1.151.465v8.852h5.839a6.274 6.274 0 0 1-.602-2.619 4.427 4.427 0 1 1 8.854 0c0 .873-.215 1.795-.602 2.619h7.711l.002-7.716a6.266 6.266 0 0 1-2.614.601 4.428 4.428 0 0 1-.145-8.853Zm3.903-5.908a.47.47 0 0 0-.469-.47h-8.525a6.085 6.085 0 0 0 1.009-3.288 4.227 4.227 0 1 0-8.454 0 6.095 6.095 0 0 0 1.009 3.288h-7.585a.47.47 0 0 0-.47.47v7.585a6.086 6.086 0 0 0-3.288-1.009 4.227 4.227 0 0 0 0 8.454 6.086 6.086 0 0 0 3.288-1.009v8.525c0 .259.21.469.47.469h7.693c.39 0 .61-.448.371-.756a5.132 5.132 0 0 1-1.019-3.001 3.288 3.288 0 1 1 6.576 0 5.132 5.132 0 0 1-1.019 3.001.47.47 0 0 0 .372.756h9.565a.47.47 0 0 0 .47-.469l.002-9.569a.47.47 0 0 0-.756-.373 5.125 5.125 0 0 1-2.997 1.017 3.288 3.288 0 1 1 0-6.576c1.028 0 2.171.381 2.999 1.018a.47.47 0 0 0 .756-.372l.002-7.691Zm-.88 8.221a.67.67 0 0 0 1.078-.53l.002-7.691a.67.67 0 0 0-.669-.67h-8.164c.54-.929.848-2.038.848-3.088a4.427 4.427 0 1 0-8.854 0c0 1.05.309 2.159.849 3.088h-7.225c-.37 0-.67.3-.67.67v7.224a6.287 6.287 0 0 0-3.088-.848 4.427 4.427 0 1 0 0 8.854c1.05 0 2.159-.308 3.088-.849v8.165c0 .369.3.669.67.669h7.693a.67.67 0 0 0 .53-1.079c-.611-.791-.978-1.892-.978-2.878a3.088 3.088 0 1 1 6.176 0c0 .986-.367 2.087-.977 2.878a.67.67 0 0 0 .53 1.079h9.565c.37 0 .669-.3.67-.669l.002-9.569a.67.67 0 0 0-1.078-.531 4.93 4.93 0 0 1-2.875.975 3.088 3.088 0 1 1 0-6.176c.985 0 2.085.367 2.877.976Z" fill="#0F00E2"/><path d="M233.697 174.636a2.591 2.591 0 1 0 0 5.182c.577 0 1.194-.16 1.725-.444l-.002 5.05h-5.047a3.738 3.738 0 0 0 .445-1.727 2.591 2.591 0 1 0-5.182 0c0 .578.161 1.196.446 1.727h-3.9v-5.547a.288.288 0 0 0-.495-.2c-.504.522-1.34.853-2.096.853a2.015 2.015 0 1 1 0-4.03c.756 0 1.592.331 2.096.853a.288.288 0 0 0 .495-.2v-4.971h4.972a.288.288 0 0 0 .199-.496c-.522-.503-.853-1.339-.853-2.095a2.016 2.016 0 1 1 4.03 0c0 .756-.331 1.592-.853 2.095a.288.288 0 0 0 .2.496h5.547l-.001 3.899a3.738 3.738 0 0 0-1.726-.445Zm-12.091 10.076c0 .159.129.288.288.288h4.715a.288.288 0 0 0 .228-.464 3.143 3.143 0 0 1-.625-1.839 2.015 2.015 0 1 1 4.03 0c0 .631-.233 1.332-.624 1.839a.288.288 0 0 0 .228.464h5.862a.288.288 0 0 0 .288-.288l.002-5.865a.288.288 0 0 0-.464-.228 3.144 3.144 0 0 1-1.837.623 2.015 2.015 0 1 1 0-4.03 3.14 3.14 0 0 1 1.838.624.288.288 0 0 0 .464-.228l.001-4.714a.288.288 0 0 0-.288-.288h-5.225a3.723 3.723 0 0 0 .619-2.015 2.591 2.591 0 1 0-5.182 0c0 .692.228 1.43.619 2.015h-4.649a.288.288 0 0 0-.288.288v4.649a3.729 3.729 0 0 0-2.015-.619 2.591 2.591 0 1 0 0 5.182 3.72 3.72 0 0 0 2.015-.619v5.225Z" fill="#0F00E2"/><path fill-rule="evenodd" clip-rule="evenodd" d="M233.697 174.636a3.705 3.705 0 0 1 1.726.445l.001-3.899h-5.547a.289.289 0 0 1-.2-.496c.522-.503.853-1.339.853-2.095a2.015 2.015 0 1 0-4.03 0c0 .756.331 1.592.853 2.095.187.18.06.496-.199.496h-4.972v4.972a.288.288 0 0 1-.495.199c-.504-.522-1.34-.853-2.096-.853a2.015 2.015 0 1 0 0 4.03c.756 0 1.592-.331 2.096-.853a.288.288 0 0 1 .495.2v5.547h3.9a3.72 3.72 0 0 1-.445-1.727 2.59 2.59 0 1 1 5.181 0 3.705 3.705 0 0 1-.445 1.727h5.047l.002-5.05a3.715 3.715 0 0 1-1.725.444 2.591 2.591 0 1 1 0-5.182Zm-.146-.196a2.792 2.792 0 0 0 .146 5.578 3.9 3.9 0 0 0 1.525-.326l-.002 4.532h-4.529a3.893 3.893 0 0 0 .327-1.527 2.79 2.79 0 1 0-5.581 0c0 .508.116 1.041.326 1.527h-3.381v-5.347a.488.488 0 0 0-.839-.339c-.463.479-1.245.792-1.952.792a1.816 1.816 0 0 1 0-3.63c.707 0 1.489.313 1.952.792a.488.488 0 0 0 .839-.338v-4.772h4.772a.488.488 0 0 0 .338-.839c-.479-.463-.792-1.245-.792-1.952a1.815 1.815 0 1 1 3.63 0c0 .707-.312 1.489-.792 1.951-.316.305-.1.84.339.84h5.347l-.001 3.381a3.888 3.888 0 0 0-1.526-.327h-.144l-.002.004Zm2.449-3.546a.288.288 0 0 0-.288-.288h-5.224a3.707 3.707 0 0 0 .618-2.015 2.591 2.591 0 1 0-5.181 0 3.728 3.728 0 0 0 .618 2.015h-4.649a.288.288 0 0 0-.288.288v4.649a3.726 3.726 0 0 0-2.015-.619 2.591 2.591 0 1 0 0 5.182 3.736 3.736 0 0 0 2.015-.619v5.225c0 .159.129.288.288.288h4.715a.288.288 0 0 0 .228-.464 3.143 3.143 0 0 1-.625-1.839 2.015 2.015 0 1 1 4.031 0c0 .631-.234 1.332-.625 1.839a.288.288 0 0 0 .228.464h5.862a.288.288 0 0 0 .288-.288l.002-5.865a.288.288 0 0 0-.464-.228 3.142 3.142 0 0 1-1.837.623 2.015 2.015 0 1 1 0-4.03 3.14 3.14 0 0 1 1.838.624c.19.146.464.011.464-.228l.001-4.714Zm-.587 5.1a.488.488 0 0 0 .786-.386l.001-4.714a.488.488 0 0 0-.488-.488h-4.872a3.919 3.919 0 0 0 .466-1.815 2.79 2.79 0 1 0-5.581 0c0 .614.168 1.259.465 1.815h-4.296a.488.488 0 0 0-.488.488v4.296a3.931 3.931 0 0 0-1.815-.466 2.792 2.792 0 0 0 0 5.582c.614 0 1.259-.168 1.815-.466v4.872c0 .27.219.488.488.488h4.715a.488.488 0 0 0 .386-.786 2.946 2.946 0 0 1-.583-1.717 1.816 1.816 0 0 1 3.631 0c0 .588-.22 1.246-.583 1.717a.488.488 0 0 0 .386.786h5.862c.27 0 .488-.218.488-.487l.002-5.865a.488.488 0 0 0-.786-.387 2.94 2.94 0 0 1-1.715.581 1.815 1.815 0 1 1 0-3.63c.587 0 1.245.219 1.716.582Z" fill="#0F00E2"/><path d="M235.697 17.636a2.59 2.59 0 1 0 0 5.182c.577 0 1.194-.16 1.725-.444l-.002 5.05h-5.047a3.74 3.74 0 0 0 .445-1.727 2.59 2.59 0 1 0-5.182 0c0 .578.161 1.196.446 1.727h-3.9v-5.547a.288.288 0 0 0-.495-.2c-.504.522-1.34.853-2.096.853a2.015 2.015 0 0 1 0-4.03c.756 0 1.592.331 2.096.853.179.187.495.06.495-.2v-4.971h4.972a.288.288 0 0 0 .199-.496c-.522-.503-.853-1.34-.853-2.095a2.015 2.015 0 1 1 4.03 0c0 .756-.331 1.592-.853 2.095a.288.288 0 0 0 .2.496h5.547l-.001 3.899a3.741 3.741 0 0 0-1.726-.445Zm-12.091 10.076c0 .16.129.288.288.288h4.715a.288.288 0 0 0 .228-.464 3.144 3.144 0 0 1-.625-1.839 2.015 2.015 0 1 1 4.03 0c0 .631-.233 1.332-.624 1.84a.288.288 0 0 0 .228.463h5.862a.288.288 0 0 0 .288-.288l.002-5.865a.288.288 0 0 0-.464-.228 3.143 3.143 0 0 1-1.837.623 2.015 2.015 0 0 1 0-4.03 3.14 3.14 0 0 1 1.838.624.288.288 0 0 0 .464-.228l.001-4.714a.288.288 0 0 0-.288-.288h-5.225a3.722 3.722 0 0 0 .619-2.015 2.59 2.59 0 1 0-5.182 0c0 .692.228 1.43.619 2.015h-4.649a.288.288 0 0 0-.288.288v4.649a3.727 3.727 0 0 0-2.015-.619 2.59 2.59 0 1 0 0 5.182 3.72 3.72 0 0 0 2.015-.619v5.225Z" fill="#0F00E2"/><path fill-rule="evenodd" clip-rule="evenodd" d="M235.697 17.636a3.716 3.716 0 0 1 1.726.445l.001-3.9h-5.547a.288.288 0 0 1-.2-.494c.522-.504.853-1.34.853-2.096a2.015 2.015 0 1 0-4.03 0c0 .756.331 1.592.853 2.096.187.18.06.495-.199.495h-4.972v4.972a.288.288 0 0 1-.495.2c-.504-.523-1.34-.854-2.096-.854a2.015 2.015 0 1 0 0 4.03c.756 0 1.592-.33 2.096-.853a.288.288 0 0 1 .495.2v5.547h3.9a3.724 3.724 0 0 1-.445-1.727 2.59 2.59 0 1 1 5.181 0 3.71 3.71 0 0 1-.445 1.727h5.047l.002-5.05a3.717 3.717 0 0 1-1.725.444 2.59 2.59 0 1 1 0-5.182Zm-.146-.196a2.791 2.791 0 0 0 .146 5.578 3.9 3.9 0 0 0 1.525-.326l-.002 4.532h-4.529c.211-.486.327-1.02.327-1.527a2.79 2.79 0 1 0-5.581 0c0 .508.116 1.041.326 1.527h-3.381v-5.347a.488.488 0 0 0-.839-.34c-.463.48-1.245.793-1.952.793a1.815 1.815 0 0 1 0-3.63c.707 0 1.489.313 1.952.792.304.316.839.1.839-.338v-4.772h4.772a.488.488 0 0 0 .338-.84c-.479-.462-.792-1.244-.792-1.951a1.815 1.815 0 0 1 3.63 0c0 .707-.312 1.49-.792 1.952a.488.488 0 0 0 .339.839h5.347l-.001 3.38a3.903 3.903 0 0 0-1.526-.326h-.144l-.002.004ZM238 13.894a.288.288 0 0 0-.288-.288h-5.224a3.727 3.727 0 0 0 .618-2.015 2.59 2.59 0 0 0-5.181 0 3.727 3.727 0 0 0 .618 2.015h-4.649a.288.288 0 0 0-.288.288v4.649a3.728 3.728 0 0 0-2.015-.619 2.59 2.59 0 1 0 0 5.182 3.727 3.727 0 0 0 2.015-.619v5.225c0 .16.129.288.288.288h4.715a.288.288 0 0 0 .228-.464 3.144 3.144 0 0 1-.625-1.839 2.015 2.015 0 1 1 4.031 0c0 .631-.234 1.332-.625 1.84a.288.288 0 0 0 .228.463h5.862a.288.288 0 0 0 .288-.288l.002-5.864a.288.288 0 0 0-.464-.229 3.141 3.141 0 0 1-1.837.623 2.015 2.015 0 0 1 0-4.03 3.14 3.14 0 0 1 1.838.624c.19.146.464.01.464-.228l.001-4.714Zm-.587 5.1a.488.488 0 0 0 .786-.386l.001-4.714a.488.488 0 0 0-.488-.488h-4.872a3.919 3.919 0 0 0 .466-1.815 2.79 2.79 0 1 0-5.581 0c0 .614.168 1.26.465 1.815h-4.296a.488.488 0 0 0-.488.488v4.296a3.925 3.925 0 0 0-1.815-.466 2.791 2.791 0 0 0 0 5.582c.614 0 1.259-.168 1.815-.466v4.872c0 .27.219.488.488.488h4.715a.488.488 0 0 0 .386-.786 2.947 2.947 0 0 1-.583-1.717 1.815 1.815 0 0 1 3.631 0c0 .588-.22 1.246-.583 1.717a.488.488 0 0 0 .386.786h5.862c.27 0 .488-.218.488-.488l.002-5.864a.488.488 0 0 0-.786-.387 2.942 2.942 0 0 1-1.715.581 1.815 1.815 0 0 1 0-3.63c.587 0 1.245.22 1.716.582Z" fill="#0F00E2"/><path d="M25.697 146.636a2.59 2.59 0 0 0 0 5.182c.577 0 1.194-.16 1.725-.444l-.002 5.05h-5.048a3.737 3.737 0 0 0 .446-1.727 2.591 2.591 0 0 0-5.182 0c0 .578.16 1.196.446 1.727h-3.9v-5.547a.288.288 0 0 0-.495-.2c-.504.522-1.34.853-2.096.853a2.015 2.015 0 1 1 0-4.03c.756 0 1.592.331 2.096.853.18.187.495.059.495-.2v-4.971h4.972a.288.288 0 0 0 .2-.496c-.523-.503-.854-1.339-.854-2.095a2.016 2.016 0 1 1 4.03 0c0 .756-.33 1.592-.853 2.095a.288.288 0 0 0 .2.496h5.547l-.001 3.899a3.735 3.735 0 0 0-1.726-.445Zm-12.091 10.076c0 .159.129.288.288.288h4.715a.288.288 0 0 0 .228-.464 3.142 3.142 0 0 1-.625-1.839 2.015 2.015 0 1 1 4.03 0c0 .631-.233 1.332-.624 1.839a.288.288 0 0 0 .228.464h5.862a.288.288 0 0 0 .288-.288l.002-5.865a.288.288 0 0 0-.464-.228 3.145 3.145 0 0 1-1.837.623 2.015 2.015 0 1 1 0-4.03c.63 0 1.331.233 1.838.624.19.145.463.011.464-.228l.001-4.714a.288.288 0 0 0-.288-.288h-5.224a3.728 3.728 0 0 0 .618-2.015 2.59 2.59 0 1 0-5.182 0c0 .692.228 1.43.619 2.015h-4.649a.288.288 0 0 0-.288.288v4.649a3.73 3.73 0 0 0-2.015-.619 2.59 2.59 0 1 0 0 5.182c.692 0 1.43-.227 2.015-.619v5.225Z" fill="#0F00E2"/><path fill-rule="evenodd" clip-rule="evenodd" d="M25.697 146.636a3.705 3.705 0 0 1 1.726.445l.001-3.899h-5.547a.288.288 0 0 1-.2-.496c.522-.503.854-1.339.854-2.095a2.015 2.015 0 0 0-4.03 0c0 .756.33 1.592.852 2.095.187.18.06.496-.2.496h-4.971v4.972a.288.288 0 0 1-.495.199c-.504-.522-1.34-.853-2.096-.853a2.015 2.015 0 1 0 0 4.03c.756 0 1.592-.331 2.096-.853a.288.288 0 0 1 .495.2v5.547h3.9a3.713 3.713 0 0 1-.445-1.727 2.59 2.59 0 1 1 5.181 0 3.712 3.712 0 0 1-.445 1.727h5.047l.002-5.05a3.713 3.713 0 0 1-1.725.444 2.59 2.59 0 1 1 0-5.182Zm-.146-.196a2.791 2.791 0 0 0 .146 5.578 3.9 3.9 0 0 0 1.525-.326l-.002 4.532h-4.529a3.9 3.9 0 0 0 .327-1.527 2.791 2.791 0 0 0-5.582 0c0 .508.117 1.041.327 1.527h-3.381v-5.347a.488.488 0 0 0-.84-.339c-.461.479-1.244.792-1.951.792a1.815 1.815 0 0 1 0-3.63c.707 0 1.49.313 1.952.792a.488.488 0 0 0 .839-.338v-4.772h4.772a.488.488 0 0 0 .338-.839c-.48-.463-.792-1.245-.792-1.952a1.815 1.815 0 1 1 3.63 0c0 .707-.312 1.489-.792 1.951-.316.305-.1.84.339.84h5.347v3.381a3.89 3.89 0 0 0-1.527-.327h-.144l-.002.004Zm2.45-3.546a.288.288 0 0 0-.289-.288h-5.224a3.73 3.73 0 0 0 .619-2.015 2.59 2.59 0 1 0-5.182 0 3.73 3.73 0 0 0 .618 2.015h-4.649a.288.288 0 0 0-.288.288v4.649a3.728 3.728 0 0 0-2.015-.619 2.59 2.59 0 0 0 0 5.182 3.738 3.738 0 0 0 2.015-.619v5.225c0 .159.129.288.288.288h4.715a.288.288 0 0 0 .228-.464 3.142 3.142 0 0 1-.625-1.839 2.015 2.015 0 1 1 4.03 0c0 .631-.233 1.332-.624 1.839a.288.288 0 0 0 .228.464h5.862a.288.288 0 0 0 .288-.288l.002-5.865a.288.288 0 0 0-.463-.228 3.145 3.145 0 0 1-1.838.623 2.015 2.015 0 1 1 0-4.03c.63 0 1.331.233 1.838.624.19.146.464.011.464-.228l.001-4.714Zm-.588 5.1a.488.488 0 0 0 .786-.386l.001-4.714a.488.488 0 0 0-.488-.488H22.84a3.923 3.923 0 0 0 .466-1.815 2.791 2.791 0 0 0-5.581 0c0 .614.168 1.259.465 1.815h-4.296a.488.488 0 0 0-.488.488v4.296a3.93 3.93 0 0 0-1.815-.466 2.791 2.791 0 0 0 0 5.582c.614 0 1.26-.168 1.815-.466v4.872c0 .27.218.488.488.488h4.715a.488.488 0 0 0 .386-.786 2.941 2.941 0 0 1-.583-1.717 1.815 1.815 0 0 1 3.63 0 2.94 2.94 0 0 1-.583 1.717.488.488 0 0 0 .387.786h5.862c.27 0 .488-.218.488-.487l.002-5.865a.488.488 0 0 0-.786-.387 2.942 2.942 0 0 1-1.715.581 1.815 1.815 0 1 1 0-3.63c.587 0 1.245.219 1.716.582Zm98.785-69.428a.599.599 0 0 0 .368-.764l-1.781-5.098a.6.6 0 1 0-1.133.396l1.304 3.73-53.39-25.741 3.73-1.304a.6.6 0 0 0-.396-1.132l-5.098 1.78a.6.6 0 0 0-.368.765l1.78 5.098a.6.6 0 1 0 1.134-.396l-1.304-3.73 53.391 25.741-3.731 1.304a.6.6 0 0 0 .396 1.133l5.098-1.782Zm142.206 28.878a.6.6 0 0 0 .04-.848l-3.633-3.995a.6.6 0 1 0-.887.807l2.658 2.924-39.107-1.862 2.924-2.658a.6.6 0 1 0-.807-.888l-3.996 3.632a.6.6 0 0 0-.04.848l3.632 3.995a.6.6 0 1 0 .888-.807l-2.658-2.924 39.106 1.862-2.923 2.658a.6.6 0 1 0 .807.888l3.996-3.632Zm-124.1 35.094a.6.6 0 0 0-.612-.588l-5.399.11a.6.6 0 0 0 .025 1.2l3.95-.081-27.114 28.242-.08-3.951a.601.601 0 0 0-1.2.024l.11 5.399a.6.6 0 0 0 .612.588l5.399-.11a.6.6 0 0 0-.025-1.2l-3.95.081 27.114-28.242.08 3.951a.6.6 0 1 0 1.2-.025l-.11-5.398ZM219.581 35.85a.6.6 0 0 0-.73-.431l-5.23 1.345a.6.6 0 0 0 .299 1.162l3.827-.984-11.526 19.506-.985-3.827a.6.6 0 1 0-1.162.298l1.345 5.23a.6.6 0 0 0 .731.432l5.229-1.345a.6.6 0 1 0-.298-1.162l-3.827.984 11.526-19.506.984 3.827a.6.6 0 1 0 1.162-.299l-1.345-5.23Zm-15.85 105.554a.601.601 0 0 0-.668.524l-.646 5.361a.6.6 0 1 0 1.191.144l.473-3.923 11.552 14.721-3.923-.473a.599.599 0 1 0-.143 1.191l5.361.647a.6.6 0 0 0 .667-.524l.647-5.361a.6.6 0 0 0-1.192-.144l-.473 3.923-11.552-14.721 3.923.473a.6.6 0 0 0 .144-1.191l-5.361-.647Zm-79.437-23.927a.6.6 0 0 1 .229.817l-2.647 4.707a.6.6 0 0 1-1.046-.588l1.937-3.444-81.849 22.932 3.444 1.936a.6.6 0 0 1-.588 1.046l-4.707-2.646a.6.6 0 0 1-.229-.817l2.647-4.707a.6.6 0 1 1 1.046.588l-1.937 3.444 81.849-22.932-3.444-1.937a.6.6 0 1 1 .588-1.046l4.707 2.647Z" fill="#0F00E2"/><path d="M225 99.5c0 28.443-23.057 51.5-51.5 51.5S122 127.943 122 99.5 145.057 48 173.5 48 225 71.057 225 99.5Z" fill="#58B1F4" stroke="#0F00E2" stroke-width="2"/><path fill-rule="evenodd" clip-rule="evenodd" d="M230 38c9.941 0 18-8.059 18-18s-8.059-18-18-18-18 8.059-18 18 8.059 18 18 18Zm0 2c11.046 0 20-8.954 20-20s-8.954-20-20-20-20 8.954-20 20 8.954 20 20 20Zm-2 154c9.941 0 18-8.059 18-18s-8.059-18-18-18-18 8.059-18 18 8.059 18 18 18Zm0 2c11.046 0 20-8.954 20-20s-8.954-20-20-20-20 8.954-20 20 8.954 20 20 20ZM20 167c9.941 0 18-8.059 18-18s-8.059-18-18-18-18 8.059-18 18 8.059 18 18 18Zm0 2c11.046 0 20-8.954 20-20s-8.954-20-20-20-20 8.954-20 20 8.954 20 20 20Zm278-30c15.464 0 28-12.536 28-28s-12.536-28-28-28-28 12.536-28 28 12.536 28 28 28Zm0 2c16.569 0 30-13.431 30-30 0-16.569-13.431-30-30-30-16.569 0-30 13.431-30 30 0 16.569 13.431 30 30 30ZM95 224c15.464 0 28-12.536 28-28s-12.536-28-28-28-28 12.536-28 28 12.536 28 28 28Zm0 2c16.569 0 30-13.431 30-30 0-16.569-13.431-30-30-30-16.569 0-30 13.431-30 30 0 16.569 13.431 30 30 30ZM43 65c15.464 0 28-12.536 28-28S58.464 9 43 9 15 21.536 15 37s12.536 28 28 28Zm0 2c16.569 0 30-13.431 30-30C73 20.431 59.569 7 43 7 26.431 7 13 20.431 13 37c0 16.569 13.431 30 30 30Z" fill="#0F00E2"/><path d="M167 98h1v6h-1v-6Zm-6 0h1v6h-1v-6Zm-6 0h1v6h-1v-6Zm33.5-1c-.928 0-1.819.421-2.475 1.171-.656.75-1.025 1.768-1.025 2.829 0 1.061.369 2.078 1.025 2.829.656.75 1.547 1.171 2.475 1.171.928 0 1.819-.421 2.475-1.171.656-.751 1.025-1.768 1.025-2.829 0-1.061-.369-2.079-1.025-2.829-.656-.75-1.547-1.171-2.475-1.171Zm0 6.667c-.619 0-1.212-.281-1.65-.782-.438-.499-.683-1.178-.683-1.885 0-.707.245-1.386.683-1.885.438-.5 1.031-.782 1.65-.782s1.212.281 1.65.782c.438.5.683 1.178.683 1.885 0 .707-.245 1.386-.683 1.885-.438.501-1.031.782-1.65.782ZM167 83h1v6h-1v-6Zm-6 0h1v6h-1v-6Zm-6 0h1v6h-1v-6Zm33.5-2c-.928 0-1.819.422-2.475 1.172-.656.75-1.025 1.767-1.025 2.828 0 1.06.369 2.078 1.025 2.828.656.75 1.547 1.172 2.475 1.172.928 0 1.819-.422 2.475-1.172.656-.75 1.025-1.767 1.025-2.828 0-1.06-.369-2.078-1.025-2.828-.656-.75-1.547-1.172-2.475-1.172Zm0 6.666c-.619 0-1.212-.28-1.65-.78-.438-.5-.683-1.179-.683-1.886 0-.707.245-1.385.683-1.886.438-.5 1.031-.78 1.65-.78s1.212.28 1.65.78c.438.5.683 1.179.683 1.886 0 .707-.245 1.385-.683 1.886-.438.5-1.031.78-1.65.78Z" fill="#0F00E2"/><path d="M201.164 80.592a7.473 7.473 0 0 0-1.493-1.976l-5.229-6.915A6.853 6.853 0 0 0 188.99 69h-30.52a6.817 6.817 0 0 0-5.273 2.478l-5.384 6.592a7.465 7.465 0 0 0-.62.552A7.386 7.386 0 0 0 145 83.87v35.934a6.194 6.194 0 0 0 6.196 6.196h44.608a6.194 6.194 0 0 0 6.196-6.196V84.006a7.355 7.355 0 0 0-.707-3.141.61.61 0 0 0-.105-.242l-.024-.03ZM146.24 83.87a6.179 6.179 0 0 1 .619-2.708l1.809-2.212a6.148 6.148 0 0 1 3.767-1.276l42.131.118h-.001a6.196 6.196 0 0 1 4.158 1.63l1.363 1.802c.441.861.672 1.814.675 2.782v8.537h-54.522l.001-8.673Zm7.911-11.586a5.576 5.576 0 0 1 4.337-2.044h30.502a5.575 5.575 0 0 1 4.461 2.212l3.389 4.479a7.401 7.401 0 0 0-2.274-.36l-42.131-.136a7.428 7.428 0 0 0-1.908.254l3.624-4.405Zm46.611 47.52a4.955 4.955 0 0 1-4.957 4.956h-44.608a4.959 4.959 0 0 1-3.505-1.451 4.959 4.959 0 0 1-1.451-3.505v-9.913h54.521v9.913Zm0-11.152H146.24v-14.87h54.522v14.87Z" fill="#0F00E2"/><path d="M172 85h8v1h-8v-1Zm0 16h8v1h-8v-1Zm-5 13h1v6h-1v-6Zm-6 0h1v6h-1v-6Zm-6 0h1v6h-1v-6Zm33.5 7c.928 0 1.819-.421 2.475-1.172.656-.75 1.025-1.768 1.025-2.828 0-1.061-.369-2.078-1.025-2.829-.656-.75-1.547-1.171-2.475-1.171-.928 0-1.819.421-2.475 1.171-.656.751-1.025 1.768-1.025 2.829 0 1.061.369 2.078 1.025 2.828.656.751 1.547 1.172 2.475 1.172Zm0-6.667c.619 0 1.212.281 1.65.781.438.5.683 1.178.683 1.886 0 .707-.245 1.386-.683 1.886-.438.499-1.031.781-1.65.781s-1.212-.282-1.65-.781c-.438-.5-.683-1.179-.683-1.886 0-.708.245-1.386.683-1.886.438-.5 1.031-.781 1.65-.781ZM172 117h8v1h-8v-1Z" fill="#0F00E2"/></svg>