<svg width="7" height="27" fill="none" xmlns="http://www.w3.org/2000/svg"><path d="M3.41 2.728v17.736" stroke="#050081" stroke-width="1.5" stroke-miterlimit="10" stroke-dasharray="2.4 2.4"/><path fill-rule="evenodd" clip-rule="evenodd" d="M0 3.193C0 1.345 1.343 0 3.19 0c1.68 0 3.191 1.345 3.191 3.193 0 1.681-1.343 3.194-3.19 3.194C1.343 6.387 0 4.874 0 3.194Z" fill="#050081"/><path d="M3.19 26.798a3.192 3.192 0 0 0 3.191-3.193 3.192 3.192 0 0 0-3.19-3.194A3.192 3.192 0 0 0 0 23.605a3.192 3.192 0 0 0 3.19 3.193Z" fill="#050081"/></svg>