<svg width="260" height="137" fill="none" xmlns="http://www.w3.org/2000/svg"><path d="M4.678 4.436v128.129" stroke="#050081" stroke-width="1.5" stroke-miterlimit="10" stroke-dasharray="2.4 2.4"/><path fill-rule="evenodd" clip-rule="evenodd" d="M0 4.682C0 1.972 1.97 0 4.678 0c2.461 0 4.677 1.971 4.677 4.682 0 2.464-1.97 4.681-4.677 4.681C1.969 9.363 0 7.146 0 4.682Z" fill="#050081"/><path d="M4.678 137a4.68 4.68 0 0 0 4.677-4.682 4.68 4.68 0 0 0-4.677-4.681A4.68 4.68 0 0 0 0 132.318 4.68 4.68 0 0 0 4.678 137Z" fill="#050081"/><path d="M260 68H8" stroke="#050081" stroke-width="1.5" stroke-miterlimit="10" stroke-dasharray="2.4 2.4"/></svg>