<svg width="260" height="137" fill="none" xmlns="http://www.w3.org/2000/svg"><path d="M255.322 4.436v128.129" stroke="#050081" stroke-width="1.5" stroke-miterlimit="10" stroke-dasharray="2.4 2.4"/><path fill-rule="evenodd" clip-rule="evenodd" d="M260 4.682C260 1.972 258.031 0 255.322 0c-2.461 0-4.677 1.971-4.677 4.682 0 2.464 1.969 4.681 4.677 4.681 2.709 0 4.678-2.217 4.678-4.681Z" fill="#050081"/><path d="M255.322 137a4.68 4.68 0 0 1-4.677-4.682 4.68 4.68 0 0 1 4.677-4.681 4.68 4.68 0 0 1 4.678 4.681 4.68 4.68 0 0 1-4.678 4.682Z" fill="#050081"/><path d="M0 68h252" stroke="#050081" stroke-width="1.5" stroke-miterlimit="10" stroke-dasharray="2.4 2.4"/></svg>