<svg width="315" height="137" fill="none" xmlns="http://www.w3.org/2000/svg"><g clip-path="url(#a)"><path d="M246.544 85.928h9.303c.931 0 1.628-.691 1.628-1.383.233-1.152-.697-2.074-1.628-2.074h-7.21c-.93 0-1.628.691-1.628 1.383l-.465 2.074Zm-.931 4.84h9.304c.93 0 1.628-.69 1.628-1.382.233-1.153-.698-2.075-1.628-2.075h-7.21c-.931 0-1.629.692-1.629 1.383l-.465 2.075Zm46.518-22.818h-40.936c-.93 0-1.628.691-1.628 1.383-.232 1.152.698 2.074 1.628 2.074h38.843c.93 0 1.628-.691 1.628-1.383l.465-2.074Zm4.419-24.202h-40.935c-.931 0-1.629.691-1.629 1.383-.232 1.152.698 2.074 1.629 2.074h38.842c.93 0 1.628-.691 1.628-1.383l.465-2.074Zm.93 19.361h-42.098c-.93 0-1.628.692-1.628 1.383-.233 1.153.698 2.075 1.628 2.075h40.005c.931 0 1.628-.692 1.628-1.383l.465-2.075Zm2.792-14.521h-45.588c-.93 0-1.628.691-1.628 1.383-.232 1.152.698 2.074 1.628 2.074h43.494c.931 0 1.628-.691 1.628-1.383l.466-2.074Zm-52.333 29.273-.232 1.383c-.233 1.153.697 2.075 1.628 2.075h7.21c.93 0 1.628-.692 1.628-1.383.233-1.153-.698-2.075-1.628-2.075h-8.606Zm36.749 12.908h10.932c.93 0 1.628-.692 1.628-1.383.232-1.153-.698-2.075-1.628-2.075h-8.839c-.93 0-1.628.692-1.628 1.383l-.465 2.075Zm2.326-37.34-.233 1.382c-.232 1.153.698 2.075 1.629 2.075h13.49c.93 0 1.628-.692 1.628-1.383.232-1.153-.698-2.075-1.628-2.075h-14.886Zm6.978 29.042H283.06c-.93 0-1.628.691-1.628 1.383-.233 1.152.698 2.074 1.628 2.074h8.838c.931 0 1.628-.691 1.628-1.383l.466-2.074Zm-8.606-20.745h15.583c.931 0 1.628-.691 1.628-1.383.233-1.152-.697-2.074-1.628-2.074h-13.49c-.93 0-1.628.691-1.628 1.383l-.465 2.074Zm1.163 11.064h-10.932c-.93 0-1.628.692-1.628 1.383-.233 1.153.698 2.075 1.628 2.075h8.839c.93 0 1.628-.692 1.628-1.383l.465-2.075Zm3.721 4.84h-10.931c-.931 0-1.629.692-1.629 1.383-.232 1.153.698 2.075 1.629 2.075h8.838c.93 0 1.628-.691 1.628-1.383l.465-2.075Zm-41.866-1.382h9.304c.93 0 1.628-.692 1.628-1.383.233-1.153-.698-2.075-1.628-2.075h-7.21c-.931 0-1.628.692-1.628 1.383l-.466 2.075Z" fill="#E20000"/><path d="m240.496 26-2.325 12.677H249.8l.233-.692C252.126 24.847 240.496 26 240.496 26ZM178.86 57.576c-1.395 7.607 4.187 13.6 12.56 13.6h13.956c5.349 0 8.14 2.305 7.442 5.992-.465 2.997-3.954 5.302-7.675 5.302h-29.306c.93-1.614 1.861-3.688 2.093-5.532 1.396-8.298-3.489-13.83-12.792-13.83h-15.351c-3.489 0-6.047-2.535-5.35-5.532.233-1.844 2.559-5.301 6.745-5.301h21.166c7.21 0 8.606-8.529 8.606-8.529h-32.097c-9.537 0-16.979 5.763-18.608 13.83-1.395 7.607 4.187 13.6 12.56 13.6h13.956c5.349 0 8.14 2.305 7.442 5.992-.465 2.997-3.954 5.302-7.675 5.302h-26.283l-10.001-38.724h-11.629s-4.187 7.146-6.978 11.295c-6.28 9.911.93 16.596.93 16.826H91.872l-7.21 12.216-6.28-12.216c7.676-1.613 13.025-6.684 14.188-13.83 1.396-7.837-3.489-14.29-11.164-14.29h-72.8C1.163 43.748 0 52.276 0 52.276h21.398l-6.745 38.493s10.7.922 13.025-11.294c1.628-8.529 4.884-27.2 4.884-27.2h38.61c5.582 0 8.606 2.306 7.908 6.224-.698 3.688-5.117 6.685-10.001 6.685h-16.98c-7.907 0-10.233 8.067-10.233 8.067L38.61 91h10.93l3.257-17.978h13.025L74.892 91H92.57l6.28-10.602h19.537L120.481 91h88.849c8.373 0 15.816-5.993 17.211-14.06 1.396-8.298-3.489-13.83-12.792-13.83h-15.351c-3.489 0-6.047-2.535-5.35-5.532.233-1.844 1.628-3.457 3.954-4.38.931-.46 1.861-.69 2.559-.69h37.447L230.263 91s9.536.922 12.327-9.22c0-.46.232-1.152.232-1.613l6.513-36.188h-52.1c-9.536-.23-16.979 5.532-18.375 13.6Zm-76.056 14.291 9.769-16.365 3.489 16.365h-13.258Zm206.77-32.729c2.791 0 4.885 2.305 4.885 5.07 0 2.767-2.094 5.072-4.885 5.072s-4.884-2.305-4.884-5.071c-.233-2.997 2.093-5.071 4.884-5.071Zm0 .691c-2.093 0-3.954 1.844-3.954 4.15 0 2.304 1.861 4.148 3.954 4.148 2.326 0 3.954-1.844 3.954-4.149 0-2.305-1.86-4.149-3.954-4.149Zm-.93 7.146h-.93v-5.532c.465 0 .93-.23 1.628-.23.93 0 1.395.23 1.86.46.233.23.466.692.466 1.153 0 .691-.466 1.152-1.163 1.383.465 0 .93.46.93 1.383.233.922.233 1.152.465 1.383h-.93c-.233-.23-.233-.692-.465-1.383-.233-.692-.466-.922-1.163-.922h-.698v2.305Zm0-3.227h.698c.697 0 1.395-.23 1.395-.922 0-.461-.465-.922-1.395-.922h-.698v1.844Z" fill="#050081"/></g><path d="M150 4v26m0 76v26" stroke="#050081" stroke-width="1.5" stroke-miterlimit="10" stroke-dasharray="2.4 2.4"/><path fill-rule="evenodd" clip-rule="evenodd" d="M145 4.682C145 1.972 146.969 0 149.678 0c2.461 0 4.677 1.971 4.677 4.682 0 2.464-1.969 4.681-4.677 4.681-2.709 0-4.678-2.217-4.678-4.681Z" fill="#050081"/><path d="M149.678 137a4.68 4.68 0 0 0 4.677-4.682 4.68 4.68 0 0 0-4.677-4.681 4.68 4.68 0 0 0-4.678 4.681 4.68 4.68 0 0 0 4.678 4.682Z" fill="#050081"/><defs><clipPath id="a"><path fill="#fff" transform="translate(0 26)" d="M0 0h314.459v65H0z"/></clipPath></defs></svg>