<svg width="31" height="20" fill="none" xmlns="http://www.w3.org/2000/svg"><mask id="a" maskUnits="userSpaceOnUse" x="0" y="0" width="31" height="20" fill="#000"><path fill="#fff" d="M0 0h31v20H0z"/><path d="M29.094 1h-17.39c-1.054 0-1.952.72-2.183 1.75l-.322 1.444h-.153a2.24 2.24 0 0 0-1.86 1.002h-4.66c-.464 0-.897.207-1.188.57a1.522 1.522 0 0 0-.301 1.289l2.29 10.303A2.104 2.104 0 0 0 5.37 19h18.008c1.041 0 1.96-.736 2.183-1.75l.091-.411a.233.233 0 1 0-.454-.101l-.092.411a1.758 1.758 0 0 1-.659 1.02 2.079 2.079 0 0 0 .376-1.72l-.143-.643h1.356c1.042 0 1.96-.736 2.183-1.75L30.68 2.98a1.618 1.618 0 0 0-.317-1.372A1.617 1.617 0 0 0 29.094 1ZM9.046 4.66h.049l-.12.535H7.777c.33-.337.786-.535 1.269-.535ZM3.78 17.258 1.491 6.954A1.06 1.06 0 0 1 2.525 5.66h10.002c.757 0 1.428.537 1.593 1.274a2.058 2.058 0 0 0 .732 1.18c.366.3.832.464 1.312.464h5.585c.5 0 .925.342 1.034.831l1.587 7.141c.108.484-.008.984-.318 1.372a1.62 1.62 0 0 1-1.271.61H5.37a1.634 1.634 0 0 1-1.59-1.275Zm26.444-14.38-2.46 11.078a1.779 1.779 0 0 1-1.729 1.385h-1.459l-1.34-6.031a1.517 1.517 0 0 0-1.49-1.195h-5.584c-.373 0-.734-.128-1.019-.361a1.598 1.598 0 0 1-.57-.917 2.11 2.11 0 0 0-1.827-1.622l.193-.869a.215.215 0 0 1 .211-.167h3.897c.032 0 .051.018.06.029.008.01.022.033.015.064l-.55 2.482a.217.217 0 0 1-.212.169h-.695a.233.233 0 1 0 0 .465h.695c.32 0 .593-.218.666-.532l.551-2.484a.54.54 0 0 0-.53-.659H13.15a.678.678 0 0 0-.665.53l-.212.953h-2.82l.16-.717V4.47l.362-1.619a1.763 1.763 0 0 1 1.729-1.385h17.39c.353 0 .683.157.904.434.221.275.304.632.227.978Z"/><path d="M24.404 3.996a.248.248 0 0 0-.239.244l-.001.001c-.009.006-.018.008-.026.014l-5.036-.007c-.009-.01-.014-.023-.025-.032a.233.233 0 0 0-.466 0 .5.5 0 0 0 .183.386l.002.003.003.002c.011.01.024.014.037.021a.49.49 0 0 0 .28.093h5.023a.485.485 0 0 0 .27-.09c.012-.006.025-.01.036-.019l.006-.005.004-.003.005-.006a.496.496 0 0 0 .183-.382c0-.127-.11-.22-.24-.22ZM22.35 5.834a.233.233 0 0 0-.234.233.04.04 0 0 1-.039.04h-3.249a.04.04 0 0 1-.04-.04.233.233 0 1 0-.465 0c0 .278.227.505.505.505h3.249a.506.506 0 0 0 .505-.505.233.233 0 0 0-.233-.233ZM8.13 14.8 6.838 8.986a.898.898 0 0 0-.178-.37.92.92 0 0 0-.728-.356H4.624a.93.93 0 0 0-.91 1.13l1.292 5.812c.093.43.466.731.906.731H7.22a.94.94 0 0 0 .71-.326.897.897 0 0 0 .214-.71.367.367 0 0 0-.014-.097Zm-.555.504a.466.466 0 0 1-.355.164H5.912a.46.46 0 0 1-.452-.365L4.168 9.289a.465.465 0 0 1 .456-.563H5.93c.143 0 .276.065.363.178a.438.438 0 0 1 .09.184l1.297 5.846a.457.457 0 0 1-.106.37Z"/></mask><path d="M29.094 1h-17.39c-1.054 0-1.952.72-2.183 1.75l-.322 1.444h-.153a2.24 2.24 0 0 0-1.86 1.002h-4.66c-.464 0-.897.207-1.188.57a1.522 1.522 0 0 0-.301 1.289l2.29 10.303A2.104 2.104 0 0 0 5.37 19h18.008c1.041 0 1.96-.736 2.183-1.75l.091-.411a.233.233 0 1 0-.454-.101l-.092.411a1.758 1.758 0 0 1-.659 1.02 2.079 2.079 0 0 0 .376-1.72l-.143-.643h1.356c1.042 0 1.96-.736 2.183-1.75L30.68 2.98a1.618 1.618 0 0 0-.317-1.372A1.617 1.617 0 0 0 29.094 1ZM9.046 4.66h.049l-.12.535H7.777c.33-.337.786-.535 1.269-.535ZM3.78 17.258 1.491 6.954A1.06 1.06 0 0 1 2.525 5.66h10.002c.757 0 1.428.537 1.593 1.274a2.058 2.058 0 0 0 .732 1.18c.366.3.832.464 1.312.464h5.585c.5 0 .925.342 1.034.831l1.587 7.141c.108.484-.008.984-.318 1.372a1.62 1.62 0 0 1-1.271.61H5.37a1.634 1.634 0 0 1-1.59-1.275Zm26.444-14.38-2.46 11.078a1.779 1.779 0 0 1-1.729 1.385h-1.459l-1.34-6.031a1.517 1.517 0 0 0-1.49-1.195h-5.584c-.373 0-.734-.128-1.019-.361a1.598 1.598 0 0 1-.57-.917 2.11 2.11 0 0 0-1.827-1.622l.193-.869a.215.215 0 0 1 .211-.167h3.897c.032 0 .051.018.06.029.008.01.022.033.015.064l-.55 2.482a.217.217 0 0 1-.212.169h-.695a.233.233 0 1 0 0 .465h.695c.32 0 .593-.218.666-.532l.551-2.484a.54.54 0 0 0-.53-.659H13.15a.678.678 0 0 0-.665.53l-.212.953h-2.82l.16-.717V4.47l.362-1.619a1.763 1.763 0 0 1 1.729-1.385h17.39c.353 0 .683.157.904.434.221.275.304.632.227.978Z" fill="#050081"/><path d="M24.404 3.996a.248.248 0 0 0-.239.244l-.001.001c-.009.006-.018.008-.026.014l-5.036-.007c-.009-.01-.014-.023-.025-.032a.233.233 0 0 0-.466 0 .5.5 0 0 0 .183.386l.002.003.003.002c.011.01.024.014.037.021a.49.49 0 0 0 .28.093h5.023a.485.485 0 0 0 .27-.09c.012-.006.025-.01.036-.019l.006-.005.004-.003.005-.006a.496.496 0 0 0 .183-.382c0-.127-.11-.22-.24-.22ZM22.35 5.834a.233.233 0 0 0-.234.233.04.04 0 0 1-.039.04h-3.249a.04.04 0 0 1-.04-.04.233.233 0 1 0-.465 0c0 .278.227.505.505.505h3.249a.506.506 0 0 0 .505-.505.233.233 0 0 0-.233-.233ZM8.13 14.8 6.838 8.986a.898.898 0 0 0-.178-.37.92.92 0 0 0-.728-.356H4.624a.93.93 0 0 0-.91 1.13l1.292 5.812c.093.43.466.731.906.731H7.22a.94.94 0 0 0 .71-.326.897.897 0 0 0 .214-.71.367.367 0 0 0-.014-.097Zm-.555.504a.466.466 0 0 1-.355.164H5.912a.46.46 0 0 1-.452-.365L4.168 9.289a.465.465 0 0 1 .456-.563H5.93c.143 0 .276.065.363.178a.438.438 0 0 1 .09.184l1.297 5.846a.457.457 0 0 1-.106.37Z" fill="#050081"/><path d="M29.094 1h-17.39c-1.054 0-1.952.72-2.183 1.75l-.322 1.444h-.153a2.24 2.24 0 0 0-1.86 1.002h-4.66c-.464 0-.897.207-1.188.57a1.522 1.522 0 0 0-.301 1.289l2.29 10.303A2.104 2.104 0 0 0 5.37 19h18.008c1.041 0 1.96-.736 2.183-1.75l.091-.411a.233.233 0 1 0-.454-.101l-.092.411a1.758 1.758 0 0 1-.659 1.02 2.079 2.079 0 0 0 .376-1.72l-.143-.643h1.356c1.042 0 1.96-.736 2.183-1.75L30.68 2.98a1.618 1.618 0 0 0-.317-1.372A1.617 1.617 0 0 0 29.094 1ZM9.046 4.66h.049l-.12.535H7.777c.33-.337.786-.535 1.269-.535ZM3.78 17.258 1.491 6.954A1.06 1.06 0 0 1 2.525 5.66h10.002c.757 0 1.428.537 1.593 1.274a2.058 2.058 0 0 0 .732 1.18c.366.3.832.464 1.312.464h5.585c.5 0 .925.342 1.034.831l1.587 7.141c.108.484-.008.984-.318 1.372a1.62 1.62 0 0 1-1.271.61H5.37a1.634 1.634 0 0 1-1.59-1.275Zm26.444-14.38-2.46 11.078a1.779 1.779 0 0 1-1.729 1.385h-1.459l-1.34-6.031a1.517 1.517 0 0 0-1.49-1.195h-5.584c-.373 0-.734-.128-1.019-.361a1.598 1.598 0 0 1-.57-.917 2.11 2.11 0 0 0-1.827-1.622l.193-.869a.215.215 0 0 1 .211-.167h3.897c.032 0 .051.018.06.029.008.01.022.033.015.064l-.55 2.482a.217.217 0 0 1-.212.169h-.695a.233.233 0 1 0 0 .465h.695c.32 0 .593-.218.666-.532l.551-2.484a.54.54 0 0 0-.53-.659H13.15a.678.678 0 0 0-.665.53l-.212.953h-2.82l.16-.717V4.47l.362-1.619a1.763 1.763 0 0 1 1.729-1.385h17.39c.353 0 .683.157.904.434.221.275.304.632.227.978Z" stroke="#050081" stroke-width=".2" mask="url(#a)"/><path d="M24.404 3.996a.248.248 0 0 0-.239.244l-.001.001c-.009.006-.018.008-.026.014l-5.036-.007c-.009-.01-.014-.023-.025-.032a.233.233 0 0 0-.466 0 .5.5 0 0 0 .183.386l.002.003.003.002c.011.01.024.014.037.021a.49.49 0 0 0 .28.093h5.023a.485.485 0 0 0 .27-.09c.012-.006.025-.01.036-.019l.006-.005.004-.003.005-.006a.496.496 0 0 0 .183-.382c0-.127-.11-.22-.24-.22ZM22.35 5.834a.233.233 0 0 0-.234.233.04.04 0 0 1-.039.04h-3.249a.04.04 0 0 1-.04-.04.233.233 0 1 0-.465 0c0 .278.227.505.505.505h3.249a.506.506 0 0 0 .505-.505.233.233 0 0 0-.233-.233ZM8.13 14.8 6.838 8.986a.898.898 0 0 0-.178-.37.92.92 0 0 0-.728-.356H4.624a.93.93 0 0 0-.91 1.13l1.292 5.812c.093.43.466.731.906.731H7.22a.94.94 0 0 0 .71-.326.897.897 0 0 0 .214-.71.367.367 0 0 0-.014-.097Zm-.555.504a.466.466 0 0 1-.355.164H5.912a.46.46 0 0 1-.452-.365L4.168 9.289a.465.465 0 0 1 .456-.563H5.93c.143 0 .276.065.363.178a.438.438 0 0 1 .09.184l1.297 5.846a.457.457 0 0 1-.106.37Z" stroke="#050081" stroke-width=".2" mask="url(#a)"/></svg>