<svg width="18" height="22" fill="none" xmlns="http://www.w3.org/2000/svg"><path fill-rule="evenodd" clip-rule="evenodd" d="M14.719 2.75A8.422 8.422 0 0 0 8.877.386C4.207.386.386 4.242.386 8.948c0 1.698.424 3.432 1.309 5.165.672 1.345 1.628 2.69 2.83 3.963-1.202-1.273-2.158-2.618-2.83-3.962C.811 12.38.386 10.646.386 8.948.386 4.243 4.207.386 8.877.386a8.42 8.42 0 0 1 5.842 2.364ZM0 8.948C0 4.032 3.99 0 8.877 0c4.887 0 8.877 4.032 8.877 8.948 0 1.797-.44 3.593-1.424 5.346-.691 1.38-1.668 2.752-2.89 4.046a24.189 24.189 0 0 1-2.827 2.57 20.604 20.604 0 0 1-1.236.887 2.15 2.15 0 0 1-.15.091l-.012.006a.839.839 0 0 1-.373.106.833.833 0 0 1-.372-.105l-.013-.006a2.14 2.14 0 0 1-.15-.092 20.63 20.63 0 0 1-1.236-.886 24.188 24.188 0 0 1-2.827-2.57c-1.224-1.297-2.202-2.672-2.894-4.054C.441 12.505 0 10.712 0 8.947Zm12.647 8.505-.02.021-.02.023c-1.55 1.686-3.131 2.81-3.73 3.197.602-.389 2.194-1.521 3.75-3.22 1.77-1.91 3.892-4.917 3.892-8.49 0 3.56-2.107 6.558-3.872 8.47Zm-.303-.24.016.014-.017-.013a20.766 20.766 0 0 1-3.46 3.013 22.976 22.976 0 0 1-3.44-2.98v-.002C3.662 15.36 1.62 12.41 1.62 8.983c0-4.035 3.262-7.326 7.256-7.326s7.256 3.29 7.256 7.326c0 3.425-2.04 6.34-3.789 8.23ZM8.877 5.023a3.783 3.783 0 1 0 .002 7.567 3.783 3.783 0 0 0-.002-7.567Zm0 5.944a2.15 2.15 0 0 1-2.161-2.161c0-1.202.96-2.162 2.161-2.162 1.202 0 2.162.96 2.162 2.162a2.15 2.15 0 0 1-2.162 2.16Zm0-5.558Zm-1.801 5.204a2.54 2.54 0 0 0 1.801.74 2.54 2.54 0 0 1-1.801-.74Z" fill="#C4C4C4"/></svg>