<svg width="142" height="33" fill="none" xmlns="http://www.w3.org/2000/svg"><path d="M137.836 21.723h-.014a2.216 2.216 0 0 0-2.22 2.213c.002 1.218 1.004 2.201 2.234 2.198a2.214 2.214 0 0 0 2.219-2.212 2.215 2.215 0 0 0-2.219-2.199Zm0 4.14a1.908 1.908 0 0 1-1.923-1.89 1.907 1.907 0 0 1 1.909-1.905h.014a1.91 1.91 0 0 1 1.917 1.899 1.907 1.907 0 0 1-1.917 1.896Z" fill="#fff"/><path d="M138.626 24.485c-.051-.373-.198-.572-.419-.614v-.016a.621.621 0 0 0 .492-.608.592.592 0 0 0-.226-.518 1.329 1.329 0 0 0-.786-.188 5.022 5.022 0 0 0-.71.059v2.5h.401v-1.078h.281c.26-.039.503.14.539.398.004.017.004.034.007.05.019.222.076.438.166.64h.422a2.06 2.06 0 0 1-.167-.625Zm-.965-.768h-.291v-.845c.097-.017.192-.023.291-.023.453 0 .614.224.614.448 0 .308-.282.429-.614.429M89.907 8.628c-4.268 0-7.67 2.554-8.331 6.183-.597 3.392 1.908 6.1 5.695 6.1h6.276c2.397 0 3.642.997 3.342 2.663-.245 1.381-1.725 2.378-3.498 2.378H80.308a7.42 7.42 0 0 0 .954-2.52c.675-3.778-1.595-6.184-5.798-6.184h-6.9c-1.541 0-2.667-1.143-2.43-2.456a3.106 3.106 0 0 1 2.993-2.367h9.519c3.28 0 3.835-3.814 3.835-3.814H68.12c-4.265 0-7.67 2.554-8.32 6.184-.608 3.402 1.9 6.1 5.687 6.1h6.275c2.396 0 3.637.996 3.346 2.663-.246 1.38-1.73 2.377-3.498 2.377H59.755L55.317 8.628h-5.212s-1.923 3.2-3.11 5.102c-2.814 4.479.418 7.475.463 7.528h-4.813l-3.244 5.498-2.859-5.517c3.436-.7 5.866-3.047 6.425-6.184.637-3.526-1.6-6.43-5.005-6.43H5.038c-3.272.003-3.823 3.797-3.823 3.797h9.657L7.787 29.747s4.836.46 5.814-5.041c.676-3.868 2.18-12.272 2.18-12.272h17.393c2.511 0 3.892 1.053 3.583 2.778-.294 1.672-2.288 3.038-4.51 3.038h-7.62c-3.537.003-4.55 3.535-4.55 3.535l-1.419 7.965h4.918l1.445-8.12h5.89l4.062 8.12h7.944l2.782-4.803h8.75l.922 4.803H95.34c3.761 0 7.059-2.725 7.698-6.33.676-3.778-1.577-6.183-5.795-6.183h-6.888c-1.539 0-2.673-1.143-2.435-2.456.138-.793.778-1.53 1.804-2.011a2.7 2.7 0 0 1 1.185-.345h16.787l-3.08 17.32s4.257.405 5.591-4.11c.051-.249.102-.492.144-.756l2.894-16.251H89.907ZM47.47 21.267l4.43-7.397 1.578 7.386-6.01.01Zm88.69-10.477h-21.113l-.278 1.563h21.114l.277-1.563Zm-1.662-2.162h-19.064l-.28 1.563h19.064l.28-1.563Zm-4.305 4.338-.274 1.563h7.622l.277-1.563h-7.625Zm2.367 6.525h-19.061l-.282 1.563h19.064l.279-1.563Zm-3.034-2.783h7.624l.283-1.563h-7.625l-.282 1.563Zm5.469.61h-19.598l-.277 1.563h19.598l.277-1.563Zm-4.94 4.347h-5.605l-.277 1.562h5.607l.275-1.562Zm-17.226 1.562h4.831l.282-1.562h-4.835l-.278 1.562Zm18.892.605h-5.617l-.28 1.563h5.619l.278-1.563Zm1.656 2.18h-5.608l-.274 1.562h5.614l.268-1.563Zm-4.224 3.738h5.616l.271-1.563h-5.608l-.279 1.563Zm-17.481 0h4.834l.286-1.563h-4.839l-.281 1.563Zm.388-2.173h4.839l.277-1.563h-4.842l-.274 1.563Zm.656-3.705-.265 1.529h4.839l.274-1.563h-4.268l-.58.034Zm-3.471-22.504-.917 5.15h4.749l.047-.274c.948-5.315-3.879-4.876-3.879-4.876Z" fill="#fff"/></svg>