<svg width="179" height="37" fill="none" xmlns="http://www.w3.org/2000/svg"><g clip-path="url(#a)"><path d="M140.34 34.113h5.296c.53 0 .927-.393.927-.787a.983.983 0 0 0-.927-1.18h-4.104c-.53 0-.927.393-.927.786l-.265 1.181Zm-.529 2.755h5.295c.53 0 .927-.393.927-.787a.983.983 0 0 0-.927-1.18h-4.104c-.529 0-.927.393-.927.787l-.264 1.18ZM166.29 23.88h-23.302c-.53 0-.927.394-.927.787-.132.656.397 1.181.927 1.181h22.11c.53 0 .927-.393.927-.787l.265-1.18Zm2.515-13.777h-23.301c-.53 0-.927.394-.927.788a.983.983 0 0 0 .927 1.18h22.11c.529 0 .927-.393.927-.787l.264-1.18Zm.53 11.022h-23.964c-.529 0-.927.393-.927.787-.132.656.398 1.18.927 1.18h22.772c.53 0 .927-.393.927-.786l.265-1.181Zm1.589-8.266h-25.95c-.53 0-.927.393-.927.787a.983.983 0 0 0 .927 1.18h24.758c.53 0 .927-.393.927-.786l.265-1.181ZM141.135 29.52l-.133.787c-.132.656.397 1.181.927 1.181h4.104c.53 0 .927-.394.927-.787.132-.656-.397-1.181-.927-1.181h-4.898Zm20.918 7.347h6.223c.529 0 .927-.393.927-.787.132-.656-.398-1.18-.927-1.18h-5.031c-.53 0-.927.393-.927.787l-.265 1.18Zm1.324-21.255-.132.787a.983.983 0 0 0 .927 1.181h7.679c.529 0 .926-.393.926-.787a.982.982 0 0 0-.926-1.18h-8.474Zm3.972 16.532h-6.223c-.529 0-.926.394-.926.787-.133.656.397 1.181.926 1.181h5.031c.53 0 .927-.393.927-.787l.265-1.18Zm-4.899-11.808h8.871c.529 0 .927-.394.927-.788.132-.656-.398-1.18-.927-1.18h-7.679c-.53 0-.927.393-.927.787l-.265 1.18Zm.662 6.297h-6.222c-.53 0-.927.394-.927.788a.983.983 0 0 0 .927 1.18h5.031c.529 0 .927-.393.927-.787l.264-1.18Zm2.119 2.756h-6.223c-.53 0-.927.393-.927.787a.983.983 0 0 0 .927 1.18h5.031c.53 0 .927-.393.927-.786l.265-1.181Zm-23.832-.788h5.296c.53 0 .927-.393.927-.787a.983.983 0 0 0-.927-1.18h-4.104c-.53 0-.927.393-.927.787l-.265 1.18Z" fill="#E20000"/><path d="m136.898 0-1.324 7.216h6.62l.132-.394C143.518-.656 136.898 0 136.898 0Zm-35.085 17.975c-.794 4.33 2.383 7.741 7.149 7.741h7.944c3.045 0 4.634 1.312 4.237 3.411-.265 1.706-2.251 3.018-4.369 3.018h-16.682c.529-.918 1.059-2.1 1.191-3.149.795-4.723-1.986-7.872-7.282-7.872h-8.738c-1.986 0-3.442-1.443-3.045-3.15.133-1.049 1.457-3.017 3.84-3.017h12.048c4.104 0 4.898-4.854 4.898-4.854h-18.27c-5.428 0-9.665 3.28-10.592 7.872-.794 4.33 2.383 7.741 7.15 7.741h7.943c3.045 0 4.634 1.312 4.237 3.411-.265 1.706-2.25 3.018-4.37 3.018h-14.96l-5.693-22.042h-6.62s-2.383 4.067-3.972 6.429c-3.574 5.642.53 9.447.53 9.578h-6.09l-4.105 6.954-3.574-6.954c4.369-.919 7.414-3.805 8.076-7.873.794-4.46-1.986-8.134-6.355-8.134H4.899C.662 10.103 0 14.957 0 14.957h12.18L8.341 36.868s6.09.525 7.414-6.429c.927-4.854 2.78-15.482 2.78-15.482h21.978c3.178 0 4.899 1.312 4.502 3.543-.397 2.099-2.913 3.805-5.693 3.805h-9.665c-4.502 0-5.826 4.592-5.826 4.592L21.978 37H28.2l1.854-10.234h7.414L42.632 37h10.062l3.575-6.036h11.12L68.582 37h50.576c4.766 0 9.003-3.412 9.797-8.004.795-4.723-1.986-7.872-7.282-7.872h-8.738c-1.986 0-3.442-1.443-3.045-3.15.132-1.049.927-1.967 2.251-2.492.529-.262 1.059-.394 1.456-.394h21.316L131.072 37s5.429.525 7.018-5.248c0-.263.132-.656.132-.919l3.707-20.6h-29.657c-5.428-.13-9.665 3.15-10.459 7.742ZM58.519 26.11l5.56-9.316 1.987 9.316h-7.547Zm117.7-18.632c1.589 0 2.78 1.312 2.78 2.887 0 1.574-1.191 2.886-2.78 2.886-1.589 0-2.78-1.312-2.78-2.886-.133-1.706 1.191-2.887 2.78-2.887Zm0 .394c-1.191 0-2.251 1.05-2.251 2.362s1.06 2.361 2.251 2.361c1.324 0 2.251-1.05 2.251-2.361 0-1.312-1.059-2.362-2.251-2.362Zm-.529 4.067h-.53V8.79c.265 0 .53-.13.927-.13.529 0 .794.13 1.059.262a1 1 0 0 1 .265.656c0 .393-.265.656-.662.787.265 0 .529.262.529.787.133.525.133.656.265.787h-.529c-.133-.13-.133-.393-.265-.787-.133-.394-.265-.525-.662-.525h-.397v1.312Zm0-1.837h.397c.397 0 .794-.13.794-.524 0-.263-.265-.525-.794-.525h-.397v1.05Z" fill="#050081"/></g><defs><clipPath id="a"><path fill="#fff" d="M0 0h179v37H0z"/></clipPath></defs></svg>