<svg width="114" height="27" fill="none" xmlns="http://www.w3.org/2000/svg"><path d="M110.657 17.968h-.011c-.988.003-1.785.823-1.783 1.83.002 1.008.806 1.821 1.794 1.819.988-.003 1.785-.823 1.782-1.83-.004-1.003-.799-1.816-1.782-1.819Zm0 3.424c-.849.002-1.542-.697-1.544-1.564-.002-.866.683-1.572 1.533-1.575h.011c.849 0 1.539.704 1.539 1.57 0 .867-.69 1.569-1.539 1.569Z" fill="#fff"/><path d="M111.293 20.253c-.041-.309-.159-.473-.336-.508v-.014a.51.51 0 0 0 .394-.502.497.497 0 0 0-.181-.429 1.04 1.04 0 0 0-.631-.155 3.894 3.894 0 0 0-.57.049v2.068h.322v-.892h.225a.38.38 0 0 1 .433.33c.003.013.003.027.006.041.015.183.061.361.133.528h.339a1.713 1.713 0 0 1-.134-.516Zm-.775-.635h-.234v-.7a1.32 1.32 0 0 1 .234-.018c.363 0 .493.185.493.37 0 .255-.227.355-.493.355M72.18 7.136c-3.427 0-6.158 2.113-6.689 5.115-.48 2.805 1.532 5.045 4.573 5.045h5.038c1.925 0 2.923.825 2.683 2.203-.197 1.142-1.385 1.967-2.808 1.967H64.474a6.252 6.252 0 0 0 .765-2.085c.542-3.125-1.28-5.114-4.654-5.114h-5.54c-1.237 0-2.141-.946-1.95-2.032a2.51 2.51 0 0 1 2.402-1.957h7.642c2.633 0 3.078-3.155 3.078-3.155H54.689c-3.423 0-6.157 2.112-6.679 5.114-.488 2.815 1.526 5.045 4.566 5.045h5.038c1.923 0 2.92.825 2.686 2.203-.198 1.143-1.39 1.967-2.809 1.967h-9.517L44.41 7.136h-4.185s-1.544 2.648-2.497 4.221c-2.26 3.704.336 6.183.372 6.227h-3.864l-2.604 4.547-2.295-4.564c2.758-.579 4.708-2.52 5.158-5.114.51-2.917-1.285-5.319-4.019-5.319H4.046c-2.627.002-3.07 3.141-3.07 3.141H8.73l-2.477 14.33s3.883.38 4.668-4.17c.543-3.199 1.75-10.15 1.75-10.15h13.964c2.016 0 3.124.87 2.876 2.297-.236 1.383-1.837 2.514-3.621 2.514h-6.116c-2.84.002-3.654 2.923-3.654 2.923l-1.14 6.588h3.949l1.16-6.715h4.73l3.26 6.715h6.377l2.234-3.973h7.025l.74 3.973H76.54c3.02 0 5.667-2.254 6.18-5.235.543-3.125-1.267-5.115-4.652-5.115h-5.53c-1.236 0-2.146-.945-1.956-2.031.112-.656.625-1.265 1.449-1.664a2.11 2.11 0 0 1 .951-.284H86.46l-2.472 14.324s3.417.336 4.488-3.398c.041-.206.082-.407.116-.625l2.323-13.443H72.179ZM38.11 17.591l3.558-6.118 1.267 6.108-4.825.01Z" fill="#fff"/><path d="M109.311 8.925h-16.95l-.223 1.293h16.951l.222-1.293Zm-1.334-1.788H92.672l-.224 1.293h15.304l.225-1.293Zm-3.456 3.588-.22 1.293h6.119l.222-1.293h-6.121Zm1.9 5.397H91.119l-.227 1.293h15.305l.224-1.293Zm-2.435-2.302h6.121l.226-1.293h-6.121l-.226 1.293Zm4.39.505H92.643l-.222 1.293h15.733l.222-1.293Zm-3.966 3.595h-4.5l-.222 1.293h4.502l.22-1.293Zm-13.829 1.293h3.878l.227-1.293h-3.882l-.223 1.293Zm15.167.5h-4.509l-.225 1.293h4.511l.223-1.293Zm1.329 1.802h-4.502l-.22 1.293h4.507l.215-1.293Zm-3.391 3.093h4.509l.218-1.293h-4.503l-.224 1.293Zm-14.034 0h3.88l.23-1.293h-3.885l-.225 1.293Zm.312-1.798h3.884l.223-1.293h-3.887l-.22 1.293Zm.526-3.065-.213 1.265h3.885l.22-1.292h-3.426l-.466.027Z" fill="#E20000"/><path d="m87.705 1.133-.736 4.26h3.812l.038-.228c.76-4.396-3.114-4.032-3.114-4.032Z" fill="#fff"/></svg>